<svg xmlns="http://www.w3.org/2000/svg" viewBox="0 0 875.62 327.24"><defs><style>.cls-1{fill:#231f20;}.cls-2{font-size:30px;font-family:Roboto-Regular, Roboto;}.cls-2,.cls-6,.cls-7{fill:#fff;}.cls-3{letter-spacing:-0.01em;}.cls-4{letter-spacing:-0.01em;}.cls-5{font-size:80px;fill:#fcd217;font-family:Roboto-Black, Roboto;font-weight:800;}.cls-6{letter-spacing:-0.01em;}.cls-10,.cls-8,.cls-9{fill:none;stroke-width:2px;}.cls-8{stroke:#fff;stroke-linejoin:round;}.cls-10,.cls-9{stroke:#fcd217;stroke-miterlimit:10;}.cls-10{stroke-linecap:round;}</style></defs><title>Asset 3</title><g id="Layer_2" data-name="Layer 2"><g id="Layer_1-2" data-name="Layer 1"><rect class="cls-1" width="875.62" height="327.24"/><text class="cls-2" transform="translate(241.86 145.59)">Inc<tspan class="cls-3" x="40.42" y="0">r</tspan><tspan x="50.29" y="0">eased daily capacity f</tspan><tspan class="cls-4" x="337.62" y="0">r</tspan><tspan x="347.48" y="0">om </tspan><tspan class="cls-5"><tspan x="-101.49" y="80">30 </tspan><tspan class="cls-6" x="11.08" y="80">t</tspan><tspan class="cls-7" x="37.37" y="80">o </tspan><tspan x="102.22" y="80">45 </tspan><tspan class="cls-7" x="214.79" y="80">wagons </tspan></tspan></text><line class="cls-8" x1="409.25" y1="89.68" x2="401.36" y2="89.68"/><line class="cls-8" x1="422.21" y1="89.68" x2="415.41" y2="89.68"/><path class="cls-8" d="M448.4,68.08V63.84a16.88,16.88,0,0,0-11-4V89.68h-9.08"/><path class="cls-8" d="M468.67,95.35h3.51a1,1,0,0,0,1.05-1V83.73a1.36,1.36,0,0,0-1-1.27l-10-2.21V73.14a2.9,2.9,0,0,0-2.9-2.89h-6.95V61l-3.84-3.84"/><line class="cls-8" x1="431.72" y1="95.35" x2="455.76" y2="95.35"/><line class="cls-8" x1="401.36" y1="95.36" x2="405.9" y2="95.35"/><rect class="cls-8" x="451.9" y="74.49" width="6.11" height="4.63"/><path class="cls-9" d="M401.36,61.37h30.93a1,1,0,0,1,1,1V68a1,1,0,0,1-1,1H401.36"/><path class="cls-9" d="M401.36,69h30.93a1,1,0,0,1,1,1v5.66a1,1,0,0,1-1,1H401.36"/><path class="cls-9" d="M401.36,76.56h30.93a1,1,0,0,1,1,1v5.65a1,1,0,0,1-1,1H401.36"/><line class="cls-10" x1="421.33" y1="58.31" x2="421.33" y2="86.56"/><line class="cls-10" x1="406.31" y1="58.31" x2="406.31" y2="86.56"/><path class="cls-8" d="M431.72,95.36a6.46,6.46,0,1,1-6.46-6.45A6.46,6.46,0,0,1,431.72,95.36Z"/><path class="cls-8" d="M418.81,95.36a6.46,6.46,0,1,1-6.46-6.45A6.46,6.46,0,0,1,418.81,95.36Z"/><line class="cls-8" x1="473.23" y1="86.56" x2="470.2" y2="86.56"/><path class="cls-8" d="M468.67,95.36a6.46,6.46,0,1,1-6.46-6.45A6.46,6.46,0,0,1,468.67,95.36Z"/></g></g></svg>