<svg xmlns="http://www.w3.org/2000/svg" viewBox="0 0 875.62 327.24"><defs><style>.cls-1{fill:#231f20;}.cls-2{fill:#fff;}</style></defs><title>Asset 7</title><g id="Layer_2" data-name="Layer 2"><g id="Layer_1-2" data-name="Layer 1"><rect class="cls-1" width="875.62" height="327.24"/><path class="cls-2" d="M158.67,63.63l1,.79A8.17,8.17,0,0,0,157.75,68l-.35,2h-1.73l.25-1.6A7.62,7.62,0,0,1,158.67,63.63Zm3.56,0,1,.79A8.17,8.17,0,0,0,161.31,68L161,70h-1.73l.25-1.6A7.62,7.62,0,0,1,162.23,63.63Z"/><path class="cls-2" d="M180.38,66.6H173.3l-3.44,19.81h-1.78l3.44-19.81h-7.09l.28-1.52h15.95Z"/><path class="cls-2" d="M183.91,73.24a6.47,6.47,0,0,1,5.39-3,3.89,3.89,0,0,1,3.33,1.59,6.25,6.25,0,0,1,.73,4.24l-1.73,10.31H189.9l1.73-10.33a8.73,8.73,0,0,0,0-1.61,2.64,2.64,0,0,0-2.84-2.68,4.7,4.7,0,0,0-2.87.92,7.93,7.93,0,0,0-2.35,2.84l-1.87,10.86H180l3.91-22.5h1.73Z"/><path class="cls-2" d="M202.4,86.7a5.53,5.53,0,0,1-3.3-1.06,5.93,5.93,0,0,1-2-2.81A8.62,8.62,0,0,1,196.6,79l0-.5a10.72,10.72,0,0,1,1.3-4.18,8.12,8.12,0,0,1,2.79-3,6.38,6.38,0,0,1,3.6-1,5,5,0,0,1,3,1,5.34,5.34,0,0,1,1.77,2.61,8.72,8.72,0,0,1,.36,3.69l-.12,1.07h-11l-.05.35a7.12,7.12,0,0,0,.24,3.06,4.72,4.72,0,0,0,1.49,2.31,3.87,3.87,0,0,0,2.48.89,5,5,0,0,0,2.53-.54,8.14,8.14,0,0,0,2.08-1.57l1,.83a6.92,6.92,0,0,1-5.77,2.77Zm1.84-14.94a4.56,4.56,0,0,0-3.41,1.35,8.77,8.77,0,0,0-2.27,4h9.2l0-.22a5.11,5.11,0,0,0-.73-3.58A3.34,3.34,0,0,0,204.24,71.76Z"/><path class="cls-2" d="M220.46,86.41H218.7l3.91-22.5h1.76Z"/><path class="cls-2" d="M225.6,78.34A10.16,10.16,0,0,1,227,74.13a8,8,0,0,1,2.84-2.91,6.87,6.87,0,0,1,3.7-1,5.58,5.58,0,0,1,3.35,1.07,5.94,5.94,0,0,1,2,2.86,9.22,9.22,0,0,1,.43,4l0,.27a10,10,0,0,1-2.66,6,6.93,6.93,0,0,1-5.33,2.2,5.37,5.37,0,0,1-4.26-2,7.58,7.58,0,0,1-1.57-5.07l.05-.83Zm1.7.5a7.88,7.88,0,0,0,.26,3.21A4.74,4.74,0,0,0,229,84.36a3.83,3.83,0,0,0,2.45.88,5.06,5.06,0,0,0,2.89-.81,6.26,6.26,0,0,0,2.16-2.36,9.23,9.23,0,0,0,1.1-3.37l0-.48a7.3,7.3,0,0,0-.87-4.62,3.77,3.77,0,0,0-3.29-1.84,5.05,5.05,0,0,0-4.05,1.81,8.79,8.79,0,0,0-2.09,5Z"/><path class="cls-2" d="M249.52,70.25a5.76,5.76,0,0,1,2.59.68A4.49,4.49,0,0,1,254,72.84l.54-2.28h1.63l-2.67,15.57a8.76,8.76,0,0,1-1.26,3.52,6.62,6.62,0,0,1-5.92,3.09,6.31,6.31,0,0,1-2.85-.75,5.89,5.89,0,0,1-2.22-2l1.09-1a4.71,4.71,0,0,0,3.94,2.33A4.87,4.87,0,0,0,249.86,90a6.28,6.28,0,0,0,1.84-3.73l.38-1.85A6.24,6.24,0,0,1,247,86.7a4.25,4.25,0,0,1-3.46-1.7,7.57,7.57,0,0,1-1.3-4.49,13.2,13.2,0,0,1,.88-5.19,8.39,8.39,0,0,1,2.63-3.84A5.7,5.7,0,0,1,249.52,70.25Zm-5.45,8.49L244,80.1a6.36,6.36,0,0,0,.84,3.71,3.06,3.06,0,0,0,2.59,1.37,4.9,4.9,0,0,0,2.74-.69,6.54,6.54,0,0,0,2.2-2.21l1.24-7.39a4.38,4.38,0,0,0-1.37-2.24,3.8,3.8,0,0,0-2.49-.87A4.39,4.39,0,0,0,246,73.5,10.41,10.41,0,0,0,244.07,78.74Z"/><path class="cls-2" d="M271.27,66.5l-.7,4.06h3.18L273.5,72h-3.18l-1.76,10.57,0,.91c0,1.06.49,1.61,1.47,1.64a10,10,0,0,0,1.42-.1l-.07,1.43a5.53,5.53,0,0,1-1.76.22,2.58,2.58,0,0,1-2.24-1.07,4.63,4.63,0,0,1-.51-3L268.58,72h-2.84l.26-1.44h2.81l.72-4.06Z"/><path class="cls-2" d="M284.31,72a6.44,6.44,0,0,0-1.16-.13,5.13,5.13,0,0,0-3.06,1,4.88,4.88,0,0,0-1.86,2.59l-1.87,10.9h-1.73l2.75-15.85h1.72l-.53,2.52a6.13,6.13,0,0,1,2.09-2.14,4.89,4.89,0,0,1,2.68-.7,4.41,4.41,0,0,1,1.2.2Z"/><path class="cls-2" d="M293.83,86.41a5.89,5.89,0,0,1,0-1.11l.13-1.1a8.24,8.24,0,0,1-2.51,1.86,6.73,6.73,0,0,1-3.06.64,4.5,4.5,0,0,1-3.25-1.27A3.8,3.8,0,0,1,284,82.32a4.72,4.72,0,0,1,1.08-2.72,6.19,6.19,0,0,1,2.73-1.78,11.56,11.56,0,0,1,4-.64l3.24,0,.26-1.82a3.19,3.19,0,0,0-.7-2.61,3.49,3.49,0,0,0-2.59-1,5,5,0,0,0-3,.86,3.77,3.77,0,0,0-1.61,2.33h-1.71a4.89,4.89,0,0,1,2.14-3.39,7.2,7.2,0,0,1,4.36-1.28,5.11,5.11,0,0,1,3.78,1.48A4.44,4.44,0,0,1,297,75.42l-1.32,8-.11,1.28a6.28,6.28,0,0,0,.11,1.56l0,.18Zm-5.18-1.23a5.76,5.76,0,0,0,3.08-.77,6.88,6.88,0,0,0,2.44-2.36l.6-3.51H292a8.71,8.71,0,0,0-4.35,1,3.38,3.38,0,0,0-1.86,2.7,2.54,2.54,0,0,0,.68,2.13A3,3,0,0,0,288.65,85.18Z"/><path class="cls-2" d="M300.41,78.44A13.08,13.08,0,0,1,301.77,74a7.4,7.4,0,0,1,2.51-2.86,5.9,5.9,0,0,1,3.34-.89,5.52,5.52,0,0,1,2.56.65A4.43,4.43,0,0,1,312,72.8l1.61-8.89h1.73l-3.91,22.5h-1.63l.4-2.11a6.16,6.16,0,0,1-5.13,2.4A4.24,4.24,0,0,1,301.62,85a7.51,7.51,0,0,1-1.31-4.47,11.26,11.26,0,0,1,.07-1.76Zm1.76.29a14.12,14.12,0,0,0-.09,2.09A5.36,5.36,0,0,0,303,84a3.07,3.07,0,0,0,2.48,1.21,4.89,4.89,0,0,0,2.86-.75,6.84,6.84,0,0,0,2.08-2.1l1.27-7.46a4.45,4.45,0,0,0-1.4-2.22,3.88,3.88,0,0,0-2.48-.86,4.45,4.45,0,0,0-3.71,1.7,9.53,9.53,0,0,0-1.91,4.94Z"/><path class="cls-2" d="M322.31,86.7a5.53,5.53,0,0,1-3.3-1.06,6,6,0,0,1-2-2.81,8.62,8.62,0,0,1-.46-3.85l0-.5a10.72,10.72,0,0,1,1.3-4.18,8.21,8.21,0,0,1,2.79-3,6.38,6.38,0,0,1,3.6-1,5,5,0,0,1,3,1A5.36,5.36,0,0,1,329,73.84a8.72,8.72,0,0,1,.35,3.69l-.12,1.07h-11l0,.35a7,7,0,0,0,.23,3.06A4.72,4.72,0,0,0,320,84.32a3.89,3.89,0,0,0,2.48.89,5,5,0,0,0,2.53-.54,8,8,0,0,0,2.08-1.57l1,.83a6.92,6.92,0,0,1-5.77,2.77Zm1.84-14.94a4.56,4.56,0,0,0-3.41,1.35,8.86,8.86,0,0,0-2.27,4h9.2l0-.22a5.06,5.06,0,0,0-.73-3.58A3.34,3.34,0,0,0,324.15,71.76Z"/><path class="cls-2" d="M339.64,86.41,342.14,72h-2.55l.27-1.44h2.53l.31-2.15a5.89,5.89,0,0,1,1.78-3.61A5,5,0,0,1,348,63.56a9.14,9.14,0,0,1,1.92.29l-.31,1.45a5.86,5.86,0,0,0-1.56-.22,3.32,3.32,0,0,0-2.43,1,4.58,4.58,0,0,0-1.21,2.65l-.28,1.88h3.68L347.55,72H343.9l-2.5,14.41Z"/><path class="cls-2" d="M348.63,78.34A10.45,10.45,0,0,1,350,74.13a8,8,0,0,1,2.85-2.91,6.82,6.82,0,0,1,3.7-1,5.57,5.57,0,0,1,3.34,1.07,5.94,5.94,0,0,1,2,2.86,9.37,9.37,0,0,1,.44,4l0,.27a10,10,0,0,1-2.66,6,6.93,6.93,0,0,1-5.33,2.2,5.4,5.4,0,0,1-4.26-2,7.58,7.58,0,0,1-1.57-5.07l0-.83Zm1.7.5a7.88,7.88,0,0,0,.26,3.21A4.68,4.68,0,0,0,352,84.36a3.8,3.8,0,0,0,2.44.88,5,5,0,0,0,2.89-.81,6.37,6.37,0,0,0,2.17-2.36,9.41,9.41,0,0,0,1.09-3.37l.05-.48a7.3,7.3,0,0,0-.87-4.62,3.77,3.77,0,0,0-3.29-1.84,5.08,5.08,0,0,0-4.05,1.81,8.79,8.79,0,0,0-2.09,5Z"/><path class="cls-2" d="M374.34,72a6.44,6.44,0,0,0-1.16-.13,5.13,5.13,0,0,0-3.06,1,4.88,4.88,0,0,0-1.86,2.59l-1.87,10.9h-1.73l2.75-15.85h1.71l-.52,2.52a6.13,6.13,0,0,1,2.09-2.14,4.89,4.89,0,0,1,2.68-.7,4.53,4.53,0,0,1,1.2.2Z"/><path class="cls-2" d="M392.33,84.42a6.08,6.08,0,0,1-5.22,2.28,3.92,3.92,0,0,1-3.34-1.62,6.33,6.33,0,0,1-.79-4.37l1.7-10.15h1.73l-1.68,10.19a7.5,7.5,0,0,0,0,1.57,3.26,3.26,0,0,0,.81,2.08,2.69,2.69,0,0,0,1.93.78,5.75,5.75,0,0,0,3.25-.81A4.09,4.09,0,0,0,392.64,82l2-11.48h1.76L393.6,86.41h-1.7Z"/><path class="cls-2" d="M408,82.28c.15-1.35-.67-2.33-2.46-2.93L403,78.6q-3.48-1.17-3.28-3.91a4,4,0,0,1,1.82-3.21,6.64,6.64,0,0,1,4.09-1.21,5.56,5.56,0,0,1,3.78,1.31A4,4,0,0,1,410.74,75H409a2.78,2.78,0,0,0-.88-2.32,3.83,3.83,0,0,0-2.59-.92,4.87,4.87,0,0,0-2.81.78,2.85,2.85,0,0,0-1.29,2.08c-.15,1.26.62,2.14,2.31,2.65l1.84.53,1,.33c2.2.83,3.24,2.19,3.12,4.06A4.2,4.2,0,0,1,408,85.32a6.88,6.88,0,0,1-4,1.37h-.6a7.11,7.11,0,0,1-2.89-.62,4.62,4.62,0,0,1-2-1.66A4,4,0,0,1,398,82h1.74a3,3,0,0,0,1,2.36,4.23,4.23,0,0,0,2.78.89,5.3,5.3,0,0,0,3-.8A2.92,2.92,0,0,0,408,82.28Z"/><path class="cls-2" d="M422,86.41h-1.76L423,70.56h1.75ZM423.49,66q.06-.94,1.26-1.2a1.46,1.46,0,0,1,.81.36,1.5,1.5,0,0,1,.31.84,1.7,1.7,0,0,1-.42.82,1.82,1.82,0,0,1-.84.37C423.82,67,423.45,66.65,423.49,66Z"/><path class="cls-2" d="M436.73,82.28c.15-1.35-.67-2.33-2.46-2.93l-2.52-.75q-3.48-1.17-3.28-3.91a4,4,0,0,1,1.82-3.21,6.64,6.64,0,0,1,4.09-1.21,5.56,5.56,0,0,1,3.78,1.31A4,4,0,0,1,439.51,75h-1.73a2.78,2.78,0,0,0-.88-2.32,3.83,3.83,0,0,0-2.59-.92,4.87,4.87,0,0,0-2.81.78,2.85,2.85,0,0,0-1.29,2.08c-.15,1.26.62,2.14,2.31,2.65l1.83.53,1,.33c2.2.83,3.24,2.19,3.12,4.06a4.2,4.2,0,0,1-1.65,3.13,6.88,6.88,0,0,1-3.95,1.37h-.6a7.08,7.08,0,0,1-2.89-.62,4.56,4.56,0,0,1-2-1.66,4,4,0,0,1-.6-2.46h1.74a3,3,0,0,0,1,2.36,4.23,4.23,0,0,0,2.78.89,5.3,5.3,0,0,0,3-.8A2.92,2.92,0,0,0,436.73,82.28Z"/><path class="cls-2" d="M456.71,70.25a5.76,5.76,0,0,1,2.59.68,4.49,4.49,0,0,1,1.85,1.91l.54-2.28h1.62l-2.66,15.57a8.76,8.76,0,0,1-1.26,3.52,6.62,6.62,0,0,1-5.92,3.09,6.32,6.32,0,0,1-2.86-.75,5.93,5.93,0,0,1-2.21-2l1.09-1a4.71,4.71,0,0,0,3.94,2.33A4.89,4.89,0,0,0,457.05,90a6.34,6.34,0,0,0,1.84-3.73l.38-1.85a6.26,6.26,0,0,1-5.08,2.33,4.26,4.26,0,0,1-3.47-1.7,7.64,7.64,0,0,1-1.29-4.49,13.2,13.2,0,0,1,.88-5.19,8.39,8.39,0,0,1,2.63-3.84A5.69,5.69,0,0,1,456.71,70.25Zm-5.45,8.49-.09,1.36a6.36,6.36,0,0,0,.84,3.71,3.06,3.06,0,0,0,2.59,1.37,4.9,4.9,0,0,0,2.74-.69,6.43,6.43,0,0,0,2.19-2.21l1.25-7.39a4.38,4.38,0,0,0-1.37-2.24,3.81,3.81,0,0,0-2.5-.87,4.39,4.39,0,0,0-3.71,1.72A10.41,10.41,0,0,0,451.26,78.74Z"/><path class="cls-2" d="M474.78,72a6.33,6.33,0,0,0-1.15-.13,5.08,5.08,0,0,0-3.06,1,5,5,0,0,0-1.87,2.59l-1.87,10.9H465.1l2.75-15.85h1.72L469,73.08a6.22,6.22,0,0,1,2.09-2.14,4.9,4.9,0,0,1,2.69-.7,4.53,4.53,0,0,1,1.2.2Z"/><path class="cls-2" d="M475.17,78.34a10.29,10.29,0,0,1,1.4-4.21,8,8,0,0,1,2.85-2.91,6.84,6.84,0,0,1,3.7-1,5.6,5.6,0,0,1,3.35,1.07,6,6,0,0,1,2,2.86,9.37,9.37,0,0,1,.43,4l0,.27a10,10,0,0,1-2.66,6,6.9,6.9,0,0,1-5.32,2.2,5.4,5.4,0,0,1-4.27-2,7.57,7.57,0,0,1-1.56-5.07l0-.83Zm1.69.5a8.05,8.05,0,0,0,.26,3.21,4.76,4.76,0,0,0,1.43,2.31,3.81,3.81,0,0,0,2.45.88,5.08,5.08,0,0,0,2.89-.81,6.43,6.43,0,0,0,2.16-2.36,9.62,9.62,0,0,0,1.1-3.37l0-.48a7.17,7.17,0,0,0-.87-4.62A3.75,3.75,0,0,0,483,71.76a5.08,5.08,0,0,0-4,1.81,8.86,8.86,0,0,0-2.09,5Z"/><path class="cls-2" d="M495.53,82.76V84l.57-1.37,5.78-12.08h1.5l1.56,12.11.09,1.5.6-1.51,5.25-12.1h1.86L505.5,86.41H504l-1.74-12.57,0-.88-.34.9-6.06,12.55h-1.5l-1.68-15.85,1.64,0Z"/><path class="cls-2" d="M515.23,86.41h-1.76l2.77-15.85H518ZM516.72,66q.07-.94,1.26-1.2a1.53,1.53,0,0,1,.82.36,1.5,1.5,0,0,1,.31.84,1.7,1.7,0,0,1-.42.82,1.82,1.82,0,0,1-.84.37C517.06,67,516.68,66.65,516.72,66Z"/><path class="cls-2" d="M524.37,70.56l-.53,2.71A7.62,7.62,0,0,1,526.28,71a5.71,5.71,0,0,1,3-.75,3.85,3.85,0,0,1,3.32,1.59,6.14,6.14,0,0,1,.73,4.24l-1.72,10.31h-1.73l1.73-10.33a9.67,9.67,0,0,0,0-1.61,2.64,2.64,0,0,0-2.84-2.68,4.72,4.72,0,0,0-2.87.92,7.81,7.81,0,0,0-2.34,2.84l-1.88,10.86h-1.73l2.76-15.85Z"/><path class="cls-2" d="M544,70.25a5.76,5.76,0,0,1,2.59.68,4.49,4.49,0,0,1,1.85,1.91l.54-2.28h1.63l-2.67,15.57a8.76,8.76,0,0,1-1.26,3.52,6.62,6.62,0,0,1-5.92,3.09,6.35,6.35,0,0,1-2.86-.75,5.93,5.93,0,0,1-2.21-2l1.09-1a4.71,4.71,0,0,0,3.94,2.33A4.89,4.89,0,0,0,544.31,90a6.34,6.34,0,0,0,1.84-3.73l.38-1.85a6.24,6.24,0,0,1-5.08,2.33A4.23,4.23,0,0,1,538,85a7.57,7.57,0,0,1-1.3-4.49,13.2,13.2,0,0,1,.88-5.19,8.39,8.39,0,0,1,2.63-3.84A5.69,5.69,0,0,1,544,70.25Zm-5.45,8.49-.09,1.36a6.36,6.36,0,0,0,.84,3.71,3.06,3.06,0,0,0,2.59,1.37,4.9,4.9,0,0,0,2.74-.69,6.54,6.54,0,0,0,2.2-2.21L548,74.89a4.38,4.38,0,0,0-1.37-2.24,3.81,3.81,0,0,0-2.5-.87,4.39,4.39,0,0,0-3.71,1.72A10.41,10.41,0,0,0,538.52,78.74Z"/><path class="cls-2" d="M569.27,72a6.44,6.44,0,0,0-1.16-.13,5.13,5.13,0,0,0-3.06,1,4.88,4.88,0,0,0-1.86,2.59l-1.88,10.9h-1.73l2.76-15.85h1.71l-.53,2.52a6.31,6.31,0,0,1,2.09-2.14,4.92,4.92,0,0,1,2.69-.7,4.53,4.53,0,0,1,1.2.2Z"/><path class="cls-2" d="M578.79,86.41a5.9,5.9,0,0,1,0-1.11l.14-1.1a8.28,8.28,0,0,1-2.52,1.86,6.69,6.69,0,0,1-3.05.64,4.51,4.51,0,0,1-3.26-1.27,3.76,3.76,0,0,1-1.12-3.11A4.72,4.72,0,0,1,570,79.6a6.19,6.19,0,0,1,2.73-1.78,11.52,11.52,0,0,1,4-.64l3.23,0,.27-1.82a3.23,3.23,0,0,0-.7-2.61,3.5,3.5,0,0,0-2.6-1,5,5,0,0,0-3,.86,3.75,3.75,0,0,0-1.6,2.33h-1.71a4.87,4.87,0,0,1,2.13-3.39,7.23,7.23,0,0,1,4.37-1.28,5.07,5.07,0,0,1,3.77,1.48,4.47,4.47,0,0,1,1.08,3.69l-1.32,8-.12,1.28a5.84,5.84,0,0,0,.12,1.56l0,.18Zm-5.19-1.23a5.8,5.8,0,0,0,3.09-.77,6.77,6.77,0,0,0,2.43-2.36l.61-3.51h-2.8a8.71,8.71,0,0,0-4.35,1,3.34,3.34,0,0,0-1.86,2.7,2.51,2.51,0,0,0,.68,2.13A3,3,0,0,0,573.6,85.18Z"/><path class="cls-2" d="M591.31,86.72a6.61,6.61,0,0,1-2.57-.58,4.49,4.49,0,0,1-2-1.72l-1.47,8.08h-1.73l3.81-21.94H589l-.41,2.24a6.08,6.08,0,0,1,5.17-2.53,4.33,4.33,0,0,1,3.48,1.65,7.37,7.37,0,0,1,1.28,4.53,13.18,13.18,0,0,1-.08,1.79l-.06.41A13.12,13.12,0,0,1,597,83.07a7.15,7.15,0,0,1-2.46,2.77A5.61,5.61,0,0,1,591.31,86.72Zm5.39-8.48.09-1.39a6.27,6.27,0,0,0-.85-3.67,3.11,3.11,0,0,0-2.65-1.39,5,5,0,0,0-2.79.75,6.42,6.42,0,0,0-2.12,2.28l-1.3,7.62a4,4,0,0,0,1.49,2,4.64,4.64,0,0,0,6-.84,9.29,9.29,0,0,0,2-4.63Z"/><path class="cls-2" d="M602.88,86.41h-1.75l2.77-15.85h1.74ZM604.38,66q.07-.94,1.26-1.2a1.46,1.46,0,0,1,.81.36,1.49,1.49,0,0,1,.32.84,1.62,1.62,0,0,1-.43.82,1.73,1.73,0,0,1-.83.37C604.72,67,604.34,66.65,604.38,66Z"/><path class="cls-2" d="M608.3,78.44A13.09,13.09,0,0,1,609.67,74a7.4,7.4,0,0,1,2.51-2.86,5.87,5.87,0,0,1,3.33-.89,5.56,5.56,0,0,1,2.57.65,4.43,4.43,0,0,1,1.83,1.88l1.61-8.89h1.73l-3.91,22.5h-1.63l.39-2.11A6.13,6.13,0,0,1,613,86.7,4.25,4.25,0,0,1,609.51,85a7.58,7.58,0,0,1-1.31-4.47,12.63,12.63,0,0,1,.07-1.76Zm1.76.29a14.12,14.12,0,0,0-.09,2.09A5.36,5.36,0,0,0,610.9,84a3.09,3.09,0,0,0,2.49,1.21,4.87,4.87,0,0,0,2.85-.75,6.73,6.73,0,0,0,2.08-2.1l1.28-7.46a4.45,4.45,0,0,0-1.4-2.22,3.9,3.9,0,0,0-2.48-.86,4.45,4.45,0,0,0-3.72,1.7,9.53,9.53,0,0,0-1.91,4.94Z"/><path class="cls-2" d="M625.87,86.41h-1.76L628,63.91h1.76Z"/><path class="cls-2" d="M635.89,83.83l6.78-13.27h2L635,89a8.57,8.57,0,0,1-2.26,3,4.16,4.16,0,0,1-2.66.86,7.8,7.8,0,0,1-1.41-.23l.18-1.44.88.11q2.46.1,3.88-2.9l1.11-2.22-3.06-15.61h1.83Z"/><path class="cls-2" d="M661.64,86.41a5.89,5.89,0,0,1,0-1.11l.13-1.1a8.17,8.17,0,0,1-2.52,1.86,6.66,6.66,0,0,1-3.05.64,4.53,4.53,0,0,1-3.26-1.27,3.79,3.79,0,0,1-1.12-3.11,4.72,4.72,0,0,1,1.08-2.72,6.19,6.19,0,0,1,2.73-1.78,11.56,11.56,0,0,1,4-.64l3.24,0,.26-1.82a3.23,3.23,0,0,0-.7-2.61,3.49,3.49,0,0,0-2.59-1,5,5,0,0,0-3,.86,3.75,3.75,0,0,0-1.6,2.33h-1.71a4.89,4.89,0,0,1,2.14-3.39,7.2,7.2,0,0,1,4.36-1.28,5.07,5.07,0,0,1,3.77,1.48,4.44,4.44,0,0,1,1.08,3.69l-1.32,8-.12,1.28a5.84,5.84,0,0,0,.12,1.56l0,.18Zm-5.19-1.23a5.78,5.78,0,0,0,3.09-.77A6.88,6.88,0,0,0,662,82.05l.6-3.51h-2.8a8.71,8.71,0,0,0-4.35,1,3.38,3.38,0,0,0-1.86,2.7,2.54,2.54,0,0,0,.68,2.13A3,3,0,0,0,656.45,85.18Z"/><path class="cls-2" d="M671.94,70.56l-.53,2.71A7.62,7.62,0,0,1,673.85,71a5.71,5.71,0,0,1,3-.75,3.85,3.85,0,0,1,3.32,1.59,6.19,6.19,0,0,1,.73,4.24l-1.73,10.31h-1.72l1.72-10.33a8.73,8.73,0,0,0,0-1.61,2.64,2.64,0,0,0-2.84-2.68,4.72,4.72,0,0,0-2.87.92,7.81,7.81,0,0,0-2.34,2.84l-1.88,10.86h-1.73l2.76-15.85Z"/><path class="cls-2" d="M684.35,78.44A12.86,12.86,0,0,1,685.71,74a7.4,7.4,0,0,1,2.51-2.86,5.87,5.87,0,0,1,3.33-.89,5.49,5.49,0,0,1,2.56.65A4.4,4.4,0,0,1,696,72.8l1.61-8.89h1.73l-3.92,22.5h-1.62l.39-2.11A6.13,6.13,0,0,1,689,86.7,4.25,4.25,0,0,1,685.55,85a7.58,7.58,0,0,1-1.31-4.47,11.24,11.24,0,0,1,.08-1.76Zm1.75.29a14.17,14.17,0,0,0-.08,2.09,5.29,5.29,0,0,0,.92,3.15,3.08,3.08,0,0,0,2.49,1.21,4.87,4.87,0,0,0,2.85-.75,6.73,6.73,0,0,0,2.08-2.1l1.28-7.46a4.52,4.52,0,0,0-1.4-2.22,3.9,3.9,0,0,0-2.48-.86,4.45,4.45,0,0,0-3.72,1.7,9.61,9.61,0,0,0-1.91,4.94Z"/><path class="cls-2" d="M709.13,86.41h-1.76l2.77-15.85h1.74ZM710.62,66q.07-.94,1.26-1.2A1.14,1.14,0,0,1,713,66a1.7,1.7,0,0,1-.42.82,1.82,1.82,0,0,1-.84.37C711,67,710.59,66.65,710.62,66Z"/><path class="cls-2" d="M720,66.5l-.7,4.06h3.18L722.21,72H719l-1.76,10.57,0,.91c0,1.06.48,1.61,1.46,1.64a9.92,9.92,0,0,0,1.42-.1l-.07,1.43a5.53,5.53,0,0,1-1.76.22,2.58,2.58,0,0,1-2.24-1.07,4.63,4.63,0,0,1-.51-3L717.29,72h-2.84l.26-1.44h2.81l.72-4.06Z"/><path class="cls-2" d="M121.76,111.24a6.47,6.47,0,0,1,5.39-3,3.85,3.85,0,0,1,3.32,1.59,6.14,6.14,0,0,1,.73,4.24l-1.72,10.31h-1.73l1.73-10.33a10.92,10.92,0,0,0,0-1.61,2.65,2.65,0,0,0-2.85-2.68,4.72,4.72,0,0,0-2.87.92,7.81,7.81,0,0,0-2.34,2.84l-1.88,10.86h-1.72l3.91-22.5h1.73Z"/><path class="cls-2" d="M143.82,124.41a5.9,5.9,0,0,1,0-1.11l.14-1.1a8.28,8.28,0,0,1-2.52,1.86,6.69,6.69,0,0,1-3,.64,4.51,4.51,0,0,1-3.26-1.27,3.76,3.76,0,0,1-1.12-3.11A4.78,4.78,0,0,1,135,117.6a6.29,6.29,0,0,1,2.74-1.78,11.52,11.52,0,0,1,4-.64l3.23,0,.27-1.82a3.23,3.23,0,0,0-.71-2.61,3.46,3.46,0,0,0-2.59-1,5,5,0,0,0-3,.86,3.75,3.75,0,0,0-1.6,2.33h-1.72a4.92,4.92,0,0,1,2.14-3.39,7.23,7.23,0,0,1,4.37-1.28,5.07,5.07,0,0,1,3.77,1.48,4.47,4.47,0,0,1,1.08,3.69l-1.32,8-.12,1.28a5.84,5.84,0,0,0,.12,1.56l0,.18Zm-5.19-1.23a5.74,5.74,0,0,0,3.08-.77,6.72,6.72,0,0,0,2.44-2.36l.61-3.51H142a8.71,8.71,0,0,0-4.35,1,3.34,3.34,0,0,0-1.86,2.7,2.51,2.51,0,0,0,.68,2.13A3,3,0,0,0,138.63,123.18Z"/><path class="cls-2" d="M159.71,120.28c.16-1.35-.66-2.33-2.46-2.93l-2.52-.75c-2.31-.78-3.41-2.08-3.28-3.91a4,4,0,0,1,1.82-3.21,6.65,6.65,0,0,1,4.1-1.21,5.59,5.59,0,0,1,3.78,1.31,4.06,4.06,0,0,1,1.34,3.42h-1.72a2.79,2.79,0,0,0-.89-2.32,3.81,3.81,0,0,0-2.59-.92,4.87,4.87,0,0,0-2.81.78,2.85,2.85,0,0,0-1.29,2.08c-.14,1.26.63,2.14,2.32,2.65l1.83.53,1,.33c2.21.83,3.25,2.19,3.12,4.06a4.2,4.2,0,0,1-1.65,3.13,6.88,6.88,0,0,1-3.95,1.37h-.6a7.07,7.07,0,0,1-2.88-.62,4.59,4.59,0,0,1-2-1.66,4,4,0,0,1-.6-2.46h1.74a3,3,0,0,0,1,2.36,4.26,4.26,0,0,0,2.79.89,5.29,5.29,0,0,0,3-.8A2.92,2.92,0,0,0,159.71,120.28Z"/><path class="cls-2" d="M185.57,116.56a11.48,11.48,0,0,1-2.41,6,6,6,0,0,1-7.43,1.47,4.58,4.58,0,0,1-1.81-1.79l-.5,2.17h-1.64l3.91-22.5h1.73l-1.65,9a6,6,0,0,1,5.14-2.59,4.29,4.29,0,0,1,3.5,1.68,7.52,7.52,0,0,1,1.27,4.5,15.1,15.1,0,0,1-.08,1.8Zm-1.72-.34.1-1.39a6.36,6.36,0,0,0-.83-3.68,3.09,3.09,0,0,0-2.62-1.36q-3.21-.06-5,3.25l-1.2,7.16a4.06,4.06,0,0,0,1.46,2.18,4.34,4.34,0,0,0,2.51.81,4.47,4.47,0,0,0,3.66-1.69A10.19,10.19,0,0,0,183.85,116.22Z"/><path class="cls-2" d="M194.35,124.7a5.53,5.53,0,0,1-3.29-1.06,5.93,5.93,0,0,1-2-2.81,8.77,8.77,0,0,1-.47-3.85l0-.5a10.56,10.56,0,0,1,1.3-4.18,8,8,0,0,1,2.79-3,6.38,6.38,0,0,1,3.6-1,4.92,4.92,0,0,1,3,1,5.29,5.29,0,0,1,1.78,2.61,8.72,8.72,0,0,1,.36,3.69l-.12,1.07h-11l-.05.35a7,7,0,0,0,.24,3.06,4.71,4.71,0,0,0,1.48,2.31,3.92,3.92,0,0,0,2.49.89,5.06,5.06,0,0,0,2.53-.54,8.14,8.14,0,0,0,2.08-1.57l1,.83a7,7,0,0,1-5.78,2.77Zm1.85-14.94a4.55,4.55,0,0,0-3.41,1.35,8.68,8.68,0,0,0-2.27,4h9.2l0-.22a5.11,5.11,0,0,0-.73-3.58A3.35,3.35,0,0,0,196.2,109.76Z"/><path class="cls-2" d="M209.53,124.7a5.53,5.53,0,0,1-3.3-1.06,6,6,0,0,1-2-2.81,8.77,8.77,0,0,1-.46-3.85l0-.5a10.74,10.74,0,0,1,1.31-4.18,8.1,8.1,0,0,1,2.78-3,6.4,6.4,0,0,1,3.6-1,5,5,0,0,1,3,1,5.36,5.36,0,0,1,1.78,2.61,8.72,8.72,0,0,1,.35,3.69l-.12,1.07h-11l0,.35a7,7,0,0,0,.23,3.06,4.79,4.79,0,0,0,1.49,2.31,3.89,3.89,0,0,0,2.48.89,5.1,5.1,0,0,0,2.54-.54,8.32,8.32,0,0,0,2.08-1.57l1,.83a6.92,6.92,0,0,1-5.77,2.77Zm1.85-14.94a4.58,4.58,0,0,0-3.42,1.35,8.86,8.86,0,0,0-2.27,4h9.2l.05-.22a5.11,5.11,0,0,0-.74-3.58A3.32,3.32,0,0,0,211.38,109.76Z"/><path class="cls-2" d="M222.85,108.56l-.53,2.71a7.52,7.52,0,0,1,2.44-2.25,5.7,5.7,0,0,1,3-.75,3.87,3.87,0,0,1,3.33,1.59,6.19,6.19,0,0,1,.73,4.24l-1.73,10.31h-1.73l1.73-10.33a8.73,8.73,0,0,0,0-1.61,2.64,2.64,0,0,0-2.84-2.68,4.7,4.7,0,0,0-2.87.92,7.93,7.93,0,0,0-2.35,2.84l-1.87,10.86h-1.73l2.76-15.85Z"/><path class="cls-2" d="M251.63,124.41a5.89,5.89,0,0,1,0-1.11l.13-1.1a8.17,8.17,0,0,1-2.52,1.86,6.66,6.66,0,0,1-3,.64,4.53,4.53,0,0,1-3.26-1.27,3.79,3.79,0,0,1-1.12-3.11,4.72,4.72,0,0,1,1.08-2.72,6.19,6.19,0,0,1,2.73-1.78,11.56,11.56,0,0,1,4-.64l3.24,0,.26-1.82a3.23,3.23,0,0,0-.7-2.61,3.49,3.49,0,0,0-2.59-1,5,5,0,0,0-3,.86,3.75,3.75,0,0,0-1.6,2.33h-1.71a4.89,4.89,0,0,1,2.14-3.39,7.2,7.2,0,0,1,4.36-1.28,5.07,5.07,0,0,1,3.77,1.48,4.44,4.44,0,0,1,1.08,3.69l-1.32,8-.12,1.28a5.84,5.84,0,0,0,.12,1.56l0,.18Zm-5.19-1.23a5.78,5.78,0,0,0,3.09-.77,6.88,6.88,0,0,0,2.44-2.36l.6-3.51h-2.8a8.71,8.71,0,0,0-4.35,1,3.38,3.38,0,0,0-1.86,2.7,2.54,2.54,0,0,0,.68,2.13A3,3,0,0,0,246.44,123.18Z"/><path class="cls-2" d="M274.41,110a6.44,6.44,0,0,0-1.16-.13,5.13,5.13,0,0,0-3.06,1,4.88,4.88,0,0,0-1.86,2.59l-1.88,10.9h-1.72l2.75-15.85h1.71l-.52,2.52a6.19,6.19,0,0,1,2.08-2.14,4.92,4.92,0,0,1,2.69-.7,4.53,4.53,0,0,1,1.2.2Z"/><path class="cls-2" d="M280.66,124.7a5.48,5.48,0,0,1-3.29-1.06,6,6,0,0,1-2.05-2.81,8.91,8.91,0,0,1-.46-3.85l.05-.5a10.56,10.56,0,0,1,1.3-4.18,8.1,8.1,0,0,1,2.78-3,6.43,6.43,0,0,1,3.61-1,4.92,4.92,0,0,1,3,1,5.29,5.29,0,0,1,1.78,2.61,8.72,8.72,0,0,1,.35,3.69l-.11,1.07h-11l0,.35a6.82,6.82,0,0,0,.24,3.06,4.71,4.71,0,0,0,1.48,2.31,3.91,3.91,0,0,0,2.48.89,5.07,5.07,0,0,0,2.54-.54,8.32,8.32,0,0,0,2.08-1.57l1,.83a7.16,7.16,0,0,1-2.55,2.09A7.07,7.07,0,0,1,280.66,124.7Zm1.85-14.94a4.55,4.55,0,0,0-3.41,1.35,8.68,8.68,0,0,0-2.27,4H286l.05-.22a5.16,5.16,0,0,0-.73-3.58A3.35,3.35,0,0,0,282.51,109.76Z"/><path class="cls-2" d="M295.69,123.24a4.61,4.61,0,0,0,3.06-1,4.88,4.88,0,0,0,1.76-2.75h1.66a6.1,6.1,0,0,1-2.31,3.8,6.52,6.52,0,0,1-4.26,1.39,5.29,5.29,0,0,1-3.22-1.06,5.52,5.52,0,0,1-1.88-2.8,9.87,9.87,0,0,1-.37-4l.06-.63a11,11,0,0,1,.75-3,8.83,8.83,0,0,1,1.54-2.57,7.3,7.3,0,0,1,2.31-1.78,6.5,6.5,0,0,1,3-.6,5.1,5.1,0,0,1,3.86,1.64,5.4,5.4,0,0,1,1.35,4h-1.65a4.21,4.21,0,0,0-1-3,3.53,3.53,0,0,0-2.68-1.19,4.7,4.7,0,0,0-3.21,1.06,6.77,6.77,0,0,0-2.09,3.14,12.39,12.39,0,0,0-.66,4.33,5.82,5.82,0,0,0,1.06,3.62A3.57,3.57,0,0,0,295.69,123.24Z"/><path class="cls-2" d="M305.11,116.34a10.45,10.45,0,0,1,1.41-4.21,8,8,0,0,1,2.85-2.91,6.82,6.82,0,0,1,3.7-1,5.57,5.57,0,0,1,3.34,1.07,6,6,0,0,1,2,2.86,9.53,9.53,0,0,1,.43,4l0,.27a10,10,0,0,1-2.66,6,6.93,6.93,0,0,1-5.33,2.2,5.4,5.4,0,0,1-4.26-2,7.58,7.58,0,0,1-1.57-5.07l.05-.83Zm1.7.5a7.88,7.88,0,0,0,.26,3.21,4.68,4.68,0,0,0,1.43,2.31,3.78,3.78,0,0,0,2.44.88,5.09,5.09,0,0,0,2.9-.81,6.43,6.43,0,0,0,2.16-2.36,9.41,9.41,0,0,0,1.09-3.37l.05-.48a7.3,7.3,0,0,0-.87-4.62,3.77,3.77,0,0,0-3.29-1.84,5.07,5.07,0,0,0-4.05,1.81,8.79,8.79,0,0,0-2.09,5Z"/><path class="cls-2" d="M330.82,110a6.44,6.44,0,0,0-1.16-.13,5.13,5.13,0,0,0-3.06,1,4.88,4.88,0,0,0-1.86,2.59l-1.88,10.9h-1.72l2.75-15.85h1.71l-.52,2.52a6.19,6.19,0,0,1,2.08-2.14,5,5,0,0,1,2.69-.7,4.47,4.47,0,0,1,1.2.2Z"/><path class="cls-2" d="M331.49,116.44a13.31,13.31,0,0,1,1.36-4.42,7.5,7.5,0,0,1,2.52-2.86,5.87,5.87,0,0,1,3.33-.89,5.49,5.49,0,0,1,2.56.65,4.45,4.45,0,0,1,1.84,1.88l1.61-8.89h1.73l-3.92,22.5H340.9l.39-2.11a6.13,6.13,0,0,1-5.12,2.4A4.25,4.25,0,0,1,332.7,123a7.58,7.58,0,0,1-1.31-4.47,12.63,12.63,0,0,1,.07-1.76Zm1.76.29a14.12,14.12,0,0,0-.09,2.09,5.36,5.36,0,0,0,.93,3.15,3.08,3.08,0,0,0,2.49,1.21,4.87,4.87,0,0,0,2.85-.75,6.73,6.73,0,0,0,2.08-2.1l1.28-7.46a4.52,4.52,0,0,0-1.4-2.22,3.9,3.9,0,0,0-2.48-.86,4.45,4.45,0,0,0-3.72,1.7,9.53,9.53,0,0,0-1.91,4.94Z"/><path class="cls-2" d="M359.63,121.93l6.77-13.37h1.85L360,124.41h-1.42l-3.3-15.85H357Z"/><path class="cls-2" d="M368.67,116.34a10.45,10.45,0,0,1,1.41-4.21,8,8,0,0,1,2.85-2.91,6.81,6.81,0,0,1,3.69-1,5.58,5.58,0,0,1,3.35,1.07,5.94,5.94,0,0,1,2,2.86,9.37,9.37,0,0,1,.44,4l0,.27a10,10,0,0,1-2.66,6,6.93,6.93,0,0,1-5.33,2.2,5.38,5.38,0,0,1-4.26-2,7.58,7.58,0,0,1-1.57-5.07l.05-.83Zm1.7.5a7.88,7.88,0,0,0,.26,3.21,4.74,4.74,0,0,0,1.42,2.31,3.83,3.83,0,0,0,2.45.88,5,5,0,0,0,2.89-.81,6.26,6.26,0,0,0,2.16-2.36,9.23,9.23,0,0,0,1.1-3.37l.05-.48a7.3,7.3,0,0,0-.87-4.62,3.77,3.77,0,0,0-3.29-1.84,5.05,5.05,0,0,0-4.05,1.81,8.79,8.79,0,0,0-2.09,5Z"/><path class="cls-2" d="M386.64,124.41h-1.75l3.91-22.5h1.76Z"/><path class="cls-2" d="M401.88,122.42a6.08,6.08,0,0,1-5.22,2.28,3.92,3.92,0,0,1-3.34-1.62,6.33,6.33,0,0,1-.79-4.37l1.7-10.15H396l-1.68,10.19a7.5,7.5,0,0,0,0,1.57,3.26,3.26,0,0,0,.81,2.08,2.69,2.69,0,0,0,1.93.78,5.75,5.75,0,0,0,3.25-.81,4.09,4.09,0,0,0,1.94-2.33l2-11.48h1.76l-2.76,15.85h-1.7Z"/><path class="cls-2" d="M411.84,108.56l-.5,2.58a6.27,6.27,0,0,1,5.38-2.87,4.69,4.69,0,0,1,2.77.83,3.41,3.41,0,0,1,1.37,2.24,8.16,8.16,0,0,1,2.53-2.29,6.08,6.08,0,0,1,3.14-.78,4,4,0,0,1,3.35,1.48,5.75,5.75,0,0,1,.9,4l0,.33L429,124.41h-1.74L429,114.06a8.21,8.21,0,0,0,0-1.64,2.69,2.69,0,0,0-3-2.63,5.34,5.34,0,0,0-5.17,4.14l-1.82,10.48h-1.74l1.76-10.48q.42-4-3-4.14a5,5,0,0,0-3.13,1,5.24,5.24,0,0,0-2,2.7l-1.88,10.87H407.4l2.76-15.85Z"/><path class="cls-2" d="M439.72,124.7a5.53,5.53,0,0,1-3.3-1.06,5.93,5.93,0,0,1-2-2.81,8.62,8.62,0,0,1-.46-3.85l0-.5a10.72,10.72,0,0,1,1.3-4.18,8.12,8.12,0,0,1,2.79-3,6.38,6.38,0,0,1,3.6-1,4.92,4.92,0,0,1,3,1,5.38,5.38,0,0,1,1.79,2.61,8.88,8.88,0,0,1,.35,3.69l-.12,1.07h-11l-.05.35a7.12,7.12,0,0,0,.24,3.06,4.78,4.78,0,0,0,1.48,2.31,3.92,3.92,0,0,0,2.49.89,5.06,5.06,0,0,0,2.53-.54,8.14,8.14,0,0,0,2.08-1.57l1,.83a7,7,0,0,1-5.77,2.77Zm1.84-14.94a4.55,4.55,0,0,0-3.41,1.35,8.77,8.77,0,0,0-2.27,4h9.2l0-.22a5.11,5.11,0,0,0-.73-3.58A3.35,3.35,0,0,0,441.56,109.76Z"/><path class="cls-2" d="M456.25,116.34a10.45,10.45,0,0,1,1.41-4.21,8,8,0,0,1,2.85-2.91,6.84,6.84,0,0,1,3.7-1,5.6,5.6,0,0,1,3.35,1.07,6,6,0,0,1,2,2.86,9.37,9.37,0,0,1,.43,4l0,.27a10,10,0,0,1-2.66,6,6.9,6.9,0,0,1-5.32,2.2,5.4,5.4,0,0,1-4.27-2,7.57,7.57,0,0,1-1.56-5.07l0-.83Zm1.7.5a8.05,8.05,0,0,0,.26,3.21,4.76,4.76,0,0,0,1.43,2.31,3.8,3.8,0,0,0,2.44.88,5.09,5.09,0,0,0,2.9-.81,6.43,6.43,0,0,0,2.16-2.36,9.62,9.62,0,0,0,1.1-3.37l0-.48a7.17,7.17,0,0,0-.87-4.62,3.75,3.75,0,0,0-3.29-1.84,5.08,5.08,0,0,0-4.05,1.81,8.86,8.86,0,0,0-2.09,5Z"/><path class="cls-2" d="M473.5,124.41,476,110h-2.55l.26-1.44h2.54l.31-2.15a5.84,5.84,0,0,1,1.78-3.61,4.93,4.93,0,0,1,3.52-1.24,9.14,9.14,0,0,1,1.92.29l-.31,1.45a5.94,5.94,0,0,0-1.57-.22,3.32,3.32,0,0,0-2.42,1,4.58,4.58,0,0,0-1.21,2.65l-.28,1.88h3.68l-.26,1.44h-3.65l-2.51,14.41Z"/><path class="cls-2" d="M491.23,124.41h-1.75l3.91-22.5h1.76Z"/><path class="cls-2" d="M496.38,116.34a10.29,10.29,0,0,1,1.4-4.21,8,8,0,0,1,2.85-2.91,6.84,6.84,0,0,1,3.7-1,5.6,5.6,0,0,1,3.35,1.07,6,6,0,0,1,2,2.86,9.37,9.37,0,0,1,.43,4l0,.27a10,10,0,0,1-2.66,6,6.9,6.9,0,0,1-5.32,2.2,5.4,5.4,0,0,1-4.27-2,7.57,7.57,0,0,1-1.56-5.07l0-.83Zm1.7.5a7.88,7.88,0,0,0,.25,3.21,4.76,4.76,0,0,0,1.43,2.31,3.81,3.81,0,0,0,2.45.88,5.08,5.08,0,0,0,2.89-.81,6.43,6.43,0,0,0,2.16-2.36,9.42,9.42,0,0,0,1.1-3.37l0-.48a7.17,7.17,0,0,0-.87-4.62,3.75,3.75,0,0,0-3.29-1.84,5.08,5.08,0,0,0-4.05,1.81,8.86,8.86,0,0,0-2.09,5Z"/><path class="cls-2" d="M520.3,108.25a5.8,5.8,0,0,1,2.59.68,4.49,4.49,0,0,1,1.85,1.91l.54-2.28h1.62l-2.66,15.57a8.76,8.76,0,0,1-1.26,3.52,6.62,6.62,0,0,1-5.92,3.09,6.32,6.32,0,0,1-2.86-.75,5.86,5.86,0,0,1-2.21-2l1.09-1a4.7,4.7,0,0,0,3.94,2.33,4.89,4.89,0,0,0,3.62-1.31,6.34,6.34,0,0,0,1.84-3.73l.38-1.85a6.26,6.26,0,0,1-5.08,2.33,4.26,4.26,0,0,1-3.47-1.7,7.64,7.64,0,0,1-1.29-4.49,13.2,13.2,0,0,1,.88-5.19,8.45,8.45,0,0,1,2.62-3.84A5.73,5.73,0,0,1,520.3,108.25Zm-5.45,8.49-.09,1.36a6.36,6.36,0,0,0,.84,3.71,3,3,0,0,0,2.59,1.37,4.92,4.92,0,0,0,2.74-.69,6.43,6.43,0,0,0,2.19-2.21l1.25-7.39a4.45,4.45,0,0,0-1.37-2.24,3.81,3.81,0,0,0-2.5-.87,4.39,4.39,0,0,0-3.71,1.72A10.41,10.41,0,0,0,514.85,116.74Z"/><path class="cls-2" d="M538.71,120.28c.16-1.35-.66-2.33-2.46-2.93l-2.52-.75c-2.31-.78-3.41-2.08-3.28-3.91a4,4,0,0,1,1.82-3.21,6.65,6.65,0,0,1,4.1-1.21,5.59,5.59,0,0,1,3.78,1.31,4.06,4.06,0,0,1,1.34,3.42h-1.72a2.79,2.79,0,0,0-.89-2.32,3.81,3.81,0,0,0-2.59-.92,4.87,4.87,0,0,0-2.81.78,2.85,2.85,0,0,0-1.29,2.08c-.15,1.26.63,2.14,2.32,2.65l1.83.53,1,.33c2.2.83,3.25,2.19,3.12,4.06a4.2,4.2,0,0,1-1.65,3.13,6.88,6.88,0,0,1-3.95,1.37h-.6a7.07,7.07,0,0,1-2.88-.62,4.59,4.59,0,0,1-2-1.66,4,4,0,0,1-.6-2.46h1.74a3,3,0,0,0,1,2.36,4.26,4.26,0,0,0,2.79.89,5.29,5.29,0,0,0,3-.8A2.92,2.92,0,0,0,538.71,120.28Z"/><path class="cls-2" d="M556.93,104.5l-.7,4.06h3.18l-.25,1.44H556l-1.76,10.57,0,.91c0,1.06.49,1.61,1.47,1.64a9.92,9.92,0,0,0,1.42-.1l-.07,1.43a5.56,5.56,0,0,1-1.76.22A2.58,2.58,0,0,1,553,123.6a4.68,4.68,0,0,1-.52-3L554.24,110H551.4l.26-1.44h2.81l.72-4.06Z"/><path class="cls-2" d="M564.2,111.24a6.47,6.47,0,0,1,5.39-3,3.85,3.85,0,0,1,3.32,1.59,6.19,6.19,0,0,1,.74,4.24l-1.73,10.31h-1.73l1.73-10.33a8.73,8.73,0,0,0,0-1.61,2.65,2.65,0,0,0-2.85-2.68,4.72,4.72,0,0,0-2.87.92,7.91,7.91,0,0,0-2.34,2.84L562,124.41h-1.73l3.91-22.5h1.73Z"/><path class="cls-2" d="M586.08,110a6.33,6.33,0,0,0-1.15-.13,5.13,5.13,0,0,0-3.07,1,5,5,0,0,0-1.86,2.59l-1.87,10.9H576.4l2.75-15.85h1.72l-.53,2.52a6.22,6.22,0,0,1,2.09-2.14,4.9,4.9,0,0,1,2.69-.7,4.53,4.53,0,0,1,1.2.2Z"/><path class="cls-2" d="M586.46,116.34a10.45,10.45,0,0,1,1.41-4.21,8,8,0,0,1,2.85-2.91,6.84,6.84,0,0,1,3.7-1,5.6,5.6,0,0,1,3.35,1.07,6,6,0,0,1,2,2.86,9.53,9.53,0,0,1,.43,4l0,.27a10,10,0,0,1-2.66,6,6.9,6.9,0,0,1-5.32,2.2,5.4,5.4,0,0,1-4.27-2,7.57,7.57,0,0,1-1.56-5.07l0-.83Zm1.7.5a8.05,8.05,0,0,0,.26,3.21,4.76,4.76,0,0,0,1.43,2.31,3.8,3.8,0,0,0,2.44.88,5.09,5.09,0,0,0,2.9-.81,6.43,6.43,0,0,0,2.16-2.36,9.62,9.62,0,0,0,1.1-3.37l0-.48a7.24,7.24,0,0,0-.87-4.62,3.75,3.75,0,0,0-3.29-1.84,5.08,5.08,0,0,0-4.05,1.81,8.86,8.86,0,0,0-2.09,5Z"/><path class="cls-2" d="M613,122.42a6.08,6.08,0,0,1-5.22,2.28,3.92,3.92,0,0,1-3.34-1.62,6.33,6.33,0,0,1-.79-4.37l1.7-10.15h1.73l-1.69,10.19a8.24,8.24,0,0,0,0,1.57,3.31,3.31,0,0,0,.8,2.08,2.71,2.71,0,0,0,1.94.78,5.77,5.77,0,0,0,3.25-.81,4,4,0,0,0,1.93-2.33l2-11.48H617l-2.75,15.85h-1.7Z"/><path class="cls-2" d="M626.51,108.25a5.76,5.76,0,0,1,2.59.68,4.44,4.44,0,0,1,1.85,1.91l.54-2.28h1.63l-2.67,15.57a8.47,8.47,0,0,1-1.26,3.52,6.62,6.62,0,0,1-5.92,3.09,6.31,6.31,0,0,1-2.85-.75,5.79,5.79,0,0,1-2.21-2l1.08-1a4.72,4.72,0,0,0,3.94,2.33,4.91,4.91,0,0,0,3.63-1.31,6.33,6.33,0,0,0,1.83-3.73l.39-1.85A6.26,6.26,0,0,1,624,124.7a4.25,4.25,0,0,1-3.46-1.7,7.57,7.57,0,0,1-1.3-4.49,13.38,13.38,0,0,1,.88-5.19,8.46,8.46,0,0,1,2.63-3.84A5.72,5.72,0,0,1,626.51,108.25Zm-5.45,8.49L621,118.1a6.37,6.37,0,0,0,.83,3.71,3.07,3.07,0,0,0,2.59,1.37,4.9,4.9,0,0,0,2.74-.69,6.54,6.54,0,0,0,2.2-2.21l1.25-7.39a4.46,4.46,0,0,0-1.38-2.24,3.78,3.78,0,0,0-2.49-.87A4.4,4.4,0,0,0,623,111.5,10.51,10.51,0,0,0,621.06,116.74Z"/><path class="cls-2" d="M638.82,111.24a6.47,6.47,0,0,1,5.39-3,3.85,3.85,0,0,1,3.32,1.59,6.19,6.19,0,0,1,.74,4.24l-1.73,10.31h-1.73l1.73-10.33a9.7,9.7,0,0,0,0-1.61,2.65,2.65,0,0,0-2.85-2.68,4.72,4.72,0,0,0-2.87.92,7.81,7.81,0,0,0-2.34,2.84l-1.88,10.86h-1.72l3.91-22.5h1.73Z"/><path class="cls-2" d="M664.38,104.5l-.7,4.06h3.17L666.6,110h-3.17l-1.76,10.57,0,.91c0,1.06.49,1.61,1.46,1.64a9.84,9.84,0,0,0,1.42-.1l-.07,1.43a5.49,5.49,0,0,1-1.76.22,2.59,2.59,0,0,1-2.24-1.07,4.63,4.63,0,0,1-.51-3L661.68,110h-2.84l.26-1.44h2.82l.72-4.06Z"/><path class="cls-2" d="M671.64,111.24a6.48,6.48,0,0,1,5.39-3,3.86,3.86,0,0,1,3.33,1.59,6.19,6.19,0,0,1,.73,4.24l-1.73,10.31h-1.72l1.72-10.33a8.73,8.73,0,0,0,0-1.61,2.64,2.64,0,0,0-2.84-2.68,4.72,4.72,0,0,0-2.87.92,7.81,7.81,0,0,0-2.34,2.84l-1.88,10.86h-1.73l3.91-22.5h1.73Z"/><path class="cls-2" d="M690.13,124.7a5.48,5.48,0,0,1-3.29-1.06,6,6,0,0,1-2.05-2.81,8.77,8.77,0,0,1-.46-3.85l0-.5a10.57,10.57,0,0,1,1.31-4.18,8.1,8.1,0,0,1,2.78-3,6.38,6.38,0,0,1,3.6-1,5,5,0,0,1,3,1,5.36,5.36,0,0,1,1.78,2.61,8.72,8.72,0,0,1,.35,3.69l-.12,1.07h-11l0,.35a7,7,0,0,0,.23,3.06,4.79,4.79,0,0,0,1.49,2.31,3.91,3.91,0,0,0,2.48.89,5.1,5.1,0,0,0,2.54-.54,8.32,8.32,0,0,0,2.08-1.57l1,.83a6.92,6.92,0,0,1-5.77,2.77ZM692,109.76a4.58,4.58,0,0,0-3.42,1.35,8.86,8.86,0,0,0-2.27,4h9.2l0-.22a5.11,5.11,0,0,0-.74-3.58A3.32,3.32,0,0,0,692,109.76Z"/><path class="cls-2" d="M712.89,124.72a6.65,6.65,0,0,1-2.57-.58,4.55,4.55,0,0,1-2-1.72l-1.47,8.08h-1.72l3.8-21.94h1.62l-.41,2.24a6.05,6.05,0,0,1,5.16-2.53,4.33,4.33,0,0,1,3.48,1.65,7.44,7.44,0,0,1,1.29,4.53,13.17,13.17,0,0,1-.09,1.79l-.06.41a12.9,12.9,0,0,1-1.38,4.42,7.15,7.15,0,0,1-2.46,2.77A5.57,5.57,0,0,1,712.89,124.72Zm5.39-8.48.09-1.39a6.27,6.27,0,0,0-.85-3.67,3.11,3.11,0,0,0-2.65-1.39,5,5,0,0,0-2.79.75,6.51,6.51,0,0,0-2.12,2.28l-1.3,7.62a4,4,0,0,0,1.49,2,4.64,4.64,0,0,0,6-.84,9.2,9.2,0,0,0,2-4.63Z"/><path class="cls-2" d="M722.94,116.34a10.45,10.45,0,0,1,1.41-4.21,8,8,0,0,1,2.85-2.91,6.84,6.84,0,0,1,3.7-1,5.6,5.6,0,0,1,3.35,1.07,6,6,0,0,1,2,2.86,9.37,9.37,0,0,1,.43,4l0,.27a10,10,0,0,1-2.66,6,6.9,6.9,0,0,1-5.32,2.2,5.4,5.4,0,0,1-4.27-2,7.63,7.63,0,0,1-1.57-5.07l0-.83Zm1.7.5a8.05,8.05,0,0,0,.26,3.21,4.76,4.76,0,0,0,1.43,2.31,3.8,3.8,0,0,0,2.44.88,5.09,5.09,0,0,0,2.9-.81,6.43,6.43,0,0,0,2.16-2.36,9.62,9.62,0,0,0,1.1-3.37l0-.48a7.24,7.24,0,0,0-.87-4.62,3.75,3.75,0,0,0-3.29-1.84,5.08,5.08,0,0,0-4,1.81,8.86,8.86,0,0,0-2.09,5Z"/><path class="cls-2" d="M748.65,110a6.44,6.44,0,0,0-1.16-.13,5.13,5.13,0,0,0-3.06,1,4.94,4.94,0,0,0-1.86,2.59l-1.87,10.9H739l2.75-15.85h1.72l-.53,2.52a6.22,6.22,0,0,1,2.09-2.14,4.9,4.9,0,0,1,2.69-.7,4.53,4.53,0,0,1,1.2.2Z"/><path class="cls-2" d="M755.77,104.5l-.7,4.06h3.18L758,110h-3.18l-1.76,10.57,0,.91c0,1.06.49,1.61,1.47,1.64a10,10,0,0,0,1.42-.1l-.08,1.43a5.46,5.46,0,0,1-1.75.22,2.57,2.57,0,0,1-2.24-1.07,4.62,4.62,0,0,1-.52-3L753.08,110h-2.85l.27-1.44h2.81l.72-4.06Z"/><path class="cls-2" d="M177.81,142.5l-.71,4.06h3.18L180,148h-3.17l-1.76,10.57,0,.91c0,1.06.49,1.61,1.46,1.64A9.84,9.84,0,0,0,178,161l-.07,1.43a5.49,5.49,0,0,1-1.76.22,2.59,2.59,0,0,1-2.24-1.07,4.63,4.63,0,0,1-.51-3L175.11,148h-2.84l.26-1.44h2.82l.72-4.06Z"/><path class="cls-2" d="M185.07,149.24a6.48,6.48,0,0,1,5.39-3,3.86,3.86,0,0,1,3.33,1.59,6.19,6.19,0,0,1,.73,4.24l-1.73,10.31h-1.72l1.72-10.33a8.73,8.73,0,0,0,0-1.61,2.64,2.64,0,0,0-2.84-2.68,4.72,4.72,0,0,0-2.87.92,7.81,7.81,0,0,0-2.34,2.84l-1.88,10.86h-1.73l3.91-22.5h1.73Z"/><path class="cls-2" d="M199.22,162.41h-1.75l2.77-15.85H202Zm1.5-20.44q.08-.94,1.26-1.2a1.46,1.46,0,0,1,.81.36,1.49,1.49,0,0,1,.32.84,1.62,1.62,0,0,1-.43.82,1.73,1.73,0,0,1-.83.37C201.06,143,200.68,142.65,200.72,142Z"/><path class="cls-2" d="M214,158.28c.16-1.35-.66-2.33-2.46-2.93L209,154.6c-2.31-.78-3.41-2.08-3.28-3.91a4,4,0,0,1,1.82-3.21,6.65,6.65,0,0,1,4.1-1.21,5.59,5.59,0,0,1,3.78,1.31,4.06,4.06,0,0,1,1.34,3.42H215a2.79,2.79,0,0,0-.89-2.32,3.81,3.81,0,0,0-2.59-.92,4.87,4.87,0,0,0-2.81.78,2.85,2.85,0,0,0-1.29,2.08c-.14,1.26.63,2.14,2.32,2.65l1.83.53,1,.33c2.21.83,3.25,2.19,3.12,4.06a4.2,4.2,0,0,1-1.65,3.13,6.88,6.88,0,0,1-3.95,1.37h-.6a7.07,7.07,0,0,1-2.88-.62,4.59,4.59,0,0,1-2-1.66A4,4,0,0,1,204,158h1.74a3,3,0,0,0,1,2.36,4.26,4.26,0,0,0,2.79.89,5.29,5.29,0,0,0,3-.8A2.92,2.92,0,0,0,214,158.28Z"/><path class="cls-2" d="M231.35,159.83l6.78-13.27h2L230.41,165a8.57,8.57,0,0,1-2.26,3,4.16,4.16,0,0,1-2.66.86,7.8,7.8,0,0,1-1.41-.23l.18-1.44.88.11q2.46.11,3.88-2.9l1.11-2.22-3.06-15.61h1.83Z"/><path class="cls-2" d="M246.11,162.7a5.53,5.53,0,0,1-3.29-1.06,6,6,0,0,1-2-2.81,8.91,8.91,0,0,1-.46-3.85l.05-.5a10.56,10.56,0,0,1,1.3-4.18,8.1,8.1,0,0,1,2.78-3,6.43,6.43,0,0,1,3.61-1,4.92,4.92,0,0,1,3,1,5.29,5.29,0,0,1,1.78,2.61,8.88,8.88,0,0,1,.36,3.69l-.12,1.07h-11L242,155a7,7,0,0,0,.24,3.06,4.71,4.71,0,0,0,1.48,2.31,3.92,3.92,0,0,0,2.49.89,5.06,5.06,0,0,0,2.53-.54,8.14,8.14,0,0,0,2.08-1.57l1,.83a7,7,0,0,1-5.78,2.77ZM248,147.76a4.55,4.55,0,0,0-3.41,1.35,8.68,8.68,0,0,0-2.27,4h9.2l0-.22a5.16,5.16,0,0,0-.73-3.58A3.35,3.35,0,0,0,248,147.76Z"/><path class="cls-2" d="M264.86,162.41a6.87,6.87,0,0,1,0-1.11l.13-1.1a8.24,8.24,0,0,1-2.51,1.86,6.69,6.69,0,0,1-3.05.64,4.51,4.51,0,0,1-3.26-1.27,3.76,3.76,0,0,1-1.12-3.11,4.64,4.64,0,0,1,1.07-2.72,6.19,6.19,0,0,1,2.73-1.78,11.6,11.6,0,0,1,4-.64l3.24,0,.26-1.82a3.19,3.19,0,0,0-.7-2.61,3.48,3.48,0,0,0-2.59-1,5,5,0,0,0-3,.86,3.77,3.77,0,0,0-1.61,2.33h-1.71a4.92,4.92,0,0,1,2.14-3.39,7.23,7.23,0,0,1,4.37-1.28,5.08,5.08,0,0,1,3.77,1.48,4.44,4.44,0,0,1,1.07,3.69l-1.32,8-.11,1.28a6.28,6.28,0,0,0,.11,1.56l0,.18Zm-5.18-1.23a5.76,5.76,0,0,0,3.08-.77,6.79,6.79,0,0,0,2.44-2.36l.6-3.51H263a8.76,8.76,0,0,0-4.35.95,3.38,3.38,0,0,0-1.86,2.7,2.54,2.54,0,0,0,.68,2.13A3,3,0,0,0,259.68,161.18Z"/><path class="cls-2" d="M280.42,148a6.44,6.44,0,0,0-1.16-.13,5.13,5.13,0,0,0-3.06,1,4.88,4.88,0,0,0-1.86,2.59l-1.87,10.9h-1.73l2.75-15.85h1.72l-.53,2.52a6.22,6.22,0,0,1,2.09-2.14,4.89,4.89,0,0,1,2.68-.7,4.54,4.54,0,0,1,1.21.2Z"/><path class="cls-2" d="M278.9,161.35a1.33,1.33,0,0,1,.42-.87,1.26,1.26,0,0,1,.88-.37,1.11,1.11,0,0,1,.87.35,1.14,1.14,0,0,1,.29.89,1.2,1.2,0,0,1-.4.85,1.37,1.37,0,0,1-.89.34,1.15,1.15,0,0,1-.86-.32A1.07,1.07,0,0,1,278.9,161.35Z"/><path class="cls-2" d="M298.48,156.71l.11,3.15,1.27-3.12,6.91-15.66h1.61l2,15.81.25,3,1.2-3.31L318,141.08h1.87l-8.64,21.33H309.5l-2.1-16.76-.16-2-.82,2L299,162.41H297.3l-2-21.33h1.79Z"/><path class="cls-2" d="M325.25,162.7a5.53,5.53,0,0,1-3.3-1.06,5.93,5.93,0,0,1-2-2.81,8.77,8.77,0,0,1-.47-3.85l.05-.5a10.56,10.56,0,0,1,1.3-4.18,8,8,0,0,1,2.79-3,6.38,6.38,0,0,1,3.6-1,4.92,4.92,0,0,1,3,1,5.29,5.29,0,0,1,1.78,2.61,8.72,8.72,0,0,1,.36,3.69l-.12,1.07h-11l-.05.35a7,7,0,0,0,.24,3.06,4.71,4.71,0,0,0,1.48,2.31,3.92,3.92,0,0,0,2.49.89,5.06,5.06,0,0,0,2.53-.54A8.14,8.14,0,0,0,330,159.1l1,.83a7,7,0,0,1-5.77,2.77Zm1.84-14.94a4.55,4.55,0,0,0-3.41,1.35,8.77,8.77,0,0,0-2.27,4h9.2l0-.22a5.11,5.11,0,0,0-.73-3.58A3.35,3.35,0,0,0,327.09,147.76Z"/><path class="cls-2" d="M338.3,142.06l-.93,4.38H336l1.11-6.53h1.48Z"/><path class="cls-2" d="M344.33,159.93l6.77-13.37h1.84l-8.21,15.85h-1.42L340,146.56h1.73Z"/><path class="cls-2" d="M359.26,162.7a5.53,5.53,0,0,1-3.3-1.06,5.93,5.93,0,0,1-2-2.81,8.62,8.62,0,0,1-.46-3.85l0-.5a10.57,10.57,0,0,1,1.31-4.18,8.1,8.1,0,0,1,2.78-3,6.38,6.38,0,0,1,3.6-1,5,5,0,0,1,3,1,5.36,5.36,0,0,1,1.78,2.61,8.72,8.72,0,0,1,.35,3.69l-.12,1.07h-11l0,.35a7,7,0,0,0,.23,3.06,4.72,4.72,0,0,0,1.49,2.31,3.89,3.89,0,0,0,2.48.89,5.1,5.1,0,0,0,2.54-.54A8.32,8.32,0,0,0,364,159.1l1,.83a6.92,6.92,0,0,1-5.77,2.77Zm1.84-14.94a4.58,4.58,0,0,0-3.41,1.35,8.86,8.86,0,0,0-2.27,4h9.2l0-.22a5.06,5.06,0,0,0-.73-3.58A3.33,3.33,0,0,0,361.1,147.76Z"/><path class="cls-2" d="M383.27,146.25a5.8,5.8,0,0,1,2.59.68,4.49,4.49,0,0,1,1.85,1.91l.54-2.28h1.62l-2.66,15.57a8.76,8.76,0,0,1-1.26,3.52,6.62,6.62,0,0,1-5.92,3.09,6.32,6.32,0,0,1-2.86-.75,5.93,5.93,0,0,1-2.21-2l1.09-1a4.7,4.7,0,0,0,3.94,2.33,4.89,4.89,0,0,0,3.62-1.31,6.34,6.34,0,0,0,1.84-3.73l.38-1.85a6.24,6.24,0,0,1-5.08,2.33,4.26,4.26,0,0,1-3.47-1.7,7.64,7.64,0,0,1-1.29-4.49,13.2,13.2,0,0,1,.88-5.19,8.39,8.39,0,0,1,2.63-3.84A5.69,5.69,0,0,1,383.27,146.25Zm-5.45,8.49-.09,1.36a6.36,6.36,0,0,0,.84,3.71,3.06,3.06,0,0,0,2.59,1.37,4.92,4.92,0,0,0,2.74-.69,6.54,6.54,0,0,0,2.2-2.21l1.24-7.39a4.38,4.38,0,0,0-1.37-2.24,3.81,3.81,0,0,0-2.5-.87,4.39,4.39,0,0,0-3.71,1.72A10.41,10.41,0,0,0,377.82,154.74Z"/><path class="cls-2" d="M401.34,148a6.33,6.33,0,0,0-1.15-.13,5.13,5.13,0,0,0-3.07,1,4.92,4.92,0,0,0-1.85,2.59l-1.88,10.9h-1.73l2.76-15.85h1.71l-.53,2.52a6.22,6.22,0,0,1,2.09-2.14,4.9,4.9,0,0,1,2.69-.7,4.53,4.53,0,0,1,1.2.2Z"/><path class="cls-2" d="M401.72,154.34a10.45,10.45,0,0,1,1.41-4.21,8,8,0,0,1,2.85-2.91,6.84,6.84,0,0,1,3.7-.95,5.6,5.6,0,0,1,3.35,1.07,6,6,0,0,1,2,2.86,9.37,9.37,0,0,1,.43,4l0,.27a10,10,0,0,1-2.66,6,6.9,6.9,0,0,1-5.32,2.2,5.4,5.4,0,0,1-4.27-2,7.57,7.57,0,0,1-1.56-5.07l0-.83Zm1.7.5a8.05,8.05,0,0,0,.26,3.21,4.76,4.76,0,0,0,1.43,2.31,3.8,3.8,0,0,0,2.44.88,5.09,5.09,0,0,0,2.9-.81,6.43,6.43,0,0,0,2.16-2.36,9.42,9.42,0,0,0,1.1-3.37l0-.48a7.17,7.17,0,0,0-.87-4.62,3.75,3.75,0,0,0-3.29-1.84,5.08,5.08,0,0,0-4,1.81,8.86,8.86,0,0,0-2.09,5Z"/><path class="cls-2" d="M422.09,158.76V160l.57-1.37,5.78-12.08h1.5l1.57,12.11.08,1.5.6-1.51,5.25-12.1h1.86l-7.24,15.85h-1.49l-1.75-12.57V149l-.34.9-6.06,12.55h-1.5l-1.68-15.85,1.64,0Z"/><path class="cls-2" d="M444.26,146.56l-.52,2.71a7.52,7.52,0,0,1,2.44-2.25,5.7,5.7,0,0,1,3-.75,3.87,3.87,0,0,1,3.33,1.59,6.25,6.25,0,0,1,.73,4.24l-1.73,10.31h-1.73l1.73-10.33a8.73,8.73,0,0,0,0-1.61,2.64,2.64,0,0,0-2.84-2.68,4.7,4.7,0,0,0-2.87.92,7.93,7.93,0,0,0-2.35,2.84l-1.87,10.86h-1.73l2.75-15.85Z"/><path class="cls-2" d="M469.33,142.5l-.71,4.06h3.18l-.25,1.44h-3.18l-1.75,10.57,0,.91c0,1.06.49,1.61,1.46,1.64a9.92,9.92,0,0,0,1.42-.1l-.07,1.43a5.53,5.53,0,0,1-1.76.22,2.59,2.59,0,0,1-2.24-1.07,4.63,4.63,0,0,1-.51-3L466.63,148h-2.84l.26-1.44h2.82l.71-4.06Z"/><path class="cls-2" d="M476.59,149.24a6.48,6.48,0,0,1,5.39-3,3.87,3.87,0,0,1,3.33,1.59,6.19,6.19,0,0,1,.73,4.24l-1.73,10.31h-1.73l1.73-10.33a8.73,8.73,0,0,0,0-1.61,2.64,2.64,0,0,0-2.84-2.68,4.7,4.7,0,0,0-2.87.92,7.93,7.93,0,0,0-2.35,2.84l-1.87,10.86h-1.73l3.91-22.5h1.73Z"/><path class="cls-2" d="M498.65,162.41a5.89,5.89,0,0,1,0-1.11l.13-1.1a8.24,8.24,0,0,1-2.51,1.86,6.69,6.69,0,0,1-3.05.64,4.51,4.51,0,0,1-3.26-1.27,3.8,3.8,0,0,1-1.13-3.11,4.72,4.72,0,0,1,1.08-2.72,6.19,6.19,0,0,1,2.73-1.78,11.56,11.56,0,0,1,4-.64l3.24,0,.26-1.82a3.19,3.19,0,0,0-.7-2.61,3.49,3.49,0,0,0-2.59-1,5,5,0,0,0-3,.86,3.77,3.77,0,0,0-1.61,2.33h-1.71a4.92,4.92,0,0,1,2.14-3.39,7.2,7.2,0,0,1,4.36-1.28,5.09,5.09,0,0,1,3.78,1.48,4.44,4.44,0,0,1,1.07,3.69l-1.32,8-.11,1.28a6.28,6.28,0,0,0,.11,1.56l0,.18Zm-5.18-1.23a5.76,5.76,0,0,0,3.08-.77,6.79,6.79,0,0,0,2.44-2.36l.6-3.51h-2.8a8.76,8.76,0,0,0-4.35.95,3.38,3.38,0,0,0-1.86,2.7,2.54,2.54,0,0,0,.68,2.13A3,3,0,0,0,493.47,161.18Z"/><path class="cls-2" d="M510.67,142.5l-.71,4.06h3.18l-.25,1.44h-3.18L508,158.57l0,.91c0,1.06.48,1.61,1.46,1.64a9.92,9.92,0,0,0,1.42-.1l-.07,1.43a5.53,5.53,0,0,1-1.76.22,2.58,2.58,0,0,1-2.24-1.07,4.63,4.63,0,0,1-.51-3L508,148h-2.84l.26-1.44h2.81l.72-4.06Z"/><path class="cls-2" d="M535,154.56a11.4,11.4,0,0,1-2.41,6,6,6,0,0,1-7.42,1.47,4.61,4.61,0,0,1-1.82-1.79l-.49,2.17h-1.64l3.91-22.5h1.73l-1.66,9a6,6,0,0,1,5.14-2.59,4.28,4.28,0,0,1,3.5,1.68,7.52,7.52,0,0,1,1.28,4.5,13.23,13.23,0,0,1-.09,1.8Zm-1.71-.34.1-1.39a6.28,6.28,0,0,0-.84-3.68,3.08,3.08,0,0,0-2.62-1.36q-3.21-.06-5,3.25l-1.2,7.16a4.06,4.06,0,0,0,1.46,2.18,4.3,4.3,0,0,0,2.51.81,4.46,4.46,0,0,0,3.65-1.69A10.27,10.27,0,0,0,533.3,154.22Z"/><path class="cls-2" d="M548,160.42a6.07,6.07,0,0,1-5.21,2.28,3.89,3.89,0,0,1-3.34-1.62,6.27,6.27,0,0,1-.79-4.37l1.7-10.15h1.72l-1.68,10.19a7.49,7.49,0,0,0,0,1.57,3.21,3.21,0,0,0,.8,2.08,2.71,2.71,0,0,0,1.94.78,5.77,5.77,0,0,0,3.25-.81,4.08,4.08,0,0,0,1.93-2.33l2-11.48h1.76l-2.75,15.85h-1.7Z"/><path class="cls-2" d="M563.66,158.28c.16-1.35-.66-2.33-2.46-2.93l-2.52-.75c-2.31-.78-3.41-2.08-3.28-3.91a4.06,4.06,0,0,1,1.83-3.21,6.62,6.62,0,0,1,4.09-1.21,5.59,5.59,0,0,1,3.78,1.31,4,4,0,0,1,1.35,3.42h-1.73a2.76,2.76,0,0,0-.89-2.32,3.81,3.81,0,0,0-2.58-.92,4.88,4.88,0,0,0-2.82.78,2.85,2.85,0,0,0-1.29,2.08c-.14,1.26.63,2.14,2.32,2.65l1.83.53,1,.33c2.21.83,3.25,2.19,3.12,4.06a4.2,4.2,0,0,1-1.65,3.13,6.85,6.85,0,0,1-3.94,1.37h-.61a7.07,7.07,0,0,1-2.88-.62,4.59,4.59,0,0,1-2-1.66,4,4,0,0,1-.6-2.46h1.74a2.93,2.93,0,0,0,1,2.36,4.23,4.23,0,0,0,2.78.89,5.32,5.32,0,0,0,3-.8A2.88,2.88,0,0,0,563.66,158.28Z"/><path class="cls-2" d="M570.47,162.41h-1.75l2.77-15.85h1.74ZM572,142q.07-.94,1.26-1.2a1.46,1.46,0,0,1,.81.36,1.49,1.49,0,0,1,.32.84,1.62,1.62,0,0,1-.43.82,1.73,1.73,0,0,1-.83.37C572.31,143,571.93,142.65,572,142Z"/><path class="cls-2" d="M579.61,146.56l-.52,2.71a7.52,7.52,0,0,1,2.44-2.25,5.7,5.7,0,0,1,3-.75,3.87,3.87,0,0,1,3.33,1.59,6.19,6.19,0,0,1,.73,4.24l-1.73,10.31h-1.73l1.73-10.33a8.73,8.73,0,0,0,0-1.61,2.64,2.64,0,0,0-2.84-2.68,4.7,4.7,0,0,0-2.87.92,7.93,7.93,0,0,0-2.35,2.84l-1.87,10.86h-1.73l2.75-15.85Z"/><path class="cls-2" d="M597.6,162.7a5.5,5.5,0,0,1-3.29-1.06,5.93,5.93,0,0,1-2-2.81,8.77,8.77,0,0,1-.47-3.85l.05-.5a10.56,10.56,0,0,1,1.3-4.18,8.1,8.1,0,0,1,2.78-3,6.43,6.43,0,0,1,3.61-1,4.92,4.92,0,0,1,3,1,5.29,5.29,0,0,1,1.78,2.61,8.72,8.72,0,0,1,.35,3.69l-.11,1.07h-11l-.05.35a6.82,6.82,0,0,0,.24,3.06,4.71,4.71,0,0,0,1.48,2.31,3.92,3.92,0,0,0,2.49.89,5.06,5.06,0,0,0,2.53-.54,8.32,8.32,0,0,0,2.08-1.57l1,.83a7,7,0,0,1-2.54,2.09A7.1,7.1,0,0,1,597.6,162.7Zm1.85-14.94a4.55,4.55,0,0,0-3.41,1.35,8.68,8.68,0,0,0-2.27,4H603l0-.22a5.11,5.11,0,0,0-.73-3.58A3.35,3.35,0,0,0,599.45,147.76Z"/><path class="cls-2" d="M616.52,158.28c.15-1.35-.67-2.33-2.47-2.93l-2.52-.75q-3.46-1.17-3.28-3.91a4.06,4.06,0,0,1,1.83-3.21,6.62,6.62,0,0,1,4.09-1.21,5.59,5.59,0,0,1,3.78,1.31A4,4,0,0,1,619.3,151h-1.73a2.76,2.76,0,0,0-.89-2.32,3.81,3.81,0,0,0-2.58-.92,4.9,4.9,0,0,0-2.82.78,2.81,2.81,0,0,0-1.28,2.08c-.15,1.26.62,2.14,2.31,2.65l1.83.53,1,.33c2.21.83,3.25,2.19,3.12,4.06a4.19,4.19,0,0,1-1.64,3.13,6.91,6.91,0,0,1-4,1.37h-.6a7.08,7.08,0,0,1-2.89-.62,4.59,4.59,0,0,1-2-1.66,4,4,0,0,1-.6-2.46h1.75a2.92,2.92,0,0,0,1,2.36,4.23,4.23,0,0,0,2.78.89,5.32,5.32,0,0,0,3-.8A2.92,2.92,0,0,0,616.52,158.28Z"/><path class="cls-2" d="M631.4,158.28c.15-1.35-.67-2.33-2.46-2.93l-2.52-.75q-3.48-1.17-3.28-3.91a4,4,0,0,1,1.82-3.21,6.64,6.64,0,0,1,4.09-1.21,5.56,5.56,0,0,1,3.78,1.31,4,4,0,0,1,1.35,3.42h-1.73a2.78,2.78,0,0,0-.88-2.32,3.83,3.83,0,0,0-2.59-.92,4.87,4.87,0,0,0-2.81.78,2.85,2.85,0,0,0-1.29,2.08c-.15,1.26.62,2.14,2.31,2.65l1.83.53,1,.33c2.2.83,3.24,2.19,3.12,4.06a4.2,4.2,0,0,1-1.65,3.13,6.88,6.88,0,0,1-4,1.37h-.6a7.08,7.08,0,0,1-2.89-.62,4.56,4.56,0,0,1-2-1.66,4,4,0,0,1-.6-2.46h1.74a3,3,0,0,0,1,2.36,4.23,4.23,0,0,0,2.78.89,5.3,5.3,0,0,0,3-.8A2.92,2.92,0,0,0,631.4,158.28Z"/><path class="cls-2" d="M644.7,162.41,647.2,148h-2.55l.27-1.44h2.53l.31-2.15a5.89,5.89,0,0,1,1.78-3.61,5,5,0,0,1,3.52-1.24,9.14,9.14,0,0,1,1.92.29l-.31,1.45a5.86,5.86,0,0,0-1.56-.22,3.32,3.32,0,0,0-2.43.95,4.58,4.58,0,0,0-1.21,2.65l-.28,1.88h3.68l-.26,1.44H649l-2.5,14.41Z"/><path class="cls-2" d="M663,148a6.44,6.44,0,0,0-1.16-.13,5.13,5.13,0,0,0-3.06,1,4.88,4.88,0,0,0-1.86,2.59L655,162.41h-1.73L656,146.56h1.72l-.53,2.52a6.19,6.19,0,0,1,2.08-2.14,5,5,0,0,1,2.69-.7,4.54,4.54,0,0,1,1.21.2Z"/><path class="cls-2" d="M663.33,154.34a10.45,10.45,0,0,1,1.41-4.21,8,8,0,0,1,2.85-2.91,6.81,6.81,0,0,1,3.69-.95,5.58,5.58,0,0,1,3.35,1.07,5.94,5.94,0,0,1,2,2.86,9.37,9.37,0,0,1,.44,4l0,.27a10,10,0,0,1-2.66,6,6.93,6.93,0,0,1-5.33,2.2,5.38,5.38,0,0,1-4.26-2,7.58,7.58,0,0,1-1.57-5.07l0-.83Zm1.7.5a7.88,7.88,0,0,0,.26,3.21,4.74,4.74,0,0,0,1.42,2.31,3.85,3.85,0,0,0,2.45.88,5,5,0,0,0,2.89-.81,6.26,6.26,0,0,0,2.16-2.36,9.23,9.23,0,0,0,1.1-3.37l.05-.48a7.3,7.3,0,0,0-.87-4.62,3.77,3.77,0,0,0-3.29-1.84,5.05,5.05,0,0,0-4.05,1.81,8.79,8.79,0,0,0-2.09,5Z"/><path class="cls-2" d="M683.71,146.56l-.5,2.58a6.26,6.26,0,0,1,5.38-2.87,4.71,4.71,0,0,1,2.77.83,3.45,3.45,0,0,1,1.37,2.24,8,8,0,0,1,2.53-2.29,6.08,6.08,0,0,1,3.14-.78,4.05,4.05,0,0,1,3.35,1.48,5.85,5.85,0,0,1,.9,4l0,.33-1.75,10.33h-1.74l1.73-10.35a8.19,8.19,0,0,0,0-1.64,2.68,2.68,0,0,0-3-2.63,5.34,5.34,0,0,0-5.17,4.14l-1.82,10.48h-1.74l1.75-10.48q.43-4-3-4.14a5,5,0,0,0-3.13,1.05,5.24,5.24,0,0,0-2,2.7L681,162.41h-1.74L682,146.56Z"/><path class="cls-2" d="M231,200.41a5.89,5.89,0,0,1,0-1.11l.13-1.1a8.24,8.24,0,0,1-2.51,1.86,6.73,6.73,0,0,1-3.06.64,4.53,4.53,0,0,1-3.26-1.27,3.82,3.82,0,0,1-1.12-3.11,4.72,4.72,0,0,1,1.08-2.72,6.19,6.19,0,0,1,2.73-1.78,11.56,11.56,0,0,1,4-.64l3.24,0,.26-1.82a3.19,3.19,0,0,0-.7-2.61,3.49,3.49,0,0,0-2.59-1,5,5,0,0,0-3,.86,3.77,3.77,0,0,0-1.61,2.33h-1.71a4.89,4.89,0,0,1,2.14-3.39,7.2,7.2,0,0,1,4.36-1.28,5.11,5.11,0,0,1,3.78,1.48,4.44,4.44,0,0,1,1.07,3.69l-1.32,8-.11,1.28a6.28,6.28,0,0,0,.11,1.56l0,.18Zm-5.18-1.23a5.76,5.76,0,0,0,3.08-.77,6.88,6.88,0,0,0,2.44-2.36l.6-3.51h-2.8a8.71,8.71,0,0,0-4.35.95,3.38,3.38,0,0,0-1.86,2.7,2.54,2.54,0,0,0,.68,2.13A3,3,0,0,0,225.83,199.18Z"/><path class="cls-2" d="M243.54,200.72a6.57,6.57,0,0,1-2.57-.58,4.52,4.52,0,0,1-2-1.72l-1.47,8.08h-1.72l3.8-21.94h1.62l-.41,2.24a6.07,6.07,0,0,1,5.17-2.53,4.32,4.32,0,0,1,3.47,1.65,7.44,7.44,0,0,1,1.29,4.53,13.17,13.17,0,0,1-.09,1.79l-.06.41a12.9,12.9,0,0,1-1.38,4.42,7.15,7.15,0,0,1-2.46,2.77A5.56,5.56,0,0,1,243.54,200.72Zm5.39-8.48.09-1.39a6.42,6.42,0,0,0-.85-3.67,3.13,3.13,0,0,0-2.66-1.39,5,5,0,0,0-2.79.75,6.39,6.39,0,0,0-2.11,2.28l-1.31,7.62a4,4,0,0,0,1.49,2.05,4.66,4.66,0,0,0,6-.84,9.2,9.2,0,0,0,2-4.63Z"/><path class="cls-2" d="M259.81,200.72a6.57,6.57,0,0,1-2.57-.58,4.52,4.52,0,0,1-2-1.72l-1.46,8.08h-1.73l3.81-21.94h1.61l-.41,2.24a6.08,6.08,0,0,1,5.17-2.53,4.31,4.31,0,0,1,3.47,1.65,7.44,7.44,0,0,1,1.29,4.53,13.17,13.17,0,0,1-.09,1.79l-.05.41a13.35,13.35,0,0,1-1.38,4.42,7.15,7.15,0,0,1-2.46,2.77A5.61,5.61,0,0,1,259.81,200.72Zm5.39-8.48.09-1.39a6.34,6.34,0,0,0-.85-3.67,3.12,3.12,0,0,0-2.65-1.39,5,5,0,0,0-2.79.75,6.42,6.42,0,0,0-2.12,2.28l-1.3,7.62a4,4,0,0,0,1.48,2.05,4.46,4.46,0,0,0,2.44.75,4.4,4.4,0,0,0,3.6-1.59,9.2,9.2,0,0,0,2-4.63Z"/><path class="cls-2" d="M279.12,186a6.44,6.44,0,0,0-1.16-.13,5.13,5.13,0,0,0-3.06,1,4.88,4.88,0,0,0-1.86,2.59l-1.88,10.9h-1.72l2.75-15.85h1.71l-.53,2.52a6.31,6.31,0,0,1,2.09-2.14,4.92,4.92,0,0,1,2.69-.7,4.53,4.53,0,0,1,1.2.2Z"/><path class="cls-2" d="M279.5,192.34a10.29,10.29,0,0,1,1.4-4.21,8,8,0,0,1,2.85-2.91,6.84,6.84,0,0,1,3.7-.95,5.58,5.58,0,0,1,3.35,1.07,5.94,5.94,0,0,1,2,2.86,9.22,9.22,0,0,1,.43,4l0,.27a10,10,0,0,1-2.65,6,6.93,6.93,0,0,1-5.33,2.2,5.37,5.37,0,0,1-4.26-2,7.53,7.53,0,0,1-1.57-5.07l0-.83Zm1.7.5a8.06,8.06,0,0,0,.25,3.21,4.83,4.83,0,0,0,1.43,2.31,3.83,3.83,0,0,0,2.45.88,5.06,5.06,0,0,0,2.89-.81,6.26,6.26,0,0,0,2.16-2.36,9.42,9.42,0,0,0,1.1-3.37l0-.48a7.17,7.17,0,0,0-.87-4.62,3.74,3.74,0,0,0-3.29-1.84,5.08,5.08,0,0,0-4.05,1.81,8.85,8.85,0,0,0-2.08,5Z"/><path class="cls-2" d="M301.63,191l5.14-6.4h2.17l-6.5,7.87,4.14,8h-1.93l-3.31-6.68-5.42,6.68h-2.14l6.77-8.16-4-7.69h1.93Z"/><path class="cls-2" d="M311.46,200.41H309.7l2.77-15.85h1.74ZM313,180q.07-.94,1.26-1.2a1.46,1.46,0,0,1,.82.36,1.5,1.5,0,0,1,.31.84,1.62,1.62,0,0,1-.42.82,1.82,1.82,0,0,1-.84.37C313.29,181,312.92,180.65,313,180Z"/><path class="cls-2" d="M320.53,184.56l-.5,2.58a6.27,6.27,0,0,1,5.38-2.87,4.71,4.71,0,0,1,2.77.83,3.41,3.41,0,0,1,1.37,2.24,8.05,8.05,0,0,1,2.53-2.29,6.08,6.08,0,0,1,3.14-.78,4.05,4.05,0,0,1,3.35,1.48,5.8,5.8,0,0,1,.9,4l0,.33-1.74,10.33H336l1.73-10.35a8.21,8.21,0,0,0,0-1.64,2.69,2.69,0,0,0-3-2.63,5.34,5.34,0,0,0-5.17,4.14l-1.82,10.48H326l1.76-10.48q.42-4-3-4.14a5,5,0,0,0-3.13,1.05,5.24,5.24,0,0,0-2,2.7l-1.88,10.87h-1.74l2.75-15.85Z"/><path class="cls-2" d="M352,200.41a5.89,5.89,0,0,1,0-1.11l.13-1.1a8.28,8.28,0,0,1-2.52,1.86,6.69,6.69,0,0,1-3.05.64,4.53,4.53,0,0,1-3.26-1.27,3.79,3.79,0,0,1-1.12-3.11,4.72,4.72,0,0,1,1.08-2.72,6.19,6.19,0,0,1,2.73-1.78,11.52,11.52,0,0,1,4-.64l3.24,0,.26-1.82a3.23,3.23,0,0,0-.7-2.61,3.5,3.5,0,0,0-2.6-1,5,5,0,0,0-3,.86,3.75,3.75,0,0,0-1.6,2.33h-1.72a4.92,4.92,0,0,1,2.14-3.39,7.23,7.23,0,0,1,4.37-1.28,5.07,5.07,0,0,1,3.77,1.48,4.44,4.44,0,0,1,1.08,3.69l-1.32,8-.12,1.28a5.84,5.84,0,0,0,.12,1.56l0,.18Zm-5.19-1.23a5.78,5.78,0,0,0,3.09-.77,6.88,6.88,0,0,0,2.44-2.36l.6-3.51h-2.8a8.71,8.71,0,0,0-4.35.95,3.34,3.34,0,0,0-1.86,2.7,2.54,2.54,0,0,0,.68,2.13A3,3,0,0,0,346.79,199.18Z"/><path class="cls-2" d="M364,180.5l-.7,4.06h3.18l-.25,1.44H363l-1.76,10.57,0,.91c0,1.06.49,1.61,1.47,1.64a10,10,0,0,0,1.42-.1l-.08,1.43a5.46,5.46,0,0,1-1.75.22,2.6,2.6,0,0,1-2.25-1.07,4.75,4.75,0,0,1-.51-3L361.29,186h-2.84l.27-1.44h2.81l.72-4.06Z"/><path class="cls-2" d="M373.63,200.7a5.53,5.53,0,0,1-3.3-1.06,6,6,0,0,1-2-2.81,8.62,8.62,0,0,1-.46-3.85l0-.5a10.57,10.57,0,0,1,1.31-4.18,8.1,8.1,0,0,1,2.78-3,6.38,6.38,0,0,1,3.6-1,5,5,0,0,1,3,1,5.36,5.36,0,0,1,1.78,2.61,8.72,8.72,0,0,1,.35,3.69l-.12,1.07h-11l0,.35a7,7,0,0,0,.23,3.06,4.72,4.72,0,0,0,1.49,2.31,3.89,3.89,0,0,0,2.48.89,5,5,0,0,0,2.53-.54,8,8,0,0,0,2.08-1.57l1,.83a6.92,6.92,0,0,1-5.77,2.77Zm1.84-14.94a4.56,4.56,0,0,0-3.41,1.35,8.86,8.86,0,0,0-2.27,4H379l0-.22a5.06,5.06,0,0,0-.73-3.58A3.34,3.34,0,0,0,375.47,185.76Z"/><path class="cls-2" d="M384.47,200.41h-1.76l3.91-22.5h1.76Z"/><path class="cls-2" d="M394.49,197.83l6.78-13.27h2L393.55,203a8.57,8.57,0,0,1-2.26,3,4.18,4.18,0,0,1-2.66.86,7.8,7.8,0,0,1-1.41-.23l.18-1.44.88.11q2.46.11,3.88-2.9l1.11-2.22-3.06-15.61H392Z"/><path class="cls-2" d="M420.08,200.41h-4.83L418,184.74l-5,1.4.68-3.91,9.43-3.15h.54Z"/><path class="cls-2" d="M427.26,198.18a2.3,2.3,0,0,1,.76-1.84,2.82,2.82,0,0,1,3.73-.07,2.29,2.29,0,0,1,.79,1.74,2.31,2.31,0,0,1-.74,1.83,2.63,2.63,0,0,1-1.91.74,2.67,2.67,0,0,1-1.86-.67A2.3,2.3,0,0,1,427.26,198.18Z"/><path class="cls-2" d="M441.88,187.68H444a3.32,3.32,0,0,0,2.17-.76,3.15,3.15,0,0,0,1-2.07,2.13,2.13,0,0,0-.4-1.64,1.9,1.9,0,0,0-1.54-.65,2.57,2.57,0,0,0-1.68.52,2.5,2.5,0,0,0-.94,1.48l-4.83,0a5.39,5.39,0,0,1,1.11-3.07,6.64,6.64,0,0,1,2.73-2.06,9.17,9.17,0,0,1,3.67-.71,7.7,7.7,0,0,1,5.07,1.69,5,5,0,0,1,1.69,4.31q-.19,3-3.94,4.78a4.85,4.85,0,0,1,2.12,2,5.1,5.1,0,0,1,.63,2.81,5.85,5.85,0,0,1-1.25,3.42,7.27,7.27,0,0,1-3.06,2.24,10.25,10.25,0,0,1-4.11.74,7.69,7.69,0,0,1-3.48-.81,5.75,5.75,0,0,1-2.4-2.2,6.15,6.15,0,0,1-.82-3.22h4.81a2.54,2.54,0,0,0,.61,1.72,2.22,2.22,0,0,0,1.69.7,3.2,3.2,0,0,0,2.15-.72,2.91,2.91,0,0,0,1.11-2,2.7,2.7,0,0,0-.38-2.05,2.33,2.33,0,0,0-1.89-.79H441.3Z"/><path class="cls-2" d="M468.87,180.62l-.68,3.94h2.53l-.6,3.43h-2.54l-1.23,7.28a2,2,0,0,0,.1,1.13c.13.25.46.39,1,.41a11.79,11.79,0,0,0,1.26-.08l-.35,3.58a7.94,7.94,0,0,1-2.6.36,4.26,4.26,0,0,1-3.35-1.32,4.48,4.48,0,0,1-.91-3.5l1.29-7.86h-2l.58-3.43h2l.69-3.94Z"/><path class="cls-2" d="M478.77,184.27a6.64,6.64,0,0,1,3.68,1.06,6,6,0,0,1,2.28,2.88,8.87,8.87,0,0,1,.52,4.1l0,.32a9.39,9.39,0,0,1-2.71,5.89,7.63,7.63,0,0,1-5.68,2.18,6.69,6.69,0,0,1-3.65-1,6,6,0,0,1-2.28-2.85,8.67,8.67,0,0,1-.53-4.08,9.77,9.77,0,0,1,2.67-6.21A7.58,7.58,0,0,1,478.77,184.27Zm-3.58,8.47-.05.86c-.13,2.18.53,3.28,2,3.32q2.85.09,3.3-4.6l.06-1.33a3.56,3.56,0,0,0-.49-2.1,1.78,1.78,0,0,0-1.53-.81,2.51,2.51,0,0,0-2.19,1.09A7,7,0,0,0,475.19,192.74Z"/><path class="cls-2" d="M504,200.41h-4.84l2.73-15.67-5,1.4.67-3.91,9.44-3.15h.54Z"/><path class="cls-2" d="M511.16,198.18a2.31,2.31,0,0,1,.77-1.84,2.65,2.65,0,0,1,1.88-.74,2.73,2.73,0,0,1,1.85.67,2.29,2.29,0,0,1,.79,1.74,2.32,2.32,0,0,1-.75,1.83,2.61,2.61,0,0,1-1.9.74,2.67,2.67,0,0,1-1.86-.67A2.31,2.31,0,0,1,511.16,198.18Z"/><path class="cls-2" d="M536.71,181.94l-10.52,18.47h-5.27l10.47-17.52h-9.77l.62-3.81h14.92Z"/><path class="cls-2" d="M551,184.54l-.32,1.91a5.68,5.68,0,0,1,4.62-2.18,4.17,4.17,0,0,1,2.36.67,3,3,0,0,1,1.23,1.71,6,6,0,0,1,4.82-2.38,3.71,3.71,0,0,1,3.26,1.65,6.85,6.85,0,0,1,.77,4.51l-1.65,10h-4.84l1.68-10,.06-.86c0-1-.45-1.47-1.36-1.49a3.1,3.1,0,0,0-2.37,1.3l-1.92,11h-4.83l1.67-9.95,0-.88c0-1-.45-1.5-1.36-1.5a3.08,3.08,0,0,0-2.34,1.3l-1.95,11h-4.82l2.75-15.85Z"/><path class="cls-2" d="M574,200.41H569.2L572,184.56h4.84Zm-1.65-19.85a2.25,2.25,0,0,1,.75-1.79,2.72,2.72,0,0,1,1.9-.71,2.78,2.78,0,0,1,1.88.64,2.18,2.18,0,0,1,.79,1.68,2.23,2.23,0,0,1-.75,1.8,2.74,2.74,0,0,1-1.91.71,2.79,2.79,0,0,1-1.86-.64A2.18,2.18,0,0,1,572.38,180.56Z"/><path class="cls-2" d="M582.18,200.41h-4.83l3.89-22.5h4.84Z"/><path class="cls-2" d="M590.32,200.41h-4.83l3.9-22.5h4.83Z"/><path class="cls-2" d="M598.47,200.41h-4.84l2.76-15.85h4.83Zm-1.66-19.85a2.23,2.23,0,0,1,.76-1.79,2.68,2.68,0,0,1,1.89-.71,2.81,2.81,0,0,1,1.89.64,2.2,2.2,0,0,1,.78,1.68,2.23,2.23,0,0,1-.75,1.8,2.73,2.73,0,0,1-1.9.71,2.81,2.81,0,0,1-1.87-.64A2.18,2.18,0,0,1,596.81,180.56Z"/><path class="cls-2" d="M610.77,184.27a6.66,6.66,0,0,1,3.68,1.06,6.07,6.07,0,0,1,2.28,2.88,9,9,0,0,1,.52,4.1l0,.32a9.44,9.44,0,0,1-2.71,5.89,7.65,7.65,0,0,1-5.69,2.18,6.68,6.68,0,0,1-3.64-1,6,6,0,0,1-2.28-2.85,8.8,8.8,0,0,1-.54-4.08,9.83,9.83,0,0,1,2.68-6.21A7.58,7.58,0,0,1,610.77,184.27Zm-3.59,8.47,0,.86c-.14,2.18.53,3.28,2,3.32,1.9.06,3-1.47,3.3-4.6l.06-1.33a3.64,3.64,0,0,0-.49-2.1,1.78,1.78,0,0,0-1.54-.81,2.53,2.53,0,0,0-2.19,1.09A7.13,7.13,0,0,0,607.18,192.74Z"/><path class="cls-2" d="M625.17,184.54l-.33,1.91a5.62,5.62,0,0,1,4.58-2.2,3.78,3.78,0,0,1,3.27,1.64,6.83,6.83,0,0,1,.79,4.54l-1.67,10H627l1.69-10a5.05,5.05,0,0,0,0-.94c-.07-.92-.62-1.39-1.64-1.39a3,3,0,0,0-2.33,1.13l-2,11.22h-4.82l2.76-15.85Z"/><path class="cls-2" d="M635.32,198.18a2.31,2.31,0,0,1,.77-1.84,2.65,2.65,0,0,1,1.88-.74,2.73,2.73,0,0,1,1.85.67,2.29,2.29,0,0,1,.79,1.74,2.32,2.32,0,0,1-.75,1.83,2.61,2.61,0,0,1-1.9.74,2.67,2.67,0,0,1-1.86-.67A2.31,2.31,0,0,1,635.32,198.18Z"/><path class="cls-2" d="M647.66,185.41l-1.75-1.16a10.18,10.18,0,0,0,2-3.92l.44-2.42h3l-.32,2A8.55,8.55,0,0,1,647.66,185.41Zm4.74,0-1.74-1.16a10.15,10.15,0,0,0,2-3.92l.44-2.42h3.05l-.32,2A8.52,8.52,0,0,1,652.4,185.41Z"/><path class="cls-2" d="M389.44,242.41V228.19h4.37a6.61,6.61,0,0,1,3.36.85,5.94,5.94,0,0,1,2.31,2.4,7.46,7.46,0,0,1,.83,3.54v.65a7.5,7.5,0,0,1-.82,3.53,5.82,5.82,0,0,1-2.3,2.39,6.68,6.68,0,0,1-3.35.86Zm2.93-11.85v9.5h1.41a3.19,3.19,0,0,0,2.63-1.13,5,5,0,0,0,.93-3.21V235a5.16,5.16,0,0,0-.9-3.29,3.2,3.2,0,0,0-2.63-1.12Z"/><path class="cls-2" d="M407.11,242.6a5.17,5.17,0,0,1-3.78-1.42,5,5,0,0,1-1.46-3.8v-.27a6.38,6.38,0,0,1,.61-2.85,4.5,4.5,0,0,1,1.75-1.93,4.82,4.82,0,0,1,2.57-.68,4.37,4.37,0,0,1,3.41,1.36,5.59,5.59,0,0,1,1.25,3.88V238h-6.73a2.6,2.6,0,0,0,.83,1.66,2.48,2.48,0,0,0,1.74.63,3,3,0,0,0,2.55-1.18l1.38,1.55a4.15,4.15,0,0,1-1.71,1.4A5.62,5.62,0,0,1,407.11,242.6Zm-.32-8.68a1.76,1.76,0,0,0-1.36.57,3,3,0,0,0-.67,1.63h3.93v-.23a2.15,2.15,0,0,0-.51-1.45A1.81,1.81,0,0,0,406.79,233.92Z"/><path class="cls-2" d="M419,234.49a8.26,8.26,0,0,0-1-.08,2.07,2.07,0,0,0-2.1,1.09v6.91h-2.82V231.84h2.67l.07,1.26a2.63,2.63,0,0,1,2.36-1.45,3.17,3.17,0,0,1,.88.12Z"/><path class="cls-2" d="M425,242.6a5.17,5.17,0,0,1-3.78-1.42,5,5,0,0,1-1.46-3.8v-.27a6.38,6.38,0,0,1,.61-2.85,4.5,4.5,0,0,1,1.75-1.93,4.82,4.82,0,0,1,2.57-.68,4.37,4.37,0,0,1,3.41,1.36,5.59,5.59,0,0,1,1.25,3.88V238h-6.73a2.6,2.6,0,0,0,.83,1.66,2.48,2.48,0,0,0,1.74.63,3,3,0,0,0,2.55-1.18l1.38,1.55a4.15,4.15,0,0,1-1.71,1.4A5.62,5.62,0,0,1,425,242.6Zm-.32-8.68a1.76,1.76,0,0,0-1.36.57,3,3,0,0,0-.67,1.63h3.92v-.23a2.1,2.1,0,0,0-.5-1.45A1.81,1.81,0,0,0,424.71,233.92Z"/><path class="cls-2" d="M434.82,238.17l-1,1v3.22H431v-15h2.82v8.31l.55-.7,2.7-3.18h3.39l-3.82,4.41,4.15,6.16h-3.24Z"/><path class="cls-2" d="M458.39,242.41h-2.93l-5.7-9.36v9.36h-2.93V228.19h2.93l5.71,9.38v-9.38h2.92Z"/><path class="cls-2" d="M460.75,229.11a1.42,1.42,0,0,1,.42-1.05,1.83,1.83,0,0,1,2.31,0,1.4,1.4,0,0,1,.43,1.05,1.37,1.37,0,0,1-.43,1,1.59,1.59,0,0,1-1.15.41,1.57,1.57,0,0,1-1.15-.41A1.37,1.37,0,0,1,460.75,229.11Zm3,13.3h-2.83V231.84h2.83Z"/><path class="cls-2" d="M468.67,231.84l.08,1.22a3.71,3.71,0,0,1,3-1.41,3.09,3.09,0,0,1,2.5,1,4.57,4.57,0,0,1,.84,3v6.83h-2.82v-6.77a1.85,1.85,0,0,0-.39-1.31,1.76,1.76,0,0,0-1.3-.41,2,2,0,0,0-1.79,1v7.47H466V231.84Z"/><path class="cls-2" d="M476.83,237.05a6.38,6.38,0,0,1,1.11-3.94,3.61,3.61,0,0,1,3-1.46,3.23,3.23,0,0,1,2.55,1.15v-5.39h2.83v15H483.8l-.13-1.12A3.32,3.32,0,0,1,481,242.6a3.58,3.58,0,0,1-3-1.47A6.55,6.55,0,0,1,476.83,237.05Zm2.82.2a4.23,4.23,0,0,0,.52,2.28,1.7,1.7,0,0,0,1.5.8,1.89,1.89,0,0,0,1.85-1.11V235a1.86,1.86,0,0,0-1.83-1.11Q479.65,233.92,479.65,237.25Z"/></g></g></svg>