<svg xmlns="http://www.w3.org/2000/svg" viewBox="0 0 875.62 365.92"><defs><style>.cls-1{fill:#006ec7;}.cls-2{font-size:141.71px;font-family:Roboto-Black, Roboto;font-weight:800;}.cls-2,.cls-5{fill:#fff;}.cls-3,.cls-4{fill:none;stroke-linecap:round;stroke-linejoin:round;stroke-width:4px;}.cls-3{stroke:#fff;}.cls-4{stroke:#fcd217;}.cls-5{font-size:89.4px;font-family:Roboto-Bold, Roboto;font-weight:700;}</style></defs><title>Asset 14</title><g id="Layer_2" data-name="Layer 2"><g id="Layer_1-2" data-name="Layer 1"><rect class="cls-1" width="875.62" height="365.92"/><text class="cls-2" transform="translate(161.78 181.12)">110 </text><path class="cls-3" d="M693.74,242.89c10.7-9.22,25.5-22.28,37.3-50.63H627.24l-168.33.18,19.84,51.76"/><path class="cls-3" d="M463.21,250.21a19.31,19.31,0,0,0,35.24,0"/><path class="cls-3" d="M498.45,250.21a19.32,19.32,0,0,0,35.25,0"/><path class="cls-3" d="M533.7,250.21a19.31,19.31,0,0,0,35.24,0"/><path class="cls-3" d="M568.94,250.21a19.31,19.31,0,0,0,35.24,0"/><path class="cls-3" d="M604.18,250.21a19.32,19.32,0,0,0,35.25,0"/><path class="cls-3" d="M639.43,250.21a19.31,19.31,0,0,0,35.24,0"/><path class="cls-3" d="M674.67,250.21a19.31,19.31,0,0,0,35.24,0"/><path class="cls-3" d="M696.3,192.26l-36.66-57.85H470.18a7.5,7.5,0,0,0-7.51,7.5h0a7.51,7.51,0,0,0,7.51,7.51h28.07a39.57,39.57,0,0,1,34.6,20.37l12.47,22.47"/><line class="cls-3" x1="470.24" y1="192.43" x2="480.25" y2="149.42"/><polyline class="cls-3" points="643.18 134.41 632.07 108.13 494.02 108.13 489.01 134.41"/><line class="cls-4" x1="538.44" y1="150.46" x2="548.82" y2="150.46"/><line class="cls-4" x1="559.4" y1="150.46" x2="569.77" y2="150.46"/><line class="cls-4" x1="580.35" y1="150.46" x2="590.73" y2="150.46"/><line class="cls-4" x1="601.31" y1="150.46" x2="611.69" y2="150.46"/><line class="cls-3" x1="610.44" y1="121.69" x2="620.82" y2="121.69"/><line class="cls-4" x1="622.27" y1="150.46" x2="632.65" y2="150.46"/><line class="cls-4" x1="643.23" y1="150.46" x2="653.61" y2="150.46"/><line class="cls-4" x1="546.23" y1="163.29" x2="556.61" y2="163.29"/><line class="cls-4" x1="567.19" y1="163.29" x2="577.57" y2="163.29"/><line class="cls-4" x1="588.15" y1="163.29" x2="598.52" y2="163.29"/><line class="cls-4" x1="609.1" y1="163.29" x2="619.48" y2="163.29"/><line class="cls-4" x1="630.06" y1="163.29" x2="640.44" y2="163.29"/><line class="cls-4" x1="651.02" y1="163.29" x2="661.4" y2="163.29"/><line class="cls-4" x1="554.11" y1="176.27" x2="564.48" y2="176.27"/><line class="cls-4" x1="575.06" y1="176.27" x2="585.44" y2="176.27"/><line class="cls-4" x1="596.02" y1="176.27" x2="606.4" y2="176.27"/><line class="cls-4" x1="616.98" y1="176.27" x2="627.36" y2="176.27"/><line class="cls-4" x1="637.94" y1="176.27" x2="648.32" y2="176.27"/><line class="cls-4" x1="658.9" y1="176.27" x2="669.28" y2="176.27"/><line class="cls-3" x1="511.74" y1="163.29" x2="477.03" y2="163.29"/><line class="cls-3" x1="524.46" y1="177.16" x2="473.41" y2="177.16"/><path class="cls-3" d="M596.39,108.13v1.11c0,6.29-5.11,12.65-11.42,12.65H520c-6.3,0-11.4-6.36-11.4-12.65v-1.11"/><path class="cls-3" d="M466,210.8H597a24.73,24.73,0,0,0,16.44-6.25l13.81-12.28"/><polyline class="cls-3" points="548.82 108.13 541.25 82.58 516.08 82.58 522.98 106.67"/><line class="cls-3" x1="519.8" y1="95.93" x2="545.09" y2="95.93"/><line class="cls-3" x1="558.46" y1="95.93" x2="572.95" y2="95.93"/><polyline class="cls-3" points="576.7 108.13 569.4 82.58 556.73 82.58"/><line class="cls-3" x1="699.57" y1="208.33" x2="682.36" y2="208.33"/><text class="cls-5" transform="translate(180.88 265.59)">ships</text></g></g></svg>