<svg xmlns="http://www.w3.org/2000/svg" viewBox="0 0 875.62 365.92"><defs><style>.cls-1{fill:#006ec7;}.cls-2{font-size:86.75px;font-family:Roboto-Black, Roboto;font-weight:800;}.cls-2,.cls-8{fill:#fff;}.cls-3{font-size:46.27px;}.cls-4,.cls-5,.cls-6,.cls-7{fill:none;stroke-linejoin:round;stroke-width:4px;}.cls-4,.cls-6{stroke:#fff;}.cls-5,.cls-7{stroke:#fcd217;}.cls-6,.cls-7{stroke-linecap:round;}.cls-8{font-size:103.97px;font-family:Roboto-Bold, Roboto;font-weight:700;}.cls-9{letter-spacing:-0.01em;}</style></defs><title>Asset 15</title><g id="Layer_2" data-name="Layer 2"><g id="Layer_1-2" data-name="Layer 1"><rect class="cls-1" width="875.62" height="365.92"/><text class="cls-2" transform="translate(114.11 160.14)">+300,000<tspan class="cls-3" x="371.13" y="0"> </tspan></text><path class="cls-4" d="M643.56,157.26a57.43,57.43,0,1,1-57.41,57.45,57.44,57.44,0,0,1,57.41-57.45Z"/><path class="cls-5" d="M643.56,257.29a42.6,42.6,0,1,1,42.62-42.58A42.63,42.63,0,0,1,643.56,257.29Z"/><path class="cls-4" d="M701,212.13V189a57.43,57.43,0,1,0-114.85,0v23.73"/><path class="cls-4" d="M597.5,249H542.77a8.67,8.67,0,0,1-8.68-8.66V132a8.68,8.68,0,0,1,8.68-8.68h45.76a8.64,8.64,0,0,0,7.83-4.94l11.71-17.91a8.66,8.66,0,0,1,7.83-5h53.49a8.69,8.69,0,0,1,7.83,5l11.7,17.91a8.68,8.68,0,0,0,7.84,4.94h41.77A8.69,8.69,0,0,1,747.2,132V240.32a8.67,8.67,0,0,1-8.67,8.66H689.65"/><path class="cls-4" d="M534.85,143.67h13.42a13.6,13.6,0,0,1,13.56,13.56v58.11a13.57,13.57,0,0,1-13.56,13.56H534.85"/><line class="cls-6" x1="713.61" y1="142" x2="729.56" y2="142"/><path class="cls-7" d="M671.91,214.61a28.87,28.87,0,1,1-57.73,0"/><path class="cls-7" d="M622.65,194.33A28.69,28.69,0,0,1,643,185.89"/><circle class="cls-4" cx="722.92" cy="220.64" r="8.38"/><line class="cls-4" x1="602.2" y1="109.42" x2="683.09" y2="109.42"/><text class="cls-8" transform="translate(129.02 259.33)">visi<tspan class="cls-9" x="161.13" y="0">t</tspan><tspan x="194.73" y="0">ors</tspan></text></g></g></svg>