<svg xmlns="http://www.w3.org/2000/svg" viewBox="0 0 875.62 365.92"><defs><style>.cls-1{fill:#006ec7;}.cls-2{font-size:116.76px;font-family:Roboto-Black, Roboto;font-weight:800;}.cls-2,.cls-4,.cls-6{fill:#fff;}.cls-3{font-size:58.38px;}.cls-4,.cls-5{stroke:#006ec7;stroke-miterlimit:10;stroke-width:2px;}.cls-5{fill:#fcd217;}.cls-6{font-size:47.07px;font-family:Roboto-Bold, Roboto;font-weight:700;letter-spacing:-0.01em;}.cls-7{letter-spacing:0em;}</style></defs><title>Asset 16</title><g id="Layer_2" data-name="Layer 2"><g id="Layer_1-2" data-name="Layer 1"><rect class="cls-1" width="875.62" height="365.92"/><text class="cls-2" transform="translate(142.1 194.38)">+$56m<tspan class="cls-3" x="365.78" y="0"> </tspan></text><path class="cls-4" d="M695.55,135.55a82,82,0,1,0,0,95.08,47.83,47.83,0,0,0,0-95.08Zm-8.7-.14a47.65,47.65,0,0,0-27.38,11.12c-3.3-16.5-8.61-29.23-15.17-37A75.2,75.2,0,0,1,686.85,135.41Zm-58.1-27.51c9.8,0,19.47,16.62,24.22,41H604.58C609.54,123.73,619.51,107.9,628.75,107.9Zm22.31,47.85a47.58,47.58,0,0,0,0,54.68H603.41a187.87,187.87,0,0,1,0-54.68Zm-37.61-46.28c-7.05,8.28-12.65,22.19-15.87,39.44H561.81A75.43,75.43,0,0,1,613.45,109.47Zm-59.89,73.62a74.73,74.73,0,0,1,5.17-27.35h37.73a198.76,198.76,0,0,0,0,54.69H558.73A74.6,74.6,0,0,1,553.56,183.09Zm8.25,34.18h35.77c3.22,17.25,8.82,31.16,15.87,39.45A75.45,75.45,0,0,1,561.81,217.27Zm66.94,41c-9.24,0-19.21-15.83-24.17-41H653C648.22,241.66,638.55,258.28,628.75,258.28Zm15.55-1.65c6.56-7.74,11.87-20.48,15.17-37a47.58,47.58,0,0,0,27.38,11.12A75.21,75.21,0,0,1,644.3,256.63Zm46-32.52a41,41,0,1,1,41-41A41.06,41.06,0,0,1,690.27,224.11Z"/><path class="cls-5" d="M686.86,172.84h13.67a3.42,3.42,0,0,0,0-6.84h-6.84v-3.42a3.42,3.42,0,0,0-6.83,0V166a10.26,10.26,0,1,0,0,20.51h6.83a3.42,3.42,0,1,1,0,6.83H680a3.42,3.42,0,1,0,0,6.84h6.84v3.42a3.42,3.42,0,1,0,6.83,0v-3.42a10.26,10.26,0,0,0,0-20.51h-6.83a3.42,3.42,0,1,1,0-6.83Z"/><text class="cls-6" transform="translate(151.92 257.71)">t<tspan class="cls-7" x="15.22" y="0">o local economy</tspan></text></g></g></svg>