<svg xmlns="http://www.w3.org/2000/svg" viewBox="0 0 875.62 378.44"><defs><style>.cls-1{fill:#cfd1d2;}.cls-2,.cls-4{fill:#fff;}.cls-3{fill:#006ec7;}.cls-4{font-size:60px;font-family:Roboto-Black, Roboto;font-weight:800;}.cls-5,.cls-6{fill:none;stroke:#fff;stroke-linejoin:round;stroke-width:4.99px;}.cls-5{stroke-linecap:square;}.cls-6{stroke-linecap:round;}</style></defs><title>Asset 25</title><g id="Layer_2" data-name="Layer 2"><g id="Layer_1-2" data-name="Layer 1"><rect class="cls-1" y="5.17" width="875.62" height="365.92"/><path class="cls-2" d="M459.78,21.51,574.72,164.22a25.47,25.47,0,0,1,.77,30.93L457.68,357.45a13.22,13.22,0,0,0,10.7,21H721.27A13.2,13.2,0,0,0,732,373l128.29-177.8a25.47,25.47,0,0,0-.84-30.89L730.74,4.91A13.24,13.24,0,0,0,720.46,0H470.08A13.22,13.22,0,0,0,459.78,21.51Z"/><path class="cls-3" d="M448.8,26,559.93,164a24.61,24.61,0,0,1,.76,29.9L446.77,350.8a12.79,12.79,0,0,0,10.35,20.29H701.64a12.78,12.78,0,0,0,10.37-5.3l124-171.92a24.61,24.61,0,0,0-.81-29.87L710.8,9.92a12.8,12.8,0,0,0-9.94-4.75H458.76A12.78,12.78,0,0,0,448.8,26Z"/><rect class="cls-3" x="1.91" y="5.17" width="678.28" height="365.92"/><text class="cls-4" transform="translate(390.4 208.3)">Aim higher</text><polyline class="cls-5" points="204.34 265.42 255.02 175.75 305.57 265.42"/><polyline class="cls-5" points="341.32 261.26 296.3 196.72 281.52 218.97"/><polyline class="cls-5" points="234.41 214.43 240.33 224.68 248.38 209.54 255.04 224.68 262.46 209.41 269.73 224.68 275.88 215.96"/><line class="cls-6" x1="254.95" y1="141.79" x2="254.95" y2="175.75"/><polygon class="cls-6" points="255.23 140.32 255.23 158.77 282.41 158.77 271.34 148.82 283.54 140.63 255.23 140.32"/><path class="cls-2" d="M322.07,220.06l-3.94-3.37a62.45,62.45,0,1,0-94.76.21l-3.92,3.39a67.64,67.64,0,1,1,102.62-.23Z"/></g></g></svg>