<svg xmlns="http://www.w3.org/2000/svg" viewBox="0 0 875.62 378.44"><defs><style>.cls-1{fill:#00ab4e;}.cls-2,.cls-5{fill:#fff;}.cls-3{fill:#ed0677;}.cls-4{fill:none;stroke:#fff;stroke-linecap:square;stroke-linejoin:round;stroke-width:4.99px;}.cls-5{font-size:60px;font-family:Roboto-Black, Roboto;font-weight:800;}</style></defs><title>Asset 23</title><g id="Layer_2" data-name="Layer 2"><g id="Layer_1-2" data-name="Layer 1"><rect class="cls-1" y="5.17" width="875.62" height="365.92"/><path class="cls-2" d="M458.33,21.51,573.26,164.22a25.47,25.47,0,0,1,.78,30.93L456.23,357.45a13.22,13.22,0,0,0,10.7,21H719.82A13.21,13.21,0,0,0,730.54,373l128.29-177.8a25.47,25.47,0,0,0-.84-30.89L729.29,4.91A13.24,13.24,0,0,0,719,0H468.62A13.22,13.22,0,0,0,458.33,21.51Z"/><path class="cls-3" d="M449.35,26,560.48,164a24.6,24.6,0,0,1,.75,29.9L447.32,350.8a12.79,12.79,0,0,0,10.35,20.29H702.19a12.79,12.79,0,0,0,10.37-5.3l124-171.92a24.61,24.61,0,0,0-.81-29.87L711.35,9.92a12.8,12.8,0,0,0-10-4.75H459.3A12.78,12.78,0,0,0,449.35,26Z"/><rect class="cls-3" x="0.46" y="5.17" width="678.28" height="365.92"/><path class="cls-4" d="M211.74,197a74,74,0,0,1,34.81-80.56"/><path class="cls-4" d="M309.22,249.63a74.17,74.17,0,0,1-56.6-2.34"/><path class="cls-4" d="M316.15,113.84a74,74,0,0,1,39.59,83"/><polyline class="cls-4" points="259.13 100.97 259.13 146.71 303.95 146.71 303.95 100.97"/><path class="cls-4" d="M296.32,148.13v4.36a3.79,3.79,0,0,0,.89,2.43L304,163a3.78,3.78,0,0,1,.89,2.44v11.92a3.8,3.8,0,0,1-3.8,3.79h0a3.8,3.8,0,0,1-3.8-3.79v28.12a3.8,3.8,0,0,1-3.79,3.8h-1.19a3.8,3.8,0,0,1-3.8-3.8v4.36a3.8,3.8,0,0,1-3.8,3.8h-.89a3.8,3.8,0,0,1-3.8-3.8v-2.93a3.8,3.8,0,0,1-3.8,3.8H275a3.8,3.8,0,0,1-3.8-3.8v-2.85a3.8,3.8,0,0,1-3.8,3.8H266.3a3.8,3.8,0,0,1-3.8-3.8V161.31a3.75,3.75,0,0,1,.16-1.1l3.21-12.08"/><polyline class="cls-4" points="201.51 229.25 237.38 193.39 265.98 222 230.12 257.86"/><polyline class="cls-4" points="241.33 196.11 249.96 182.79 261.22 172.2"/><line class="cls-4" x1="262.5" y1="218.51" x2="271.93" y2="209.21"/><polyline class="cls-4" points="335.62 258.48 299.41 222.27 328.33 193.35 364.55 229.56"/><line class="cls-4" x1="302.73" y1="218" x2="295.3" y2="210.56"/><polyline class="cls-4" points="324.1 194.97 316.15 182.71 306.15 172.96"/><text class="cls-5" transform="translate(420.46 202.32)">One team</text></g></g></svg>