<svg xmlns="http://www.w3.org/2000/svg" viewBox="0 0 876.39 378.44"><defs><style>.cls-1{fill:#006ec7;}.cls-2,.cls-4{fill:#fff;}.cls-3{fill:#00ab4e;}.cls-4{font-size:60px;font-family:Roboto-Black, Roboto;font-weight:800;}.cls-5{letter-spacing:-0.01em;}.cls-6{fill:none;stroke:#fff;stroke-miterlimit:10;stroke-width:5.06px;}</style></defs><title>Asset 24</title><g id="Layer_2" data-name="Layer 2"><g id="Layer_1-2" data-name="Layer 1"><rect class="cls-1" x="0.77" y="5.17" width="875.62" height="365.92"/><path class="cls-2" d="M457.87,21.51,572.8,164.22a25.45,25.45,0,0,1,.78,30.93L455.77,357.45a13.22,13.22,0,0,0,10.7,21H719.36A13.2,13.2,0,0,0,730.08,373l128.29-177.8a25.47,25.47,0,0,0-.84-30.89L728.83,4.91A13.24,13.24,0,0,0,718.55,0H468.16A13.22,13.22,0,0,0,457.87,21.51Z"/><path class="cls-3" d="M447.89,26,559,164a24.6,24.6,0,0,1,.75,29.9L445.86,350.8a12.79,12.79,0,0,0,10.35,20.29H700.73a12.78,12.78,0,0,0,10.37-5.3l124-171.92a24.61,24.61,0,0,0-.81-29.87L709.89,9.92A12.8,12.8,0,0,0,700,5.17H457.85A12.78,12.78,0,0,0,447.89,26Z"/><rect class="cls-3" y="5.17" width="678.28" height="365.92"/><text class="cls-4" transform="translate(328.4 208.3)">Ma<tspan class="cls-5" x="84.43" y="0">k</tspan><tspan x="116.66" y="0">e it happen</tspan></text><path class="cls-6" d="M206.84,259.92a73,73,0,1,0-73-73,73,73,0,0,0,73,73"/><rect class="cls-3" x="218.95" y="126.03" width="92.52" height="42.43" transform="translate(-26.44 230.66) rotate(-45)"/><path class="cls-2" d="M207.71,221.28a2.88,2.88,0,0,1-2-.78L170,184.77a2.78,2.78,0,0,1,0-4L183.78,167a2.79,2.79,0,0,1,3.95,0l19.94,19.93,70.61-70.61a2.79,2.79,0,0,1,4,0l13.82,13.81a2.84,2.84,0,0,1,.82,2,2.79,2.79,0,0,1-.82,2l-86.33,86.32A2.89,2.89,0,0,1,207.71,221.28ZM175.89,182.8l31.78,31.78,33.17-33.18h0l49.29-49.28-9.88-9.87-70.61,70.61a2.79,2.79,0,0,1-3.95,0l-19.93-19.93Z"/></g></g></svg>