<svg xmlns="http://www.w3.org/2000/svg" viewBox="0 0 876.29 378.44"><defs><style>.cls-1{fill:#ed0677;}.cls-2,.cls-4{fill:#fff;}.cls-3{fill:#ffc709;}.cls-4{font-size:60px;font-family:Roboto-Black, Roboto;font-weight:800;}.cls-5{letter-spacing:-0.01em;}.cls-6{fill:none;stroke:#fff;stroke-miterlimit:10;stroke-width:5.06px;}</style></defs><title>Asset 26</title><g id="Layer_2" data-name="Layer 2"><g id="Layer_1-2" data-name="Layer 1"><rect class="cls-1" x="0.67" y="5.17" width="875.62" height="365.92"/><path class="cls-2" d="M458.09,21.51,573,164.22a25.47,25.47,0,0,1,.77,30.93L456,357.45a13.22,13.22,0,0,0,10.7,21H719.58A13.2,13.2,0,0,0,730.3,373l128.29-177.8a25.47,25.47,0,0,0-.84-30.89L729.05,4.91A13.24,13.24,0,0,0,718.77,0H468.39A13.22,13.22,0,0,0,458.09,21.51Z"/><path class="cls-3" d="M447.56,26,558.69,164a24.6,24.6,0,0,1,.75,29.9L445.53,350.8a12.79,12.79,0,0,0,10.35,20.29H700.4a12.79,12.79,0,0,0,10.37-5.3l124-171.92A24.61,24.61,0,0,0,834,164L709.56,9.92a12.8,12.8,0,0,0-9.94-4.75H457.52A12.78,12.78,0,0,0,447.56,26Z"/><rect class="cls-3" y="4.84" width="678.28" height="366.3"/><text class="cls-4" transform="translate(446.83 211.69)">Be sa<tspan class="cls-5" x="148.89" y="0">f</tspan><tspan x="169.92" y="0">e</tspan></text><path class="cls-6" d="M321.35,267.17a79,79,0,1,0-79-79,79,79,0,0,0,79,79"/><path class="cls-2" d="M267.19,194.21a7.09,7.09,0,1,1,14.17,0,7.17,7.17,0,0,1-7.19,7.34c-4.29,0-7-3.41-7-7.39m-8.28,14.42h8.23v-3h.1c1.09,2.07,4.19,4,8.22,4,7.29,0,14.48-5.18,14.48-15.52,0-10.86-8.12-15.15-14.12-15.15a11.11,11.11,0,0,0-8.32,3.26V170.37h-8.59Z"/><path class="cls-2" d="M361,192.4a11.1,11.1,0,0,1,11-9,11.26,11.26,0,0,1,10.81,9Zm25.6,3.46c-.1-4.08-.67-7.39-3.31-10.65A14.74,14.74,0,1,0,372,209.31a15,15,0,0,0,13.75-9.88h-4a11.09,11.09,0,0,1-10.14,6.2c-5.22,0-10.44-4.39-10.65-9.77Zm-39,12.77h3.82V183.81h7v-3.46h-7v-.57c0-4,2.33-5.9,6.26-5.9h.72v-3.46h-.72c-6.2.05-10.34,3.57-10.08,9.93h-4.4v3.46h4.4ZM326.45,183.4a11,11,0,0,1,11.06,11.27,11.16,11.16,0,0,1-11,11c-6.05,0-11.43-4.81-11.43-11a11.26,11.26,0,0,1,11.33-11.22m14.74-3.05h-3.68v5.38h-.1c-2-4-6.52-6-11-6a14.76,14.76,0,0,0-11.07,4.65,14.32,14.32,0,0,0-4.08,9.93,15.05,15.05,0,0,0,2.79,9,16.66,16.66,0,0,0,12.46,6c4.45,0,8.79-2,10.86-6h.1v5.32h3.68Zm-49.13,20a8.69,8.69,0,0,0,8.58,9c5.28,0,9.16-3.68,9.16-9,0-5.12-3.67-6.93-7.91-8.28-2.49-.77-5-1.6-5-4.7a3.93,3.93,0,0,1,3.93-3.93c2.48,0,4.4,1.5,4.4,4h3.82a7.83,7.83,0,0,0-7.8-7.65,7.94,7.94,0,0,0-8.18,7.91,7.24,7.24,0,0,0,2.28,5.38,12.54,12.54,0,0,0,5.12,2.48c2.79.77,5.48,2,5.48,5.43a4.71,4.71,0,0,1-5,4.7,5.14,5.14,0,0,1-5.12-5.32Z"/></g></g></svg>