<svg xmlns="http://www.w3.org/2000/svg" viewBox="0 0 875.62 327.24"><defs><style>.cls-1{fill:#006ec7;}.cls-2{fill:#fff;}.cls-3{fill:#fcd217;}</style></defs><title>Asset 9</title><g id="Layer_2" data-name="Layer 2"><g id="Layer_1-2" data-name="Layer 1"><rect class="cls-1" width="875.62" height="327.24"/><path class="cls-2" d="M284.08,84.31h-6.85v19h-2.8v-19h-6.84V82h16.49Z"/><path class="cls-2" d="M289.53,89.41a5.77,5.77,0,0,1,4.69-2.21q5,0,5.07,5.67v10.47h-2.71V92.85a3.64,3.64,0,0,0-.79-2.53,3.12,3.12,0,0,0-2.39-.82,3.93,3.93,0,0,0-2.32.7,4.76,4.76,0,0,0-1.55,1.85v11.29h-2.71V80.84h2.71Z"/><path class="cls-2" d="M303.36,83.29a1.64,1.64,0,0,1,.4-1.12,1.53,1.53,0,0,1,1.2-.45,1.56,1.56,0,0,1,1.2.45,1.65,1.65,0,0,1,.41,1.12A1.45,1.45,0,0,1,305,84.82a1.44,1.44,0,0,1-1.6-1.53Zm2.93,20h-2.71V87.49h2.71Z"/><path class="cls-2" d="M319.85,99.14a2,2,0,0,0-.83-1.71,8.16,8.16,0,0,0-2.88-1.05,13.67,13.67,0,0,1-3.27-1,4.71,4.71,0,0,1-1.79-1.47,3.53,3.53,0,0,1-.57-2,4.09,4.09,0,0,1,1.65-3.29,6.41,6.41,0,0,1,4.21-1.35,6.62,6.62,0,0,1,4.37,1.39,4.41,4.41,0,0,1,1.68,3.56h-2.73a2.45,2.45,0,0,0-.94-1.92,3.54,3.54,0,0,0-2.38-.81,3.72,3.72,0,0,0-2.32.65,2,2,0,0,0-.83,1.68,1.65,1.65,0,0,0,.77,1.48,9.59,9.59,0,0,0,2.81,1,14.55,14.55,0,0,1,3.29,1.08A4.66,4.66,0,0,1,322,96.79a3.69,3.69,0,0,1,.61,2.16,4,4,0,0,1-1.7,3.4,7.08,7.08,0,0,1-4.41,1.28,8,8,0,0,1-3.37-.67,5.55,5.55,0,0,1-2.29-1.88,4.57,4.57,0,0,1-.83-2.62h2.71a2.81,2.81,0,0,0,1.1,2.16,4.15,4.15,0,0,0,2.68.8,4.41,4.41,0,0,0,2.47-.62A1.92,1.92,0,0,0,319.85,99.14Z"/><path class="cls-2" d="M338.71,99.37l3.69-11.88h2.9l-6.38,18.3q-1.47,3.94-4.7,3.95l-.51,0-1-.19v-2.2l.73.06a3.64,3.64,0,0,0,2.15-.56,4,4,0,0,0,1.26-2l.61-1.62-5.66-15.67h3Z"/><path class="cls-2" d="M354.1,103.63a6.9,6.9,0,0,1-5.24-2.11,7.85,7.85,0,0,1-2-5.66v-.5a9.34,9.34,0,0,1,.91-4.21,7,7,0,0,1,2.52-2.91,6.34,6.34,0,0,1,3.5-1,6,6,0,0,1,4.81,2,8.83,8.83,0,0,1,1.71,5.83v1.13H349.54a5.67,5.67,0,0,0,1.37,3.79,4.33,4.33,0,0,0,3.34,1.44,4.75,4.75,0,0,0,2.43-.58,6.27,6.27,0,0,0,1.74-1.56l1.66,1.29A6.66,6.66,0,0,1,354.1,103.63Zm-.34-14.21a3.6,3.6,0,0,0-2.75,1.2A5.83,5.83,0,0,0,349.63,94h7.94v-.21a5.19,5.19,0,0,0-1.11-3.2A3.4,3.4,0,0,0,353.76,89.42Z"/><path class="cls-2" d="M373.2,103.34a6,6,0,0,1-.38-1.67,6,6,0,0,1-4.51,2,5.62,5.62,0,0,1-3.85-1.32A4.31,4.31,0,0,1,363,99a4.5,4.5,0,0,1,1.88-3.85,8.93,8.93,0,0,1,5.3-1.37h2.64V92.49a3.08,3.08,0,0,0-.85-2.27,3.43,3.43,0,0,0-2.51-.84,4,4,0,0,0-2.43.73,2.17,2.17,0,0,0-1,1.78h-2.72a3.75,3.75,0,0,1,.84-2.3,5.8,5.8,0,0,1,2.28-1.75,7.68,7.68,0,0,1,3.17-.64,6.26,6.26,0,0,1,4.3,1.37,5,5,0,0,1,1.61,3.77v7.29a9,9,0,0,0,.55,3.48v.23Zm-4.49-2.06a4.75,4.75,0,0,0,2.41-.66,4,4,0,0,0,1.66-1.72V95.65h-2.13q-5,0-5,2.92a2.5,2.5,0,0,0,.85,2A3.28,3.28,0,0,0,368.71,101.28Z"/><path class="cls-2" d="M387.4,89.92a8,8,0,0,0-1.34-.1,3.57,3.57,0,0,0-3.61,2.27v11.25h-2.71V87.49h2.63l.05,1.83a4.21,4.21,0,0,1,3.78-2.12,2.92,2.92,0,0,1,1.2.2Z"/><path class="cls-2" d="M403.67,101.42a3.91,3.91,0,0,0,2.54-.88,3.1,3.1,0,0,0,1.2-2.19H410a4.91,4.91,0,0,1-.94,2.59,6.13,6.13,0,0,1-2.3,2,6.66,6.66,0,0,1-3.06.73,6.54,6.54,0,0,1-5.15-2.16,8.62,8.62,0,0,1-1.91-5.91v-.45a9.51,9.51,0,0,1,.85-4.12,6.54,6.54,0,0,1,2.44-2.8,7,7,0,0,1,3.76-1,6.39,6.39,0,0,1,4.43,1.59A5.76,5.76,0,0,1,410,92.94h-2.56a3.74,3.74,0,0,0-1.17-2.53,3.62,3.62,0,0,0-2.58-1,3.78,3.78,0,0,0-3.2,1.49,7,7,0,0,0-1.14,4.3v.51a6.84,6.84,0,0,0,1.13,4.22A3.79,3.79,0,0,0,403.67,101.42Z"/><path class="cls-2" d="M412.3,95.27a9.37,9.37,0,0,1,.91-4.19,6.8,6.8,0,0,1,2.55-2.87,6.89,6.89,0,0,1,3.73-1,6.66,6.66,0,0,1,5.24,2.24,8.63,8.63,0,0,1,2,6v.19a9.44,9.44,0,0,1-.89,4.15,6.73,6.73,0,0,1-2.53,2.87,7.05,7.05,0,0,1-3.79,1,6.64,6.64,0,0,1-5.22-2.24,8.58,8.58,0,0,1-2-5.93Zm2.72.32a6.73,6.73,0,0,0,1.23,4.23,4.14,4.14,0,0,0,6.55,0A7.41,7.41,0,0,0,424,95.27,6.81,6.81,0,0,0,422.78,91a4.12,4.12,0,0,0-6.53,0A7.38,7.38,0,0,0,415,95.59Z"/><path class="cls-2" d="M432.69,87.49l.09,2a5.77,5.77,0,0,1,4.74-2.28q5,0,5.07,5.67v10.47h-2.71V92.85a3.64,3.64,0,0,0-.78-2.53,3.14,3.14,0,0,0-2.4-.82,3.88,3.88,0,0,0-2.31.7,4.67,4.67,0,0,0-1.55,1.85v11.29h-2.71V87.49Z"/><path class="cls-2" d="M450.36,83.65v3.84h2.95v2.1h-2.95v9.84a2.24,2.24,0,0,0,.39,1.43,1.68,1.68,0,0,0,1.35.47,6.32,6.32,0,0,0,1.29-.17v2.18a7.72,7.72,0,0,1-2.08.29,3.35,3.35,0,0,1-2.74-1.1,4.68,4.68,0,0,1-.92-3.12V89.59h-2.89v-2.1h2.89V83.65Z"/><path class="cls-2" d="M466.26,103.34a6,6,0,0,1-.38-1.67,6,6,0,0,1-4.51,2,5.6,5.6,0,0,1-3.84-1.32A4.28,4.28,0,0,1,456,99a4.48,4.48,0,0,1,1.89-3.85,8.88,8.88,0,0,1,5.29-1.37h2.64V92.49a3,3,0,0,0-.85-2.27,3.43,3.43,0,0,0-2.51-.84,4,4,0,0,0-2.43.73,2.17,2.17,0,0,0-1,1.78h-2.72a3.75,3.75,0,0,1,.84-2.3,5.8,5.8,0,0,1,2.28-1.75,7.72,7.72,0,0,1,3.18-.64,6.25,6.25,0,0,1,4.29,1.37,5,5,0,0,1,1.61,3.77v7.29a8.78,8.78,0,0,0,.56,3.48v.23Zm-4.49-2.06a4.73,4.73,0,0,0,2.41-.66,3.92,3.92,0,0,0,1.66-1.72V95.65h-2.13q-5,0-5,2.92a2.5,2.5,0,0,0,.85,2A3.28,3.28,0,0,0,461.77,101.28Z"/><path class="cls-2" d="M472.81,83.29a1.69,1.69,0,0,1,.4-1.12,1.83,1.83,0,0,1,2.4,0,1.65,1.65,0,0,1,.41,1.12,1.58,1.58,0,0,1-.41,1.1,1.89,1.89,0,0,1-2.4,0A1.62,1.62,0,0,1,472.81,83.29Zm2.93,20H473V87.49h2.71Z"/><path class="cls-2" d="M482.64,87.49l.09,2a5.77,5.77,0,0,1,4.74-2.28q5,0,5.07,5.67v10.47h-2.71V92.85a3.64,3.64,0,0,0-.78-2.53,3.13,3.13,0,0,0-2.4-.82,3.9,3.9,0,0,0-2.31.7,4.76,4.76,0,0,0-1.55,1.85v11.29h-2.71V87.49Z"/><path class="cls-2" d="M503.21,103.63a6.94,6.94,0,0,1-5.25-2.11,7.89,7.89,0,0,1-2-5.66v-.5a9.47,9.47,0,0,1,.9-4.21,7,7,0,0,1,2.52-2.91,6.4,6.4,0,0,1,3.51-1,5.94,5.94,0,0,1,4.8,2,8.78,8.78,0,0,1,1.72,5.83v1.13H498.65A5.67,5.67,0,0,0,500,100a4.31,4.31,0,0,0,3.33,1.44,4.76,4.76,0,0,0,2.44-.58,6.27,6.27,0,0,0,1.74-1.56l1.65,1.29A6.64,6.64,0,0,1,503.21,103.63Zm-.34-14.21a3.6,3.6,0,0,0-2.75,1.2A5.7,5.7,0,0,0,498.74,94h7.94v-.21a5.19,5.19,0,0,0-1.11-3.2A3.42,3.42,0,0,0,502.87,89.42Z"/><path class="cls-2" d="M520.18,89.92a7.9,7.9,0,0,0-1.33-.1,3.58,3.58,0,0,0-3.62,2.27v11.25h-2.71V87.49h2.64l0,1.83A4.23,4.23,0,0,1,519,87.2a2.86,2.86,0,0,1,1.2.2Z"/><path class="cls-2" d="M531.9,99.14a2,2,0,0,0-.82-1.71,8.31,8.31,0,0,0-2.89-1.05,13.67,13.67,0,0,1-3.27-1,4.6,4.6,0,0,1-1.78-1.47,3.46,3.46,0,0,1-.58-2,4.09,4.09,0,0,1,1.65-3.29,6.41,6.41,0,0,1,4.21-1.35,6.62,6.62,0,0,1,4.37,1.39,4.41,4.41,0,0,1,1.68,3.56h-2.73a2.45,2.45,0,0,0-.94-1.92,3.54,3.54,0,0,0-2.38-.81,3.72,3.72,0,0,0-2.32.65,2,2,0,0,0-.83,1.68,1.65,1.65,0,0,0,.77,1.48,9.59,9.59,0,0,0,2.81,1,14.55,14.55,0,0,1,3.29,1.08A4.66,4.66,0,0,1,534,96.79a3.69,3.69,0,0,1,.61,2.16,4,4,0,0,1-1.7,3.4,7.08,7.08,0,0,1-4.41,1.28,7.94,7.94,0,0,1-3.36-.67,5.51,5.51,0,0,1-2.3-1.88,4.56,4.56,0,0,1-.82-2.62h2.71a2.77,2.77,0,0,0,1.09,2.16,4.17,4.17,0,0,0,2.68.8,4.41,4.41,0,0,0,2.47-.62A1.92,1.92,0,0,0,531.9,99.14Z"/><path class="cls-2" d="M559.6,99.61l3-12.12h2.71l-4.61,15.85h-2.2l-3.85-12-3.75,12h-2.2l-4.6-15.85h2.69L550,99.36l3.7-11.87h2.18Z"/><path class="cls-2" d="M574.69,103.63a6.9,6.9,0,0,1-5.24-2.11,7.84,7.84,0,0,1-2-5.66v-.5a9.47,9.47,0,0,1,.9-4.21,7,7,0,0,1,2.52-2.91,6.34,6.34,0,0,1,3.5-1,6,6,0,0,1,4.81,2,8.83,8.83,0,0,1,1.71,5.83v1.13H570.14A5.61,5.61,0,0,0,571.5,100a4.33,4.33,0,0,0,3.34,1.44,4.73,4.73,0,0,0,2.43-.58A6.27,6.27,0,0,0,579,99.28l1.66,1.29A6.66,6.66,0,0,1,574.69,103.63Zm-.34-14.21a3.6,3.6,0,0,0-2.75,1.2A5.83,5.83,0,0,0,570.22,94h7.94v-.21a5.19,5.19,0,0,0-1.11-3.2A3.39,3.39,0,0,0,574.35,89.42Z"/><path class="cls-2" d="M591.67,89.92a8,8,0,0,0-1.33-.1,3.57,3.57,0,0,0-3.62,2.27v11.25H584V87.49h2.63l.05,1.83a4.23,4.23,0,0,1,3.78-2.12,2.86,2.86,0,0,1,1.2.2Z"/><path class="cls-2" d="M600.46,103.63a6.94,6.94,0,0,1-5.25-2.11,7.89,7.89,0,0,1-2-5.66v-.5a9.47,9.47,0,0,1,.9-4.21,7,7,0,0,1,2.52-2.91,6.4,6.4,0,0,1,3.51-1,6,6,0,0,1,4.81,2,8.83,8.83,0,0,1,1.71,5.83v1.13H595.9a5.67,5.67,0,0,0,1.37,3.79,4.32,4.32,0,0,0,3.33,1.44,4.76,4.76,0,0,0,2.44-.58,6.27,6.27,0,0,0,1.74-1.56l1.65,1.29A6.64,6.64,0,0,1,600.46,103.63Zm-.34-14.21a3.6,3.6,0,0,0-2.75,1.2A5.76,5.76,0,0,0,596,94h7.94v-.21a5.19,5.19,0,0,0-1.11-3.2A3.42,3.42,0,0,0,600.12,89.42Z"/><path class="cls-2" d="M335.11,168.77a13.57,13.57,0,0,1-11.29,5.35c-4.64,0-8.14-1.35-10.53-4s-3.57-6.57-3.57-11.62V131.07h13.16v27.47q0,5.43,5.28,5.43,4.53,0,6.44-3.25V131.07h13.24v42.27H335.5Z"/><path class="cls-2" d="M394.29,152.52q0,9.84-4.43,15.72a14.23,14.23,0,0,1-12,5.88,12.18,12.18,0,0,1-9.57-4.26v19.73H355.15V131.07h12.3l.39,3.91a12.21,12.21,0,0,1,10-4.69q7.81,0,12.15,5.77t4.34,15.84Zm-13.17-.82q0-11.25-6.56-11.25c-3.12,0-5.21,1.12-6.25,3.36v16.64c1.15,2.34,3.26,3.52,6.33,3.52q6.28,0,6.48-10.86Z"/><path class="cls-3" d="M449,173.34H435.77v-42l-13,3.79v-10l25-8.63H449Z"/><path class="cls-3" d="M495.3,173.34H482.1v-42l-13,3.79v-10l25-8.63h1.21Z"/><path class="cls-3" d="M512.49,127.4a11.17,11.17,0,0,1,3.44-8.51q3.44-3.24,9.22-3.24t9.26,3.22a11.48,11.48,0,0,1,3.39,8.73v2.81a11.13,11.13,0,0,1-3.39,8.48q-3.4,3.2-9.18,3.2a13.2,13.2,0,0,1-9.24-3.18,11.24,11.24,0,0,1-3.5-8.73Zm8.48,3a4.74,4.74,0,0,0,1.13,3.28,4,4,0,0,0,3.13,1.26q4.1,0,4.1-5.2v-2.33a5,5,0,0,0-1.1-3.32,3.82,3.82,0,0,0-3.08-1.3,3.88,3.88,0,0,0-3,1.27,5,5,0,0,0-1.13,3.43Zm6.76,38.68L521.59,166l27.78-44.46,6.13,3.09Zm11.79-9.68a11.08,11.08,0,0,1,3.46-8.52,13,13,0,0,1,9.2-3.2q5.82,0,9.26,3.16t3.43,8.83v2.73a11.18,11.18,0,0,1-3.39,8.52q-3.4,3.2-9.22,3.2a13.2,13.2,0,0,1-9.24-3.18,11.21,11.21,0,0,1-3.5-8.73Zm8.44,3a4.65,4.65,0,0,0,1.25,3.21,4,4,0,0,0,3,1.37q3.78,0,4.1-3.57l0-4a4.78,4.78,0,0,0-1.13-3.31,4.4,4.4,0,0,0-6.1-.08,4.74,4.74,0,0,0-1.21,3.2Z"/><path class="cls-2" d="M127.26,219.61l3-12.12H133l-4.62,15.85h-2.19l-3.86-12-3.75,12h-2.19l-4.6-15.85h2.69l3.12,11.87,3.69-11.87h2.19Z"/><path class="cls-2" d="M135.79,203.29a1.64,1.64,0,0,1,.4-1.12,1.81,1.81,0,0,1,2.39,0,1.61,1.61,0,0,1,.42,1.12,1.54,1.54,0,0,1-.42,1.1,1.6,1.6,0,0,1-2.79-1.1Zm2.93,20.05H136V207.49h2.71Z"/><path class="cls-2" d="M146.73,203.65v3.84h3v2.1h-3v9.84a2.24,2.24,0,0,0,.39,1.43,1.71,1.71,0,0,0,1.35.47,6.24,6.24,0,0,0,1.29-.17v2.18a7.61,7.61,0,0,1-2.08.29,3.36,3.36,0,0,1-2.74-1.1,4.74,4.74,0,0,1-.92-3.12v-9.82h-2.89v-2.1H144v-3.84Z"/><path class="cls-2" d="M155.56,209.41a5.78,5.78,0,0,1,4.69-2.21q5,0,5.07,5.67v10.47h-2.71V212.85a3.64,3.64,0,0,0-.78-2.53,3.16,3.16,0,0,0-2.4-.82,3.88,3.88,0,0,0-2.31.7,4.7,4.7,0,0,0-1.56,1.85v11.29h-2.71v-22.5h2.71Z"/><path class="cls-2" d="M186.91,214a6.67,6.67,0,0,1-2,1.62,5.52,5.52,0,0,1-2.58.62,5.74,5.74,0,0,1-3.22-.91,6,6,0,0,1-2.12-2.56,9.44,9.44,0,0,1,.07-7.49,5.92,5.92,0,0,1,2.31-2.62,6.52,6.52,0,0,1,3.48-.91,6,6,0,0,1,5,2.36,10.31,10.31,0,0,1,1.82,6.46v.79q0,6.22-2.46,9.09t-7.42,2.94h-.53v-2.3h.57a7.5,7.5,0,0,0,5.16-1.75Q186.75,217.62,186.91,214Zm-4.17,0a4.19,4.19,0,0,0,2.51-.84,5,5,0,0,0,1.67-2.06V210a7.43,7.43,0,0,0-1.15-4.33,3.44,3.44,0,0,0-2.93-1.67,3.48,3.48,0,0,0-2.87,1.36,5.64,5.64,0,0,0-1.09,3.62,5.86,5.86,0,0,0,1.05,3.59A3.33,3.33,0,0,0,182.74,214Z"/><path class="cls-2" d="M197.31,211.36h2a4.47,4.47,0,0,0,3-1,3.36,3.36,0,0,0,1.1-2.65q0-3.75-3.73-3.75a3.9,3.9,0,0,0-2.81,1,3.5,3.5,0,0,0-1,2.66h-2.71A5.43,5.43,0,0,1,195,203.4a6.73,6.73,0,0,1,4.71-1.68,6.64,6.64,0,0,1,4.73,1.6,5.76,5.76,0,0,1,1.71,4.43,4.7,4.7,0,0,1-.9,2.7,5.45,5.45,0,0,1-2.45,2,4.93,4.93,0,0,1,3.68,5,5.82,5.82,0,0,1-1.88,4.56,7,7,0,0,1-4.88,1.68,7.2,7.2,0,0,1-4.88-1.62,5.4,5.4,0,0,1-1.89-4.29h2.73a3.48,3.48,0,0,0,1.1,2.69,4.87,4.87,0,0,0,5.95,0,4,4,0,0,0,1-3,3.58,3.58,0,0,0-1.15-2.85,4.94,4.94,0,0,0-3.29-1h-2Z"/><path class="cls-2" d="M210.41,227.59l-1.54-1.06a7,7,0,0,0,1.43-3.95v-2.45H213v2.13a6.76,6.76,0,0,1-.73,3A7,7,0,0,1,210.41,227.59Z"/><path class="cls-2" d="M229,207.58a5,5,0,0,1-.84,2.84,5.79,5.79,0,0,1-2.28,2,6.18,6.18,0,0,1,2.64,2.09,5.28,5.28,0,0,1,1,3.12,5.58,5.58,0,0,1-1.87,4.41,8.18,8.18,0,0,1-9.84,0,5.57,5.57,0,0,1-1.86-4.4,5.44,5.44,0,0,1,.95-3.12,6,6,0,0,1,2.61-2.11,5.51,5.51,0,0,1-2.24-1.94,5,5,0,0,1-.82-2.83,5.53,5.53,0,0,1,1.73-4.28,7.34,7.34,0,0,1,9.1,0A5.5,5.5,0,0,1,229,207.58Zm-2.21,9.95a3.92,3.92,0,0,0-1.14-2.92,4,4,0,0,0-3-1.13,3.83,3.83,0,0,0-4,4.05,3.76,3.76,0,0,0,1.08,2.85,4.8,4.8,0,0,0,6,0A3.72,3.72,0,0,0,226.83,217.53ZM222.75,204a3.52,3.52,0,0,0-2.58,1,3.64,3.64,0,0,0-1,2.69,3.6,3.6,0,0,0,1,2.63,3.86,3.86,0,0,0,5.21,0,4,4,0,0,0,0-5.28A3.47,3.47,0,0,0,222.75,204Z"/><path class="cls-2" d="M244.39,216.18h3v2.21h-3v5h-2.72v-5H232v-1.6L241.5,202h2.89Zm-9.36,0h6.64V205.72l-.33.58Z"/><path class="cls-2" d="M260.43,202v2.3h-.5a7.14,7.14,0,0,0-5,1.87,7.78,7.78,0,0,0-2.16,5.11,5.8,5.8,0,0,1,4.6-1.93,5.55,5.55,0,0,1,4.44,2,8.63,8.63,0,0,1-.13,10.35,6.21,6.21,0,0,1-4.81,2,6.09,6.09,0,0,1-5-2.35,9.28,9.28,0,0,1-1.9-6.05v-1c0-3.93.83-6.93,2.51-9s4.17-3.13,7.48-3.18Zm-3.56,9.61a4.55,4.55,0,0,0-4.19,2.93v1a7,7,0,0,0,1.19,4.25,3.54,3.54,0,0,0,3,1.61,3.45,3.45,0,0,0,2.88-1.35,6.49,6.49,0,0,0,0-7.08A3.41,3.41,0,0,0,256.87,211.61Z"/><path class="cls-2" d="M288.92,204.31h-6.85v19h-2.8v-19h-6.84V202h16.49Z"/><path class="cls-2" d="M304.86,219.61l3.05-12.12h2.71L306,223.34h-2.2l-3.85-12-3.75,12H294l-4.59-15.85h2.69l3.12,11.87,3.69-11.87h2.18Z"/><path class="cls-2" d="M320,223.63a6.94,6.94,0,0,1-5.25-2.11,7.89,7.89,0,0,1-2-5.66v-.5a9.47,9.47,0,0,1,.9-4.21,7,7,0,0,1,2.52-2.91,6.4,6.4,0,0,1,3.51-1,5.94,5.94,0,0,1,4.8,2,8.78,8.78,0,0,1,1.72,5.83v1.13H315.39a5.67,5.67,0,0,0,1.37,3.79,4.31,4.31,0,0,0,3.33,1.44,4.76,4.76,0,0,0,2.44-.58,6.27,6.27,0,0,0,1.74-1.56l1.65,1.29A6.64,6.64,0,0,1,320,223.63Zm-.34-14.21a3.6,3.6,0,0,0-2.75,1.2,5.76,5.76,0,0,0-1.38,3.35h7.94v-.21a5.19,5.19,0,0,0-1.11-3.2A3.42,3.42,0,0,0,319.61,209.42Z"/><path class="cls-2" d="M331.83,207.49l.08,2a5.8,5.8,0,0,1,4.75-2.28q5,0,5.07,5.67v10.47H339V212.85a3.64,3.64,0,0,0-.78-2.53,3.16,3.16,0,0,0-2.4-.82,3.88,3.88,0,0,0-2.31.7,4.7,4.7,0,0,0-1.56,1.85v11.29h-2.71V207.49Z"/><path class="cls-2" d="M349.49,203.65v3.84h3v2.1h-3v9.84a2.18,2.18,0,0,0,.4,1.43,1.68,1.68,0,0,0,1.35.47,6.32,6.32,0,0,0,1.29-.17v2.18a7.72,7.72,0,0,1-2.08.29,3.34,3.34,0,0,1-2.74-1.1,4.69,4.69,0,0,1-.93-3.12v-9.82H343.9v-2.1h2.88v-3.84Z"/><path class="cls-2" d="M360.8,219.37l3.69-11.88h2.9L361,225.79q-1.47,3.94-4.7,4l-.51,0-1-.19v-2.2l.73.06a3.58,3.58,0,0,0,2.14-.56,4,4,0,0,0,1.27-2l.6-1.62-5.65-15.67h3Z"/><path class="cls-2" d="M375.45,215.39H368.3v-2.22h7.15Z"/><path class="cls-2" d="M390.27,213.92h-8.95v9.42h-2.81V202h13.21v2.3h-10.4v7.31h8.95Z"/><path class="cls-2" d="M393.64,215.27a9.38,9.38,0,0,1,.92-4.19,6.8,6.8,0,0,1,2.55-2.87,6.89,6.89,0,0,1,3.73-1,6.66,6.66,0,0,1,5.23,2.24,8.58,8.58,0,0,1,2,6v.19a9.43,9.43,0,0,1-.88,4.15,6.82,6.82,0,0,1-2.54,2.87,7,7,0,0,1-3.78,1,6.67,6.67,0,0,1-5.23-2.24,8.58,8.58,0,0,1-2-5.93Zm2.73.32a6.79,6.79,0,0,0,1.22,4.23,4.15,4.15,0,0,0,6.56,0,7.42,7.42,0,0,0,1.21-4.53,6.75,6.75,0,0,0-1.24-4.23,4.11,4.11,0,0,0-6.52,0A7.38,7.38,0,0,0,396.37,215.59Z"/><path class="cls-2" d="M410.75,215.27a9.38,9.38,0,0,1,.92-4.19,6.8,6.8,0,0,1,2.55-2.87,6.89,6.89,0,0,1,3.73-1,6.66,6.66,0,0,1,5.23,2.24,8.58,8.58,0,0,1,2,6v.19a9.3,9.3,0,0,1-.89,4.15,6.73,6.73,0,0,1-2.53,2.87,7.05,7.05,0,0,1-3.79,1,6.66,6.66,0,0,1-5.22-2.24,8.58,8.58,0,0,1-2-5.93Zm2.73.32a6.73,6.73,0,0,0,1.22,4.23,4.15,4.15,0,0,0,6.56,0,7.42,7.42,0,0,0,1.21-4.53,6.75,6.75,0,0,0-1.24-4.23,4.11,4.11,0,0,0-6.52,0A7.38,7.38,0,0,0,413.48,215.59Z"/><path class="cls-2" d="M432.26,203.65v3.84h3v2.1h-3v9.84a2.24,2.24,0,0,0,.39,1.43,1.71,1.71,0,0,0,1.35.47,6.32,6.32,0,0,0,1.29-.17v2.18a7.67,7.67,0,0,1-2.08.29,3.35,3.35,0,0,1-2.74-1.1,4.68,4.68,0,0,1-.92-3.12v-9.82h-2.89v-2.1h2.89v-3.84Z"/><path class="cls-2" d="M458.29,213.48H449V221h10.74v2.3H446.23V202h13.4v2.3H449v6.87h9.25Z"/><path class="cls-2" d="M461.92,215.28a9.32,9.32,0,0,1,1.71-5.91,6.06,6.06,0,0,1,9-.28l.12-1.6h2.49v21.94h-2.71v-7.55a5.69,5.69,0,0,1-4.37,1.75,5.44,5.44,0,0,1-4.57-2.23,9.49,9.49,0,0,1-1.71-5.93Zm2.71.31a7,7,0,0,0,1.15,4.28,3.67,3.67,0,0,0,3.1,1.55,4.05,4.05,0,0,0,3.69-2.14v-7.76a4.07,4.07,0,0,0-3.66-2.1,3.68,3.68,0,0,0-3.12,1.56A7.7,7.7,0,0,0,464.63,215.59Z"/><path class="cls-2" d="M489.41,221.77a5.74,5.74,0,0,1-4.64,1.86,4.93,4.93,0,0,1-3.86-1.47,6.38,6.38,0,0,1-1.34-4.36V207.49h2.71v10.24q0,3.6,2.93,3.6,3.1,0,4.13-2.31V207.49h2.71v15.85h-2.58Z"/><path class="cls-2" d="M496.18,203.29a1.65,1.65,0,0,1,.41-1.12,1.5,1.5,0,0,1,1.19-.45,1.53,1.53,0,0,1,1.2.45,1.65,1.65,0,0,1,.41,1.12,1.58,1.58,0,0,1-.41,1.1,1.56,1.56,0,0,1-1.2.43,1.52,1.52,0,0,1-1.19-.43A1.58,1.58,0,0,1,496.18,203.29Zm2.93,20.05H496.4V207.49h2.71Z"/><path class="cls-2" d="M508.68,219.66l3.92-12.17h2.77l-5.68,15.85h-2.07l-5.74-15.85h2.77Z"/><path class="cls-2" d="M527.54,223.34a6,6,0,0,1-.38-1.67,6,6,0,0,1-4.51,2,5.6,5.6,0,0,1-3.84-1.32,4.31,4.31,0,0,1-1.5-3.36,4.47,4.47,0,0,1,1.88-3.85,8.88,8.88,0,0,1,5.29-1.37h2.64v-1.24a3,3,0,0,0-.85-2.27,3.42,3.42,0,0,0-2.5-.84,4,4,0,0,0-2.44.73,2.17,2.17,0,0,0-1,1.78h-2.72a3.75,3.75,0,0,1,.84-2.3,5.77,5.77,0,0,1,2.29-1.75,7.64,7.64,0,0,1,3.17-.64,6.25,6.25,0,0,1,4.29,1.37,5,5,0,0,1,1.61,3.77v7.29a9,9,0,0,0,.56,3.48v.23Zm-4.49-2.06a4.73,4.73,0,0,0,2.41-.66,3.92,3.92,0,0,0,1.66-1.72v-3.25H525q-5,0-5,2.92a2.47,2.47,0,0,0,.85,2A3.24,3.24,0,0,0,523.05,221.28Z"/><path class="cls-2" d="M537,223.34h-2.71v-22.5H537Z"/><path class="cls-2" d="M547.94,223.63a6.94,6.94,0,0,1-5.25-2.11,7.84,7.84,0,0,1-2-5.66v-.5a9.47,9.47,0,0,1,.9-4.21,7,7,0,0,1,2.52-2.91,6.4,6.4,0,0,1,3.51-1,5.94,5.94,0,0,1,4.8,2,8.78,8.78,0,0,1,1.72,5.83v1.13H543.38a5.62,5.62,0,0,0,1.37,3.79,4.29,4.29,0,0,0,3.33,1.44,4.7,4.7,0,0,0,2.43-.58,6.17,6.17,0,0,0,1.75-1.56l1.65,1.29A6.65,6.65,0,0,1,547.94,223.63Zm-.34-14.21a3.62,3.62,0,0,0-2.76,1.2,5.75,5.75,0,0,0-1.37,3.35h7.94v-.21a5.14,5.14,0,0,0-1.12-3.2A3.38,3.38,0,0,0,547.6,209.42Z"/><path class="cls-2" d="M559.82,207.49l.08,2a5.79,5.79,0,0,1,4.75-2.28q5,0,5.07,5.67v10.47H567V212.85a3.6,3.6,0,0,0-.79-2.53,3.12,3.12,0,0,0-2.39-.82,3.93,3.93,0,0,0-2.32.7,4.76,4.76,0,0,0-1.55,1.85v11.29h-2.71V207.49Z"/><path class="cls-2" d="M577.48,203.65v3.84h3v2.1h-3v9.84a2.18,2.18,0,0,0,.4,1.43,1.67,1.67,0,0,0,1.34.47,6.16,6.16,0,0,0,1.29-.17v2.18a7.61,7.61,0,0,1-2.08.29,3.36,3.36,0,0,1-2.74-1.1,4.74,4.74,0,0,1-.92-3.12v-9.82h-2.88v-2.1h2.88v-3.84Z"/><path class="cls-2" d="M606.47,202v14.5a6.78,6.78,0,0,1-1.9,4.94,7.58,7.58,0,0,1-5.1,2.15l-.75,0a8,8,0,0,1-5.58-1.89,6.74,6.74,0,0,1-2.11-5.2V202h2.78v14.45a4.45,4.45,0,0,0,4.91,4.87,5,5,0,0,0,3.66-1.27,4.89,4.89,0,0,0,1.26-3.59V202Z"/><path class="cls-2" d="M613.05,207.49l.09,2a5.77,5.77,0,0,1,4.74-2.28q5,0,5.07,5.67v10.47h-2.71V212.85a3.64,3.64,0,0,0-.78-2.53,3.14,3.14,0,0,0-2.4-.82,3.88,3.88,0,0,0-2.31.7,4.78,4.78,0,0,0-1.56,1.85v11.29h-2.71V207.49Z"/><path class="cls-2" d="M627.05,203.29a1.65,1.65,0,0,1,.41-1.12,1.5,1.5,0,0,1,1.19-.45,1.53,1.53,0,0,1,1.2.45,1.65,1.65,0,0,1,.41,1.12,1.58,1.58,0,0,1-.41,1.1,1.56,1.56,0,0,1-1.2.43,1.52,1.52,0,0,1-1.19-.43A1.58,1.58,0,0,1,627.05,203.29ZM630,223.34h-2.71V207.49H630Z"/><path class="cls-2" d="M638,203.65v3.84h3v2.1h-3v9.84a2.24,2.24,0,0,0,.4,1.43,1.68,1.68,0,0,0,1.35.47,6.32,6.32,0,0,0,1.29-.17v2.18a7.72,7.72,0,0,1-2.08.29,3.35,3.35,0,0,1-2.74-1.1,4.69,4.69,0,0,1-.93-3.12v-9.82H632.4v-2.1h2.88v-3.84Z"/><path class="cls-2" d="M653.35,219.14a2,2,0,0,0-.83-1.71,8.23,8.23,0,0,0-2.89-1.05,13.42,13.42,0,0,1-3.26-1,4.56,4.56,0,0,1-1.79-1.47,3.46,3.46,0,0,1-.58-2,4.09,4.09,0,0,1,1.65-3.29,6.43,6.43,0,0,1,4.21-1.35,6.6,6.6,0,0,1,4.37,1.39,4.41,4.41,0,0,1,1.68,3.56h-2.73a2.45,2.45,0,0,0-.94-1.92,3.52,3.52,0,0,0-2.38-.81,3.72,3.72,0,0,0-2.32.65,2,2,0,0,0-.83,1.68,1.63,1.63,0,0,0,.78,1.48,9.39,9.39,0,0,0,2.8,1,14.55,14.55,0,0,1,3.29,1.08,4.77,4.77,0,0,1,1.87,1.52,3.76,3.76,0,0,1,.61,2.16,4.06,4.06,0,0,1-1.7,3.4,7.12,7.12,0,0,1-4.41,1.28,8,8,0,0,1-3.37-.67,5.48,5.48,0,0,1-2.29-1.88,4.5,4.5,0,0,1-.83-2.62h2.71a2.8,2.8,0,0,0,1.09,2.16,4.18,4.18,0,0,0,2.69.8,4.45,4.45,0,0,0,2.47-.62A1.92,1.92,0,0,0,653.35,219.14Z"/><path class="cls-2" d="M666.91,214.68a22.66,22.66,0,0,1,.89-6.35,18.4,18.4,0,0,1,2.64-5.54,11.32,11.32,0,0,1,3.65-3.52l.55,1.79a11.63,11.63,0,0,0-3.5,5,21.62,21.62,0,0,0-1.51,7.54v1.25a21.76,21.76,0,0,0,2.07,9.81,11.78,11.78,0,0,0,2.95,3.9l-.55,1.66a11.68,11.68,0,0,1-3.72-3.64A20.32,20.32,0,0,1,666.91,214.68Z"/><path class="cls-2" d="M692.43,204.31h-6.86v19h-2.8v-19h-6.84V202h16.5Z"/><path class="cls-2" d="M707.65,213.48H698.4V221h10.74v2.3H695.59V202H709v2.3H698.4v6.87h9.25Z"/><path class="cls-2" d="M727.66,202v14.5a6.82,6.82,0,0,1-1.9,4.94,7.62,7.62,0,0,1-5.1,2.15l-.75,0a8,8,0,0,1-5.58-1.89,6.74,6.74,0,0,1-2.11-5.2V202H715v14.45a4.45,4.45,0,0,0,4.91,4.87,4.91,4.91,0,0,0,3.65-1.27,4.86,4.86,0,0,0,1.27-3.59V202Z"/><path class="cls-2" d="M740.9,219.14a2,2,0,0,0-.83-1.71,8.16,8.16,0,0,0-2.88-1.05,13.52,13.52,0,0,1-3.27-1,4.63,4.63,0,0,1-1.79-1.47,3.53,3.53,0,0,1-.58-2,4.09,4.09,0,0,1,1.65-3.29,6.43,6.43,0,0,1,4.21-1.35,6.63,6.63,0,0,1,4.38,1.39,4.43,4.43,0,0,1,1.67,3.56h-2.72a2.46,2.46,0,0,0-1-1.92,3.52,3.52,0,0,0-2.38-.81,3.71,3.71,0,0,0-2.31.65,2,2,0,0,0-.84,1.68,1.63,1.63,0,0,0,.78,1.48,9.5,9.5,0,0,0,2.8,1,14.38,14.38,0,0,1,3.29,1.08,4.7,4.7,0,0,1,1.87,1.52,3.69,3.69,0,0,1,.61,2.16,4.06,4.06,0,0,1-1.7,3.4,7.08,7.08,0,0,1-4.41,1.28,8,8,0,0,1-3.37-.67,5.55,5.55,0,0,1-2.29-1.88,4.57,4.57,0,0,1-.83-2.62h2.71a2.8,2.8,0,0,0,1.09,2.16,4.2,4.2,0,0,0,2.69.8,4.41,4.41,0,0,0,2.47-.62A1.92,1.92,0,0,0,740.9,219.14Z"/><path class="cls-2" d="M753.39,214.83a22.64,22.64,0,0,1-.85,6.26,18.4,18.4,0,0,1-2.63,5.53,11.49,11.49,0,0,1-3.69,3.61l-.57-1.66a11.75,11.75,0,0,0,3.62-5.37,23.28,23.28,0,0,0,1.4-8.08v-.47a24.15,24.15,0,0,0-.64-5.72,19.29,19.29,0,0,0-1.8-4.74,11.14,11.14,0,0,0-2.58-3.26l.57-1.66a11.55,11.55,0,0,1,3.68,3.58,18.46,18.46,0,0,1,2.62,5.52A23.19,23.19,0,0,1,753.39,214.83Z"/><path class="cls-2" d="M757.63,221.92a1.68,1.68,0,0,1,.42-1.17,1.58,1.58,0,0,1,1.25-.47,1.67,1.67,0,0,1,1.27.47,1.69,1.69,0,0,1,.43,1.17,1.62,1.62,0,0,1-.43,1.13,1.7,1.7,0,0,1-1.27.45,1.5,1.5,0,0,1-1.67-1.58Z"/></g></g></svg>