<svg xmlns="http://www.w3.org/2000/svg" viewBox="0 0 64.57 60.57"><defs><style>.cls-1,.cls-2{fill:none;stroke-miterlimit:10;stroke-width:1.7px;}.cls-1{stroke:#fff;}.cls-2{stroke:#fcc917;}</style></defs><title>Asset 1</title><g id="Layer_2" data-name="Layer 2"><g id="Layer_1-2" data-name="Layer 1"><path class="cls-1" d="M21.18,52.23A3.42,3.42,0,0,1,24,50.8H45c1.59,0,10.31-8.74,11.42-10A75.82,75.82,0,0,0,63.6,29.4c-.83-1.12-3.07-2-5.71-1.43s-4,2.4-5.71,5.71l-6.54,3.39"/><path class="cls-1" d="M29.34,42.24H42.19c5.71,0,5.71-7.14,0-7.14H33.62c-1.18,0-3.41-2.85-5.3-2.85H21.18c-1.92,0-4.32,1.56-5.71,2.85-2.13,2.14-5.91,5.71-5.91,5.71"/><rect class="cls-1" x="7.87" y="37.56" width="8.07" height="22.2" transform="translate(-30.92 22.67) rotate(-45)"/><path class="cls-2" d="M39.33,12.27c2.58,0,4.29-2.19,4.29-4.89V5.74C43.62,3,41.91.85,39.33.85S35.05,3,35.05,5.74V7.38C35.05,10.08,36.76,12.27,39.33,12.27Z"/><path class="cls-2" d="M53.61,15.12c2.57,0,4.28-2.19,4.28-4.89V8.6c0-2.7-1.71-4.9-4.28-4.9s-4.29,2.2-4.29,4.9v1.63C49.32,12.93,51,15.12,53.61,15.12Z"/><path class="cls-2" d="M25.06,15.12c2.58,0,4.28-2.19,4.28-4.89V8.6c0-2.7-1.7-4.9-4.28-4.9s-4.28,2.2-4.28,4.9v1.63C20.78,12.93,22.49,15.12,25.06,15.12Z"/><path class="cls-2" d="M47.9,30.82v-10c0-3.53-5.59-4.28-8.57-4.28s-8.56.75-8.56,4.28V29.4"/><path class="cls-2" d="M60.74,25.11V23.69c0-3.54-5.59-4.29-8.56-4.29a18.55,18.55,0,0,0-4.28.49"/><path class="cls-2" d="M17.92,29.4V23.69c0-3.54,5.59-4.29,8.57-4.29a18.67,18.67,0,0,1,4.28.49"/></g></g></svg>