<svg xmlns="http://www.w3.org/2000/svg" viewBox="0 0 81.31 84.1"><defs><style>.cls-1{fill:#fcc917;}.cls-2{fill:#fff;}</style></defs><title>Asset 6</title><g id="Layer_2" data-name="Layer 2"><g id="Layer_1-2" data-name="Layer 1"><path class="cls-1" d="M15.87,7h-5a1,1,0,0,1-1-1V1a1,1,0,0,1,1-1h5a1,1,0,0,1,1,1V6A1,1,0,0,1,15.87,7Zm-4-2h3V2h-3Z"/><path class="cls-1" d="M70.4,7h-5a1,1,0,0,1-1-1V1a1,1,0,0,1,1-1h5a1,1,0,0,1,1,1V6A1,1,0,0,1,70.4,7Zm-4-2h3V2h-3Z"/><path class="cls-1" d="M70.4,84.1H10.91a1,1,0,0,1-1-1V53.36a1,1,0,0,1,1-1H70.4a1,1,0,0,1,1,1V83.1A1,1,0,0,1,70.4,84.1Zm-58.5-2H69.41V54.35H11.9Z"/><path class="cls-2" d="M20.82,79.14a1,1,0,0,1-1-1V58.31a1,1,0,0,1,2,0V78.14A1,1,0,0,1,20.82,79.14Z"/><path class="cls-2" d="M25.78,79.14a1,1,0,0,1-1-1V58.31a1,1,0,0,1,2,0V78.14A1,1,0,0,1,25.78,79.14Z"/><path class="cls-2" d="M30.74,79.14a1,1,0,0,1-1-1V58.31a1,1,0,0,1,2,0V78.14A1,1,0,0,1,30.74,79.14Z"/><path class="cls-2" d="M35.7,79.14a1,1,0,0,1-1-1V58.31a1,1,0,0,1,2,0V78.14A1,1,0,0,1,35.7,79.14Z"/><path class="cls-2" d="M40.66,79.14a1,1,0,0,1-1-1V58.31a1,1,0,0,1,2,0V78.14A1,1,0,0,1,40.66,79.14Z"/><path class="cls-2" d="M45.61,79.14a1,1,0,0,1-1-1V58.31a1,1,0,0,1,2,0V78.14A1,1,0,0,1,45.61,79.14Z"/><path class="cls-2" d="M50.57,79.14a1,1,0,0,1-1-1V58.31a1,1,0,1,1,2,0V78.14A1,1,0,0,1,50.57,79.14Z"/><path class="cls-2" d="M55.53,79.14a1,1,0,0,1-1-1V58.31a1,1,0,0,1,2,0V78.14A1,1,0,0,1,55.53,79.14Z"/><path class="cls-2" d="M60.49,79.14a1,1,0,0,1-1-1V58.31a1,1,0,0,1,2,0V78.14A1,1,0,0,1,60.49,79.14Z"/><path class="cls-1" d="M15.87,59.31h-5a1,1,0,0,1-1-1v-5a1,1,0,0,1,1-1h5a1,1,0,0,1,1,1v5A1,1,0,0,1,15.87,59.31Zm-4-2h3v-3h-3Z"/><path class="cls-1" d="M70.4,59.31h-5a1,1,0,0,1-1-1v-5a1,1,0,0,1,1-1h5a1,1,0,0,1,1,1v5A1,1,0,0,1,70.4,59.31Zm-4-2h3v-3h-3Z"/><path class="cls-1" d="M10.91,54.35a1.06,1.06,0,0,1-.31-.05A1,1,0,0,1,10,53a1,1,0,0,1,.49-.57L40.21,37.59a1,1,0,0,1,.76-.05,1,1,0,0,1,.58.5,1,1,0,0,1,.05.76,1,1,0,0,1-.5.57L11.35,54.24A.87.87,0,0,1,10.91,54.35Z"/><path class="cls-1" d="M70.4,54.35a.87.87,0,0,1-.44-.11L40.21,39.37A1,1,0,0,1,39.77,38a1,1,0,0,1,.57-.5,1,1,0,0,1,.76.05L70.85,52.47a1,1,0,0,1,.49.57,1,1,0,0,1-.62,1.26A1.19,1.19,0,0,1,70.4,54.35Z"/><path class="cls-1" d="M40.65,29.56a1,1,0,0,1-.7-.29l-5-5a1,1,0,1,1,1.4-1.4l4.26,4.25,4-4V17.85a1,1,0,0,1,2,0v5.76a1,1,0,0,1-.29.7l-5,5A1,1,0,0,1,40.65,29.56Z"/><path class="cls-1" d="M35.7,24.6a1,1,0,0,1-1-1V17.85a1,1,0,0,1,2,0v5.76A1,1,0,0,1,35.7,24.6Z"/><path class="cls-1" d="M40.66,39.48a1,1,0,0,1-1-1V28.57a1,1,0,1,1,2,0v9.91A1,1,0,0,1,40.66,39.48Z"/><path class="cls-1" d="M45.61,18.85H35.7a1,1,0,1,1,0-2h9.91a1,1,0,1,1,0,2Zm0-.41h0Z"/><path class="cls-1" d="M80.32,18.85H1a1,1,0,0,1,0-2H80.32a1,1,0,0,1,0,2Zm0-.41Z"/><path class="cls-1" d="M1,18.85a1,1,0,0,1-.7-.29,1,1,0,0,1,0-1.41l9.92-9.91a1,1,0,0,1,1.4,1.4L1.7,18.56A1,1,0,0,1,1,18.85Z"/><path class="cls-1" d="M10.91,18.85a1,1,0,0,1-.7-.29L.29,8.64h0a1,1,0,0,1,0-1.4,1,1,0,0,1,1.41,0l9.91,9.91a1,1,0,0,1-.7,1.7Zm.41-1.41ZM1.4,7.53h0Z"/><path class="cls-1" d="M20.82,18.85a1,1,0,0,1-.7-.29L10.21,8.64a1,1,0,0,1,1.4-1.4l9.92,9.91a1,1,0,0,1-.71,1.7Zm-.41-.59h0Zm.82-.82h0Z"/><path class="cls-1" d="M10.91,18.85a1,1,0,0,1-.7-1.7l9.91-9.91a1,1,0,1,1,1.41,1.4l-9.92,9.92A1,1,0,0,1,10.91,18.85Zm9.5-11.32Z"/><path class="cls-1" d="M30.74,18.85a1,1,0,0,1-.7-.29L20.12,8.64h0a1,1,0,0,1,0-1.4,1,1,0,0,1,1.41,0l9.91,9.91a1,1,0,0,1-.7,1.7Zm.41-1.41Z"/><path class="cls-1" d="M20.82,18.85a1,1,0,0,1-.7-.29,1,1,0,0,1,0-1.41L30,7.24a1,1,0,1,1,1.4,1.4l-9.91,9.92A1,1,0,0,1,20.82,18.85Zm-.41-1.41Z"/><path class="cls-1" d="M40.65,18.85a1,1,0,0,1-.7-.29L30,8.64a1,1,0,0,1,1.4-1.4l9.92,9.91a1,1,0,0,1,0,1.41A1,1,0,0,1,40.65,18.85Zm.42-1.41Z"/><path class="cls-1" d="M30.74,18.85a1,1,0,0,1-.7-1.7L40,7.24a1,1,0,1,1,1.41,1.4l-9.92,9.92A1,1,0,0,1,30.74,18.85Zm-.41-1.41Z"/><path class="cls-1" d="M50.57,18.85a1,1,0,0,1-.7-.29L40,8.64h0a1,1,0,0,1,1.41-1.41l9.91,9.92a1,1,0,0,1-.7,1.7ZM51,17.44ZM41.07,7.53Z"/><path class="cls-1" d="M40.66,18.85a1,1,0,0,1-.71-1.7l9.92-9.91a1,1,0,0,1,1.4,1.4l-9.91,9.92h0A1,1,0,0,1,40.66,18.85ZM40.8,18h0Z"/><path class="cls-1" d="M60.49,18.85a1,1,0,0,1-.71-.29L49.87,8.64h0a1,1,0,0,1,1.4-1.4l9.92,9.91a1,1,0,0,1,0,1.41A1,1,0,0,1,60.49,18.85Zm.41-1.41ZM51,7.53Z"/><path class="cls-1" d="M50.57,18.85a1,1,0,0,1-.7-1.7l9.91-9.91a1,1,0,1,1,1.41,1.4l-9.92,9.92A1,1,0,0,1,50.57,18.85Z"/><path class="cls-1" d="M70.4,18.85a1,1,0,0,1-.7-.29L59.79,8.64a1,1,0,0,1,0-1.4,1,1,0,0,1,1.4,0l9.91,9.92a1,1,0,0,1-.7,1.7Zm.41-1.41Z"/><path class="cls-1" d="M60.49,18.85a1,1,0,0,1-1-1,1,1,0,0,1,.3-.71L69.7,7.24a1,1,0,1,1,1.4,1.4l-9.91,9.92h0A1,1,0,0,1,60.49,18.85Zm.41-.59ZM60.63,18h0Z"/><path class="cls-1" d="M80.32,18.85a1,1,0,0,1-.71-.29L69.7,8.64h0a1,1,0,0,1,1.4-1.4L81,17.15a1,1,0,0,1,0,1.41A1,1,0,0,1,80.32,18.85Zm.41-1.41Z"/><path class="cls-1" d="M70.4,18.85a1,1,0,0,1-.7-.29,1,1,0,0,1,0-1.41l9.91-9.91A1,1,0,1,1,81,8.64l-9.91,9.92A1,1,0,0,1,70.4,18.85ZM70,17.44Z"/><path class="cls-1" d="M80.32,8.93H1A1,1,0,0,1,1,7H80.32a1,1,0,0,1,0,2Zm0-.41Z"/><path class="cls-1" d="M40.66,41.57h-.38l-.44-.09-.15-.05-.41-.17a.61.61,0,0,1-.14-.07l-.37-.24a.52.52,0,0,1-.11-.1l-.32-.31-.1-.11L38,40s-.05-.08-.07-.13l-.18-.41s0-.1-.05-.15l-.09-.45s0-.08,0-.11v-.57s0-.08,0-.12l.09-.43c0-.05,0-.1,0-.15l.18-.42A.42.42,0,0,1,38,37l.24-.37.1-.12.31-.31a.52.52,0,0,1,.11-.1l.37-.25.13-.07.41-.18.15,0,.45-.09.11,0H41l.44.09.15,0,.41.17.14.07.37.25.12.09.31.31.1.12.25.36a.61.61,0,0,1,.07.14l.18.41a.53.53,0,0,1,0,.15l.09.44a.5.5,0,0,1,0,.12v.57a.45.45,0,0,1,0,.11l-.09.44a.83.83,0,0,1,0,.15l-.17.41a1,1,0,0,1-.08.14l-.24.37a.52.52,0,0,1-.1.11l-.3.32-.12.09-.36.25-.14.08-.41.18-.15,0-.44.1H41l-.23,0Zm-.11-2h.19l.23,0,.2-.08.18-.11.15-.15.12-.17.08-.2.06-.34V38.4l0-.23-.08-.2-.12-.18-.15-.15-.17-.12L41,37.44l-.35-.06h-.08l-.23,0-.2.08-.17.12-.15.15L39.7,38l-.09.19,0,.35v.08l0,.23.08.2.12.17.15.15.17.12.19.09Z"/></g></g></svg>