<svg xmlns="http://www.w3.org/2000/svg" viewBox="0 0 110.15 53.49"><defs><style>.cls-1,.cls-2{fill:none;stroke-linecap:round;stroke-linejoin:round;stroke-width:1.8px;}.cls-1{stroke:#231f20;}.cls-2{stroke:#fff;}</style></defs><title>Asset 2</title><g id="Layer_2" data-name="Layer 2"><g id="Layer_1-2" data-name="Layer 1"><path class="cls-1" d="M109.25,30.29S97.74,48,80.07,48H3.72L.9,43.9,14,30.29Z"/><polyline class="cls-1" points="78.16 18.15 78.16 13.53 71.12 13.53 71.12 8.43 44.4 8.43 44.4 10.86 26.65 10.86 7.7 30.29 78.16 30.29"/><polygon class="cls-1" points="84.48 30.29 89.34 24.22 28.24 24.22 22.17 30.29 84.48 30.29"/><polygon class="cls-1" points="87.88 18.15 83.02 24.22 21.08 24.22 25.94 18.15 87.88 18.15"/><rect class="cls-1" x="28.89" y="6.24" width="12.15" height="4.62"/><rect class="cls-1" x="32.53" y="2.6" width="4.86" height="3.64"/><polygon class="cls-1" points="57.76 8.43 62.62 8.43 61.89 2.6 58.49 2.6 57.76 8.43"/><line class="cls-1" x1="51.68" y1="8.43" x2="51.68" y2="0.9"/><line class="cls-1" x1="47.68" y1="8.43" x2="47.68" y2="4.67"/><rect class="cls-1" x="72.33" y="33.96" width="8.74" height="3.4"/><rect class="cls-1" x="58.24" y="33.96" width="8.74" height="3.4"/><rect class="cls-1" x="44.15" y="33.96" width="8.74" height="3.4"/><rect class="cls-1" x="30.07" y="33.96" width="8.74" height="3.4"/><rect class="cls-1" x="80.11" y="27.26" width="29.15" height="3.04"/><line class="cls-2" x1="80.11" y1="21.18" x2="78.16" y2="21.18"/><line class="cls-2" x1="74.28" y1="21.18" x2="72.33" y2="21.18"/><line class="cls-2" x1="68.45" y1="21.18" x2="66.5" y2="21.18"/><line class="cls-2" x1="62.62" y1="21.18" x2="60.67" y2="21.18"/><line class="cls-2" x1="56.79" y1="21.18" x2="54.84" y2="21.18"/><line class="cls-2" x1="50.96" y1="21.18" x2="49.01" y2="21.18"/><line class="cls-2" x1="45.13" y1="21.18" x2="43.18" y2="21.18"/><line class="cls-2" x1="39.3" y1="21.18" x2="37.35" y2="21.18"/><line class="cls-2" x1="33.47" y1="21.18" x2="31.52" y2="21.18"/><line class="cls-2" x1="74.7" y1="27.59" x2="72.76" y2="27.59"/><line class="cls-2" x1="68.87" y1="27.59" x2="66.93" y2="27.59"/><line class="cls-2" x1="63.04" y1="27.59" x2="61.1" y2="27.59"/><line class="cls-2" x1="57.21" y1="27.59" x2="55.27" y2="27.59"/><line class="cls-2" x1="51.38" y1="27.59" x2="49.44" y2="27.59"/><line class="cls-2" x1="45.55" y1="27.59" x2="43.61" y2="27.59"/><line class="cls-2" x1="39.72" y1="27.59" x2="37.78" y2="27.59"/><line class="cls-2" x1="33.89" y1="27.59" x2="31.95" y2="27.59"/><line class="cls-1" x1="100.66" y1="48.02" x2="55.75" y2="48.02"/><line class="cls-1" x1="80.7" y1="52.59" x2="35.79" y2="52.59"/></g></g></svg>