<svg xmlns="http://www.w3.org/2000/svg" viewBox="0 0 74.73 79.24"><defs><style>.cls-1{fill:#231f20;}.cls-2{fill:#fff;}</style></defs><title>Asset 5</title><g id="Layer_2" data-name="Layer 2"><g id="Layer_1-2" data-name="Layer 1"><path class="cls-1" d="M74.73,65.75H39V13.49H74.73ZM41.71,63H72V16.24H41.71Z"/><path class="cls-1" d="M66.48,32.76H47.21v-11H66.48ZM50,30H63.73v-5.5H50Z"/><rect class="cls-1" x="47.19" y="38.27" width="2.75" height="2.75"/><rect class="cls-1" x="52.69" y="38.27" width="2.75" height="2.75"/><rect class="cls-1" x="58.19" y="38.27" width="2.75" height="2.75"/><rect class="cls-1" x="63.7" y="38.27" width="2.75" height="2.75"/><rect class="cls-1" x="47.19" y="43.77" width="2.75" height="2.75"/><rect class="cls-1" x="52.69" y="43.77" width="2.75" height="2.75"/><rect class="cls-1" x="58.19" y="43.77" width="2.75" height="2.75"/><rect class="cls-1" x="63.7" y="43.77" width="2.75" height="2.75"/><rect class="cls-1" x="47.19" y="49.27" width="2.75" height="2.75"/><rect class="cls-1" x="52.69" y="49.27" width="2.75" height="2.75"/><rect class="cls-1" x="58.19" y="49.27" width="2.75" height="2.75"/><rect class="cls-1" x="63.7" y="49.27" width="2.75" height="2.75"/><rect class="cls-1" x="47.19" y="54.77" width="2.75" height="2.75"/><rect class="cls-1" x="52.69" y="54.77" width="2.75" height="2.75"/><rect class="cls-1" x="58.19" y="54.77" width="2.75" height="2.75"/><rect class="cls-1" x="63.7" y="54.77" width="2.75" height="2.75"/><polygon class="cls-1" points="13.51 13.51 1.38 13.51 1.38 10.76 10.76 10.76 10.76 1.38 13.51 1.38 13.51 13.51"/><rect class="cls-2" x="23" y="52.03" width="2.75" height="13.76"/><rect class="cls-2" x="28.5" y="47.9" width="2.75" height="17.89"/><rect class="cls-2" x="11.99" y="58.91" width="2.75" height="6.88"/><polygon class="cls-1" points="56.05 79.24 0 79.24 0 9.69 9.69 0 56.05 0 56.05 8.61 53.3 8.61 53.3 2.75 10.83 2.75 2.75 10.82 2.75 76.49 53.3 76.49 53.3 70.57 56.05 70.57 56.05 79.24"/><path class="cls-2" d="M21.63,43.26c-3.62,0-6.57-2.57-6.57-5.72h2.75c0,1.64,1.71,3,3.82,3s3.81-1.33,3.81-3c0-1.82-1.46-3-3.81-3-4.54,0-6.57-2.87-6.57-5.71,0-3.15,3-5.71,6.57-5.71s6.56,2.56,6.56,5.71H25.44c0-1.63-1.71-3-3.81-3s-3.82,1.33-3.82,3c0,1.88,1.39,3,3.82,3,3.86,0,6.56,2.35,6.56,5.71C28.19,40.69,25.24,43.26,21.63,43.26Z"/><rect class="cls-2" x="20.25" y="20.7" width="2.75" height="2.98"/><rect class="cls-2" x="20.25" y="42.74" width="2.75" height="2.98"/><rect class="cls-2" x="17.5" y="56.16" width="2.75" height="9.63"/></g></g></svg>