<svg xmlns="http://www.w3.org/2000/svg" viewBox="0 0 60.66 42.52"><defs><style>.cls-1,.cls-2{fill:none;stroke-linecap:round;stroke-linejoin:round;stroke-width:1.5px;}.cls-1{stroke:#313131;}.cls-2{stroke:#fff;}</style></defs><title>Asset 2</title><g id="Layer_2" data-name="Layer 2"><g id="Layer_1-2" data-name="Layer 1"><path class="cls-1" d="M21.52,23.73C22.15,17.52,23.77,4.37,24,3.35A4,4,0,0,1,28,.75h4.7a3.94,3.94,0,0,1,3.94,2.6c.27,1,1.82,14.17,2.45,20.38"/><path class="cls-1" d="M14.53,15.74s.55-4.48,1.61-9"/><path class="cls-1" d="M46.06,15.74s-.55-4.48-1.6-9"/><path class="cls-2" d="M48,34.09a138.06,138.06,0,0,1-17.65,1,138.06,138.06,0,0,1-17.65-1"/><path class="cls-2" d="M41.79,29.07a100.33,100.33,0,0,1-11.9.65A100.33,100.33,0,0,1,18,29.07"/><path class="cls-1" d="M23.26,4.83C16,4.83,3.47,11.44,3.47,32.76h0a10.21,10.21,0,0,0-1.81.94,2.27,2.27,0,0,0,.07,3.69c2.81,1.72,10,4.38,28.6,4.38s25.79-2.66,28.6-4.38A2.27,2.27,0,0,0,59,33.7a10.21,10.21,0,0,0-1.81-.94c0-21.32-12.54-27.93-19.78-27.93"/></g></g></svg>