<svg xmlns="http://www.w3.org/2000/svg" viewBox="0 0 33.39 44.8"><defs><style>.cls-1{fill:#231f20;}.cls-2{fill:#fff;}</style></defs><title>Asset 6</title><g id="Layer_2" data-name="Layer 2"><g id="Layer_1-2" data-name="Layer 1"><rect class="cls-1" x="5.97" y="7.62" width="15.08" height="0.98"/><rect class="cls-1" x="5.97" y="4.53" width="15.08" height="0.98"/><rect class="cls-1" x="5.97" y="15.16" width="22.3" height="0.98"/><rect class="cls-1" x="5.97" y="12.07" width="22.3" height="0.98"/><rect class="cls-2" x="5.97" y="28.19" width="22.3" height="0.98"/><rect class="cls-2" x="5.97" y="25.1" width="22.3" height="0.98"/><rect class="cls-1" x="11.02" y="35.19" width="17.24" height="0.98"/><rect class="cls-1" x="11.02" y="32.1" width="17.24" height="0.98"/><rect class="cls-1" x="5.97" y="35.19" width="3.25" height="0.98"/><rect class="cls-1" x="5.97" y="32.1" width="3.25" height="0.98"/><rect class="cls-2" x="5.97" y="21.59" width="15.35" height="0.98"/><rect class="cls-2" x="5.97" y="18.5" width="15.35" height="0.98"/><rect class="cls-2" x="23.55" y="21.59" width="4.78" height="0.98"/><rect class="cls-2" x="23.55" y="18.5" width="4.78" height="0.98"/><polygon class="cls-1" points="33.17 7.05 26.22 7.05 26.22 0.31 27.2 0.31 27.2 6.07 33.17 6.07 33.17 7.05"/><polygon class="cls-1" points="33.39 44.8 0 44.8 0 41.22 0.98 41.22 0.98 43.82 32.41 43.82 32.41 6.57 26.51 0.98 0.98 0.98 0.98 41.22 0 41.22 0 0 26.9 0 33.39 6.15 33.39 44.8"/></g></g></svg>