<svg xmlns="http://www.w3.org/2000/svg" viewBox="0 0 38.02 72.38"><defs><style>.cls-1{fill:#fcd217;}.cls-2{fill:#fff;}</style></defs><title>Asset 3</title><g id="Layer_2" data-name="Layer 2"><g id="Layer_1-2" data-name="Layer 1"><path class="cls-1" d="M19,60.93h-.06l-1.36-.06-1.91-.24-1.84-.42-1.77-.59-1.68-.76-1.59-.92-1.5-1L5.91,55.7,4.65,54.38,3.52,52.94l-1-1.54-.84-1.64L1,48,.49,46.23.16,44.36,0,41.94v-.88l.1-1.72.2-1.76L.6,35.8,1,34l.45-1.78.5-1.77L3.1,26.93l1.38-3.46.74-1.71,1.16-2.48L8,16.1,10.84,11,17.46.85l.08-.11a2.52,2.52,0,0,1,.4-.4,1.84,1.84,0,0,1,2.53.39l.09.12,3,4.28,2.86,4.53,2.4,4.15L30,16.07l1.6,3.18,1.91,4.19,1.38,3.47,1.19,3.52.5,1.78L37,34l.37,1.78.29,1.77.2,1.75L38,41.89,38,43.35l-.23,1.9-.43,1.84-.59,1.77L36,50.55,35,52.14,34,53.63,32.79,55l-1.32,1.26L30,57.4l-1.54,1-1.64.85-1.73.68-1.8.51-1.88.34-2.4.16Zm-15.34-19,0,1.23.2,1.53.34,1.48.49,1.43.62,1.35.74,1.29L7,51.43l1,1.11,1.07,1,1.16.91,1.25.8,1.32.67,1.4.54,1.45.41,1.52.27,1.9.12,1.24-.05,1.53-.2,1.49-.35,1.42-.48L26,55.57l1.28-.74,1.2-.86,1.11-1,1-1.07.9-1.16.8-1.25L33,48.19l.55-1.39L34,45.34l.26-1.51.12-1.9v-.79l-.1-1.57L34.07,38l-.26-1.61-.34-1.62-.41-1.64-1-3.32-1.22-3.31-1.39-3.27-1.12-2.4-1.56-3.08L24,12.83,19,5,16.22,9.21l-3,5-2,3.6L9.67,20.89l-1.83,4L6.53,28.21,5.41,31.54,4.94,33.2l-.41,1.65-.34,1.63-.26,1.61-.17,1.58Z"/><path class="cls-2" d="M19,72.38a1.83,1.83,0,0,1-1.83-1.83V30.46a1.83,1.83,0,1,1,3.66,0V70.55A1.83,1.83,0,0,1,19,72.38Z"/><path class="cls-2" d="M19,54.06h0a1.82,1.82,0,0,1-1.3-.54,1.82,1.82,0,0,1,0-2.58l9.16-9.16A1.83,1.83,0,0,1,30,43.07a1.78,1.78,0,0,1-.54,1.29L20.3,53.52A1.82,1.82,0,0,1,19,54.06ZM18.76,52h0Zm8.62-9.7h0Z"/><path class="cls-2" d="M19,43.75a1.79,1.79,0,0,1-1.29-.54,1.82,1.82,0,0,1-.54-1.3,1.8,1.8,0,0,1,.54-1.29l5.72-5.72a1.83,1.83,0,0,1,2.59,0,1.79,1.79,0,0,1,.54,1.3A1.83,1.83,0,0,1,26,37.49L20.3,43.21A1.81,1.81,0,0,1,19,43.75Zm-.25-2.09h0ZM24,35.4h0Z"/><path class="cls-2" d="M19,43.75a1.79,1.79,0,0,1-1.29-.54L12,37.48a1.83,1.83,0,1,1,2.59-2.58l5.72,5.72A1.83,1.83,0,0,1,19,43.75Zm.79-2.62h0Z"/><path class="cls-2" d="M19,54.06h0a1.81,1.81,0,0,1-1.29-.53L8.55,44.36A1.81,1.81,0,0,1,8,43.07a1.83,1.83,0,0,1,3.12-1.31l9.16,9.17A1.84,1.84,0,0,1,19,54.06Zm.79-2.62h0Zm-9.17-9.17h0Z"/></g></g></svg>