<svg xmlns="http://www.w3.org/2000/svg" viewBox="0 0 196.58 69.01"><defs><style>.cls-1{fill:#fcc60a;}.cls-1,.cls-2,.cls-4{fill-rule:evenodd;}.cls-2{fill:#117ec0;}.cls-3,.cls-4{fill:#fff;}</style></defs><title>Asset 1</title><g id="Layer_2" data-name="Layer 2"><g id="Layer_1-2" data-name="Layer 1"><path class="cls-1" d="M0,64.9A53.32,53.32,0,0,0,9.91,69c0-14.61,16.83-23.23,16.83-23.23l0-11.78c-.24,0-11.85,0-11.85,0S1.62,44.55,0,64.93Z"/><path class="cls-2" d="M52.66,4A51.18,51.18,0,0,0,43,0C43,14.18,26.7,22.55,26.7,22.55V34c.24,0,11.49.05,11.49,0S51.09,23.74,52.67,4Z"/><path class="cls-3" d="M34.27,58V56.7a16.12,16.12,0,0,1-2.83.31c-2.83,0-4.25-1.54-4.25-4.58s1.54-4.83,4.49-4.83a10.75,10.75,0,0,1,2.59.33V46.66a10.67,10.67,0,0,0-3.07-.59c-3.89,0-6.25,2.48-6.25,6.59,0,3.83,2,5.93,5.64,5.93A16.1,16.1,0,0,0,34.27,58"/><path class="cls-4" d="M41,53.09H37.38c0-1.64.65-2.51,1.86-2.51S41,51.25,41,53.09m2.12,1.18a8.25,8.25,0,0,0-.24-2.44,3.24,3.24,0,0,0-3.49-2.41c-2.51,0-4.09,1.83-4.09,4.82,0,2.84,1.49,4.37,4.28,4.37a17.69,17.69,0,0,0,3.12-.51V57a20.6,20.6,0,0,1-2.28.18c-2.19,0-3-.8-3-2.92Z"/><path class="cls-3" d="M52.4,58.45V52.73a3.5,3.5,0,0,0-.61-2.48,2.81,2.81,0,0,0-2.09-.87,7.74,7.74,0,0,0-2.93.75v-.56h-2v8.88h2.07V51.12a8.49,8.49,0,0,1,1.7-.21c1.37,0,1.82.52,1.82,2.08v5.46Z"/><path class="cls-3" d="M59.7,58.14V57a7.07,7.07,0,0,1-1.32.14c-1.05,0-1.4-.35-1.4-1.41V50.8H59.7V49.57H57V46.78l-2.07.76v2H53.72V50.8h1.19v5.26c0,1.82.7,2.51,2.49,2.51a9.09,9.09,0,0,0,2.3-.43"/><path class="cls-3" d="M66.48,51.46v-1.8a2.13,2.13,0,0,0-1-.21,7.42,7.42,0,0,0-2.25.78v-.66h-2v8.88h2.07V51.24a6.61,6.61,0,0,1,1.32-.16,4.07,4.07,0,0,1,1.85.38"/><path class="cls-4" d="M73,53.09H69.36c0-1.64.64-2.51,1.86-2.51S73,51.25,73,53.09m2.12,1.18a7.82,7.82,0,0,0-.25-2.44,3.23,3.23,0,0,0-3.48-2.41c-2.52,0-4.1,1.83-4.1,4.82,0,2.84,1.5,4.37,4.29,4.37a17.83,17.83,0,0,0,3.12-.51V57a20.74,20.74,0,0,1-2.29.18c-2.18,0-3-.8-3-2.92Z"/><path class="cls-4" d="M92.22,54c0,2.24-.76,3.45-2.15,3.45S87.91,56.26,87.91,54c0-2.15.78-3.36,2.15-3.36s2.16,1.18,2.16,3.38m2.17-.11c0-2.8-1.61-4.5-4.26-4.5s-4.39,1.78-4.39,4.83c0,2.76,1.63,4.46,4.26,4.46s4.39-1.79,4.39-4.79"/><path class="cls-3" d="M101.34,51.45v-1.8a2.17,2.17,0,0,0-1-.21,7.51,7.51,0,0,0-2.25.78v-.66h-2v8.88h2.06V51.23a6.61,6.61,0,0,1,1.32-.16,4.12,4.12,0,0,1,1.86.38"/><path class="cls-3" d="M107.55,58.13V57a7.05,7.05,0,0,1-1.31.14c-1.06,0-1.41-.35-1.41-1.4V50.8h2.72V49.56h-2.72V46.77l-2.06.76v8.52c0,1.82.69,2.51,2.48,2.51a9,9,0,0,0,2.3-.43"/><path class="cls-4" d="M82.89,50.45c0,1.7-.8,2.49-2.53,2.49h-1.2V48.07h1.23c1.74,0,2.5.73,2.5,2.38m2.22-.12a3.38,3.38,0,0,0-1.39-2.92c-.73-.48-1.49-.64-3.33-.64H77V58.43h2.15V54.25h1.06a6.35,6.35,0,0,0,3.06-.56,3.62,3.62,0,0,0,1.83-3.36"/><polygon class="cls-3" points="129.94 46.47 128.02 46.47 125.51 56.73 122.94 46.47 120.54 46.47 118 56.73 115.53 46.47 113.24 46.47 116.56 58.59 119.16 58.59 121.6 48.65 124.06 58.59 126.59 58.59 129.94 46.47"/><path class="cls-4" d="M136.07,53.28h-3.55c0-1.63.63-2.48,1.83-2.48s1.72.67,1.72,2.48m2.09,1.17a7.8,7.8,0,0,0-.24-2.42,3.2,3.2,0,0,0-3.45-2.38c-2.49,0-4.05,1.82-4.05,4.77s1.48,4.32,4.24,4.32a17,17,0,0,0,3.09-.5V57.16a19.63,19.63,0,0,1-2.27.17c-2.16,0-3-.78-3-2.88Z"/><rect class="cls-3" x="140" y="45.3" width="2.04" height="13.28"/><rect class="cls-3" x="144.42" y="45.3" width="2.04" height="13.28"/><path class="cls-4" d="M150.89,49.8h-2v8.79h2Zm.26-2.44c0-.73-.38-1.06-1.27-1.06s-1.27.33-1.27,1.08.39,1.1,1.27,1.1,1.27-.33,1.27-1.12"/><path class="cls-3" d="M160.84,58.59V52.92a3.5,3.5,0,0,0-.6-2.45,2.81,2.81,0,0,0-2.08-.86,7.75,7.75,0,0,0-2.9.74V49.8h-2v8.79h2V51.33a8.49,8.49,0,0,1,1.69-.21c1.35,0,1.8.52,1.8,2.06v5.41Z"/><path class="cls-4" d="M168.55,57.08a6.86,6.86,0,0,1-1.39.15c-1.6,0-2.53-1.08-2.53-3,0-2.06,1-3.22,2.77-3.22a6.46,6.46,0,0,1,1.15.1Zm2,2V49.8h-2v.36a4.4,4.4,0,0,0-1.94-.46c-2.42,0-4.19,2-4.19,4.73s1.41,4.33,3.59,4.33a6.81,6.81,0,0,0,2.49-.7v.84c0,1.64-.57,2.12-2.53,2.12a13.83,13.83,0,0,1-2.92-.36v1.27a13.15,13.15,0,0,0,3.35.54,5.48,5.48,0,0,0,2.78-.62c1-.55,1.36-1.34,1.36-2.8"/><path class="cls-3" d="M178,58.28V57.11a6.87,6.87,0,0,1-1.3.14c-1,0-1.39-.34-1.39-1.39V51H178V49.8h-2.69V47l-2,.75v2H172V51h1.19v5.2c0,1.8.68,2.49,2.45,2.49a9.34,9.34,0,0,0,2.28-.43"/><path class="cls-4" d="M185.19,54.16c0,2.21-.76,3.41-2.13,3.41s-2.14-1.15-2.14-3.43.77-3.33,2.12-3.33,2.15,1.17,2.15,3.35m2.14-.1c0-2.78-1.59-4.47-4.22-4.47s-4.34,1.77-4.34,4.79c0,2.73,1.61,4.41,4.22,4.41s4.34-1.76,4.34-4.73"/><path class="cls-3" d="M196.58,58.59V52.92a3.5,3.5,0,0,0-.6-2.45,2.81,2.81,0,0,0-2.08-.86,7.75,7.75,0,0,0-2.9.74V49.8h-2v8.79h2.05V51.33a8.32,8.32,0,0,1,1.68-.21c1.35,0,1.8.52,1.8,2.06v5.41Z"/></g></g></svg>