<svg xmlns="http://www.w3.org/2000/svg" viewBox="0 0 64.57 59.36"><defs><style>.cls-1,.cls-3{fill:#fbc817;}.cls-2{fill:#fff;}.cls-3{stroke:#fbc817;stroke-linecap:round;stroke-linejoin:round;stroke-width:1.8px;}</style></defs><title>Asset 1</title><g id="Layer_2" data-name="Layer 2"><g id="Layer_1-2" data-name="Layer 1"><path class="cls-1" d="M48.64,16.35H2.78a.94.94,0,0,1-.94-1V8.3a.94.94,0,0,1,.94-.94H23.65a.95.95,0,0,1,0,1.89H3.73v5.21h44V9.25H30a.95.95,0,0,1,0-1.89H48.64a1,1,0,0,1,1,.94v7.1A1,1,0,0,1,48.64,16.35Z"/><path class="cls-1" d="M31.85,9.25a1,1,0,0,1-1-.95V1.89H19.26V8.3a.95.95,0,1,1-1.89,0V.94A.94.94,0,0,1,18.32,0H31.85a.94.94,0,0,1,.94.94V8.3A1,1,0,0,1,31.85,9.25Z"/><path class="cls-1" d="M15,58.46a1,1,0,0,1-1-.94V49.94a.95.95,0,0,1,1.89,0v7.58A.94.94,0,0,1,15,58.46Z"/><path class="cls-2" d="M61.78,54.36H36.26a.95.95,0,1,1,0-1.89H61.78a.95.95,0,1,1,0,1.89Z"/><path class="cls-2" d="M63,48H36.26a.95.95,0,1,1,0-1.89H63A.95.95,0,1,1,63,48Z"/><path class="cls-2" d="M39.14,54.36a.94.94,0,0,1-.29-1.84A6.41,6.41,0,0,0,43.33,47a.95.95,0,0,1,1.89.09,8.24,8.24,0,0,1-5.79,7.2A1,1,0,0,1,39.14,54.36Z"/><path class="cls-2" d="M46.23,54.36a.94.94,0,0,1-.29-1.84A6.41,6.41,0,0,0,50.43,47a.95.95,0,0,1,1.89.09,8.24,8.24,0,0,1-5.8,7.2A.92.92,0,0,1,46.23,54.36Z"/><path class="cls-2" d="M53.33,54.36A.94.94,0,0,1,53,52.52,6.43,6.43,0,0,0,57.53,47a.94.94,0,1,1,1.88.09,8.22,8.22,0,0,1-5.79,7.2A1,1,0,0,1,53.33,54.36Z"/><path class="cls-2" d="M62.4,44.55H45.09a.95.95,0,0,1,0-1.89H62.4a.95.95,0,0,1,0,1.89Z"/><path class="cls-2" d="M63.62,38.21H45.09a.95.95,0,0,1,0-1.89H63.62a.95.95,0,1,1,0,1.89Z"/><path class="cls-2" d="M48,44.55a.95.95,0,0,1-.29-1.85,6.42,6.42,0,0,0,4.49-5.48.94.94,0,1,1,1.88.09,8.22,8.22,0,0,1-5.79,7.19A.93.93,0,0,1,48,44.55Z"/><path class="cls-2" d="M55.07,44.55a.95.95,0,0,1-.29-1.85,6.4,6.4,0,0,0,4.48-5.48,1,1,0,0,1,1-.9.94.94,0,0,1,.9,1,8.23,8.23,0,0,1-5.79,7.19A1,1,0,0,1,55.07,44.55Z"/><path class="cls-2" d="M19.88,29a40.06,40.06,0,0,1-6.17-.46,6.58,6.58,0,0,1-5.55-4.28A5,5,0,0,1,9.69,19l.18-.17a.94.94,0,1,1,1.21,1.45l-.1.1a3.1,3.1,0,0,0-1,3.3,4.72,4.72,0,0,0,4,3,43.05,43.05,0,0,0,25.47-4.24,4.23,4.23,0,0,0,2.61-3.67v-.73a.95.95,0,0,1,1.89,0v.73a6.13,6.13,0,0,1-3.66,5.36A45.81,45.81,0,0,1,19.88,29Z"/><path class="cls-2" d="M11.5,27.79a.95.95,0,0,1,0-1.89A4.84,4.84,0,0,0,15.56,24a3.42,3.42,0,0,0,.71-2.88,1,1,0,0,1,.63-1.19,1,1,0,0,1,1.18.63,5.3,5.3,0,0,1-1,4.56A6.8,6.8,0,0,1,11.5,27.79Z"/><path class="cls-2" d="M20.72,29a.94.94,0,0,1-.44-1.78c.14-.08,3.26-1.82,2.13-6.21a.94.94,0,0,1,1.83-.47c1.21,4.71-1.49,7.53-3.09,8.35A.86.86,0,0,1,20.72,29Z"/><path class="cls-2" d="M29.13,27.9a.93.93,0,0,1-.59-.21.94.94,0,0,1-.14-1.33,5.79,5.79,0,0,0,.94-6.1A.94.94,0,0,1,31,19.4a7.65,7.65,0,0,1-1.15,8.15A1,1,0,0,1,29.13,27.9Z"/><path class="cls-2" d="M36.26,25.86a.91.91,0,0,1-.54-.17.93.93,0,0,1-.24-1.31,4.74,4.74,0,0,0,0-5.16,1,1,0,0,1,.24-1.32,1,1,0,0,1,1.32.25,6.61,6.61,0,0,1,0,7.3A1,1,0,0,1,36.26,25.86Z"/><path class="cls-2" d="M21.16,21.43h-.25A63.59,63.59,0,0,1,13.66,21a.95.95,0,0,1,.25-1.88c.12,0,12.43,1.62,18.51-1.46a.94.94,0,1,1,.85,1.68C30.52,20.72,26.45,21.43,21.16,21.43Z"/><path class="cls-2" d="M19.88,40.1a40.06,40.06,0,0,1-6.17-.46,6.58,6.58,0,0,1-5.55-4.28,5,5,0,0,1,1.53-5.24L9.87,30a.95.95,0,0,1,1.22,1.45l-.11.1a3.1,3.1,0,0,0-1,3.3,4.75,4.75,0,0,0,4,3,43.08,43.08,0,0,0,25.47-4.25,4.23,4.23,0,0,0,2.61-3.67v-.05a3.08,3.08,0,0,0-1.74-3A.94.94,0,0,1,41,25.09c3,1.17,3,4.41,2.95,4.8a6.16,6.16,0,0,1-3.66,5.34A45.92,45.92,0,0,1,19.88,40.1Z"/><path class="cls-2" d="M11.5,38.87a.95.95,0,0,1,0-1.89A4.84,4.84,0,0,0,15.56,35a3.42,3.42,0,0,0,.71-2.88A1,1,0,0,1,16.9,31a1,1,0,0,1,1.18.63,5.33,5.33,0,0,1-1,4.57A6.82,6.82,0,0,1,11.5,38.87Z"/><path class="cls-2" d="M20.72,40.09a.92.92,0,0,1-.84-.51.94.94,0,0,1,.4-1.27c.14-.08,3.26-1.82,2.13-6.21a.94.94,0,0,1,1.83-.47c1.21,4.71-1.49,7.53-3.09,8.36A1,1,0,0,1,20.72,40.09Z"/><path class="cls-2" d="M29.13,39a.93.93,0,0,1-.59-.21.94.94,0,0,1-.14-1.33,5.79,5.79,0,0,0,.94-6.1A.94.94,0,0,1,31,30.48a7.65,7.65,0,0,1-1.15,8.15A1,1,0,0,1,29.13,39Z"/><path class="cls-2" d="M36.26,36.94a1,1,0,0,1-.54-.16,1,1,0,0,1-.24-1.32,4.75,4.75,0,0,0,0-5.16A.93.93,0,0,1,35.72,29a1,1,0,0,1,1.32.24,6.61,6.61,0,0,1,0,7.3A1,1,0,0,1,36.26,36.94Z"/><path class="cls-2" d="M21.16,32.51h-.25a64.9,64.9,0,0,1-7.25-.45.95.95,0,0,1,.25-1.88c.12,0,12.43,1.62,18.51-1.46a.94.94,0,1,1,.85,1.68C30.52,31.8,26.45,32.51,21.16,32.51Z"/><path class="cls-2" d="M19.88,51.18a40.06,40.06,0,0,1-6.17-.46,6.58,6.58,0,0,1-5.55-4.28A5,5,0,0,1,9.69,41.2L9.87,41a.94.94,0,0,1,1.33.13.93.93,0,0,1-.12,1.32l-.1.1a3.11,3.11,0,0,0-1,3.3,4.75,4.75,0,0,0,4,3,43,43,0,0,0,25.47-4.25A4.23,4.23,0,0,0,42.08,41a3.37,3.37,0,0,0-1.64-2.84.95.95,0,0,1,.86-1.69A5.3,5.3,0,0,1,44,41a6.15,6.15,0,0,1-3.66,5.36A45.78,45.78,0,0,1,19.88,51.18Z"/><path class="cls-2" d="M11.5,50a.95.95,0,0,1,0-1.89,4.86,4.86,0,0,0,4.06-1.94,3.45,3.45,0,0,0,.71-2.89,1,1,0,0,1,.63-1.18.93.93,0,0,1,1.18.62,5.33,5.33,0,0,1-1,4.57A6.82,6.82,0,0,1,11.5,50Z"/><path class="cls-2" d="M20.72,51.17a.92.92,0,0,1-.84-.51.94.94,0,0,1,.4-1.27c.14-.08,3.26-1.81,2.13-6.21a.94.94,0,0,1,1.83-.47c1.21,4.71-1.49,7.53-3.09,8.36A1,1,0,0,1,20.72,51.17Z"/><path class="cls-2" d="M29.13,50.06a.93.93,0,0,1-.59-.21.94.94,0,0,1-.14-1.33,5.8,5.8,0,0,0,.94-6.1A.94.94,0,0,1,31,41.56a7.65,7.65,0,0,1-1.15,8.15A1,1,0,0,1,29.13,50.06Z"/><path class="cls-2" d="M36.26,48a1,1,0,0,1-.54-.16,1,1,0,0,1-.24-1.32,4.75,4.75,0,0,0,0-5.16.93.93,0,0,1,.24-1.31,1,1,0,0,1,1.32.24,6.61,6.61,0,0,1,0,7.3A1,1,0,0,1,36.26,48Z"/><path class="cls-2" d="M21.16,43.59h-.25a62.2,62.2,0,0,1-7.25-.45.95.95,0,0,1,.25-1.88c.12,0,12.43,1.62,18.51-1.46a.95.95,0,1,1,.85,1.69C30.52,42.88,26.45,43.59,21.16,43.59Z"/><path class="cls-1" d="M36.26,58.46a1,1,0,0,1-.95-.94V51a.95.95,0,1,1,1.89,0v6.53A.94.94,0,0,1,36.26,58.46Z"/><line class="cls-3" x1="0.9" y1="58.46" x2="50.54" y2="58.46"/></g></g></svg>