<svg xmlns="http://www.w3.org/2000/svg" viewBox="0 0 191.87 83.9"><defs><style>.cls-1{fill:#231f20;}.cls-2{fill:#fff;}</style></defs><title>Asset 2</title><g id="Layer_2" data-name="Layer 2"><g id="Layer_1-2" data-name="Layer 1"><path class="cls-1" d="M177.07,83.9H14.79a1.22,1.22,0,0,1,0-2.43H176.42l12-17.93H1.21a1.22,1.22,0,0,1,0-2.44H190.65a1.22,1.22,0,0,1,1.22,1.22,1.19,1.19,0,0,1-.21.68L178.08,83.36A1.2,1.2,0,0,1,177.07,83.9Z"/><path class="cls-1" d="M1.21,70.32A1.21,1.21,0,0,1,0,69.11V62.32a1.22,1.22,0,1,1,2.43,0v6.79A1.21,1.21,0,0,1,1.21,70.32Z"/><path class="cls-1" d="M172.91,70.29l0-.25-.1-.23-.15-.21-.18-.17-.21-.14-.23-.1-.25,0h-.28l-.25.06-.23.1-.21.14-.17.18-.14.21-.09.24-.05.24v.28l.06.26.1.23.15.2.18.18.21.13.23.1.25,0h.28l.25,0,.23-.11.21-.14.17-.18.14-.21.09-.24,0-.24v-.11a0,0,0,0,0,0,0Z"/><path class="cls-1" d="M171.63,72.68h-.18l-.13,0-.24,0-.18,0-.23-.09-.16-.08-.21-.14-.14-.11L170,72l-.12-.13-.14-.21-.09-.16-.1-.23a.49.49,0,0,1-.06-.17l-.06-.26s0-.09,0-.14v-.14a1.09,1.09,0,0,1,0-.18v-.06s0-.09,0-.13l0-.25a1.09,1.09,0,0,1,.05-.17l.1-.24a1.09,1.09,0,0,1,.08-.15l.14-.21.11-.15.17-.17a.53.53,0,0,1,.14-.12l.2-.14a.65.65,0,0,1,.16-.09l.24-.11.17,0,.25-.06.14,0h.38l.14,0,.24,0,.18,0,.23.09a.83.83,0,0,1,.16.09l.21.13.14.11.18.18.12.14.14.2.09.16.1.23a.58.58,0,0,1,.06.17l0,.26a.58.58,0,0,1,0,.14v.14a.54.54,0,0,1,0,.18v.06s0,.09,0,.13l-.05.25a.84.84,0,0,1,0,.17l-.1.24a1.19,1.19,0,0,1-.08.16l-.14.21a1.34,1.34,0,0,1-.11.14l-.17.18-.14.11-.2.15-.16.08-.23.11-.18,0-.25.06-.14,0h-.21Zm-.11-1.88.09,0h0l.24-.09.11-.18,0-.1-.09-.24-.18-.12-.1,0-.24.1-.11.18,0,.09.05.19.15.14Z"/><path class="cls-1" d="M42,63.54H8a1.22,1.22,0,0,1-1.21-1.22V42A1.21,1.21,0,0,1,8,40.74H42A1.22,1.22,0,0,1,43.17,42V62.32A1.22,1.22,0,0,1,42,63.54ZM9.22,61.1H40.74V43.17H9.22Z"/><path class="cls-1" d="M48.74,43.17H1.21A1.22,1.22,0,0,1,0,42V35.16A1.21,1.21,0,0,1,1.21,34H48.74A1.22,1.22,0,0,1,50,35.16V42A1.22,1.22,0,0,1,48.74,43.17ZM2.43,40.74h45.1V36.38H2.43Z"/><path class="cls-1" d="M42,36.38H8a1.22,1.22,0,0,1-1.21-1.22V28.37A1.21,1.21,0,0,1,8,27.16H42a1.22,1.22,0,0,1,1.22,1.21v6.79A1.22,1.22,0,0,1,42,36.38ZM9.22,34H40.74V29.59H9.22Z"/><path class="cls-1" d="M14.79,29.59A1.22,1.22,0,1,1,16,28.37,1.22,1.22,0,0,1,14.79,29.59Zm0-1.87a.65.65,0,1,0,.65.65A.66.66,0,0,0,14.79,27.72Z"/><path class="cls-1" d="M21.58,29.59a1.22,1.22,0,1,1,1.22-1.22A1.22,1.22,0,0,1,21.58,29.59Zm0-1.87a.65.65,0,1,0,.65.65A.66.66,0,0,0,21.58,27.72Z"/><path class="cls-1" d="M28.37,29.59a1.22,1.22,0,1,1,1.22-1.22A1.22,1.22,0,0,1,28.37,29.59Zm0-1.87a.65.65,0,1,0,.65.65A.65.65,0,0,0,28.37,27.72Z"/><path class="cls-1" d="M14.79,83.9h0l-1.09,0-.75-.07-1.46-.26-.71-.18L9.4,82.89,8.08,82.3l-1.24-.71-1.16-.82-1.07-.93-1-1L2.75,77.7,2,76.5l-.66-1.27L.79,73.88l-.4-1.4L.12,71l-.07-.74,0-1.16a1.21,1.21,0,0,1,.35-.86,1.21,1.21,0,0,1,.85-.37,1.18,1.18,0,0,1,.86.35,1.17,1.17,0,0,1,.37.86l0,1,.16,1.24.27,1.19.39,1.15.5,1.09.6,1,.69,1,.78.89.85.82.94.73,1,.64,1.07.55,1.12.44,1.18.33,1.21.22,1.58.09h0a1.23,1.23,0,0,1,.85.37,1.22,1.22,0,0,1,.35.87,1.17,1.17,0,0,1-.37.85A1.22,1.22,0,0,1,14.79,83.9Zm0-.56ZM.57,69.12Zm1.29,0Z"/><path class="cls-1" d="M82,63.54H54.86a1.22,1.22,0,0,1-1.21-1.22V48.74a1.21,1.21,0,0,1,1.21-1.21H82a1.22,1.22,0,0,1,1.22,1.21V62.32A1.22,1.22,0,0,1,82,63.54ZM56.08,61.1H80.81V50H56.08Z"/><path class="cls-1" d="M109.18,63.54H82a1.22,1.22,0,0,1-1.21-1.22V48.74A1.21,1.21,0,0,1,82,47.53h27.16a1.21,1.21,0,0,1,1.21,1.21V62.32A1.22,1.22,0,0,1,109.18,63.54ZM83.24,61.1H108V50H83.24Z"/><path class="cls-1" d="M136.34,63.54H109.18A1.22,1.22,0,0,1,108,62.32V48.74a1.22,1.22,0,0,1,1.22-1.21h27.16a1.21,1.21,0,0,1,1.21,1.21V62.32A1.22,1.22,0,0,1,136.34,63.54ZM110.39,61.1h24.73V50H110.39Z"/><path class="cls-1" d="M95.6,50H68.44a1.22,1.22,0,0,1-1.21-1.22V35.16A1.21,1.21,0,0,1,68.44,34H95.6a1.21,1.21,0,0,1,1.21,1.21V48.74A1.22,1.22,0,0,1,95.6,50ZM69.66,47.53H94.38V36.38H69.66Z"/><path class="cls-1" d="M122.76,50H95.6a1.22,1.22,0,0,1-1.22-1.22V35.16A1.22,1.22,0,0,1,95.6,34h27.16A1.21,1.21,0,0,1,124,35.16V48.74A1.22,1.22,0,0,1,122.76,50ZM96.81,47.53h24.73V36.38H96.81Z"/><path class="cls-1" d="M82,56.75H54.86a1.22,1.22,0,0,1,0-2.43H82a1.22,1.22,0,1,1,0,2.43Zm0-.57h0Z"/><path class="cls-1" d="M122.76,43.17H95.6a1.22,1.22,0,1,1,0-2.43h27.16a1.22,1.22,0,0,1,0,2.43Zm0-.57Z"/><path class="cls-2" d="M14.79,55.56a1.22,1.22,0,0,1-1.21-1.22V49.93a1.22,1.22,0,1,1,2.43,0v4.41A1.22,1.22,0,0,1,14.79,55.56Z"/><path class="cls-2" d="M19.89,55.56a1.22,1.22,0,0,1-1.22-1.22V49.93a1.22,1.22,0,1,1,2.43,0v4.41A1.22,1.22,0,0,1,19.89,55.56Z"/><path class="cls-2" d="M30.07,55.56a1.22,1.22,0,0,1-1.21-1.22V49.93a1.22,1.22,0,1,1,2.43,0v4.41A1.22,1.22,0,0,1,30.07,55.56Z"/><path class="cls-2" d="M25,55.56a1.22,1.22,0,0,1-1.22-1.22V49.93a1.22,1.22,0,1,1,2.43,0v4.41A1.22,1.22,0,0,1,25,55.56Z"/><path class="cls-1" d="M14.79,36.38a1.22,1.22,0,0,1-1.21-1.22V28.37a1.22,1.22,0,0,1,2.43,0v6.79A1.22,1.22,0,0,1,14.79,36.38Z"/><path class="cls-1" d="M21.58,36.38a1.22,1.22,0,0,1-1.21-1.22V28.37a1.22,1.22,0,0,1,2.43,0v6.79A1.22,1.22,0,0,1,21.58,36.38Z"/><path class="cls-1" d="M28.37,36.38a1.22,1.22,0,0,1-1.21-1.22V28.37a1.22,1.22,0,0,1,2.43,0v6.79A1.22,1.22,0,0,1,28.37,36.38Z"/><path class="cls-1" d="M163.49,63.54H136.34a1.22,1.22,0,0,1-1.22-1.22V48.74a1.22,1.22,0,0,1,1.22-1.21h27.15a1.22,1.22,0,0,1,1.22,1.21V62.32A1.22,1.22,0,0,1,163.49,63.54ZM137.55,61.1h24.73V50H137.55Z"/><path class="cls-1" d="M149.91,50H122.76a1.22,1.22,0,0,1-1.22-1.22V35.16A1.22,1.22,0,0,1,122.76,34h27.15a1.22,1.22,0,0,1,1.22,1.21V48.74A1.22,1.22,0,0,1,149.91,50ZM124,47.53H148.7V36.38H124Z"/><path class="cls-1" d="M143.12,63.54a1.22,1.22,0,0,1-1.21-1.22V48.74a1.22,1.22,0,0,1,2.43,0V62.32A1.22,1.22,0,0,1,143.12,63.54Z"/><path class="cls-1" d="M149.91,63.54a1.22,1.22,0,0,1-1.21-1.22V48.74a1.22,1.22,0,0,1,2.43,0V62.32A1.22,1.22,0,0,1,149.91,63.54Z"/><path class="cls-1" d="M156.7,63.54a1.22,1.22,0,0,1-1.21-1.22V48.74a1.22,1.22,0,0,1,2.43,0V62.32A1.22,1.22,0,0,1,156.7,63.54Z"/><path class="cls-1" d="M35.16,36.38A1.22,1.22,0,0,1,34,35.16V28.37a1.22,1.22,0,0,1,2.43,0v6.79A1.22,1.22,0,0,1,35.16,36.38Z"/><path class="cls-2" d="M35.16,55.56A1.22,1.22,0,0,1,34,54.34V49.93a1.22,1.22,0,1,1,2.43,0v4.41A1.22,1.22,0,0,1,35.16,55.56Z"/><path class="cls-1" d="M35.45,29.59H14.51a.93.93,0,0,1-.93-.93V14.51a.93.93,0,0,1,.93-.93H35.45a.93.93,0,0,1,.93.93V28.66A.93.93,0,0,1,35.45,29.59ZM16,27.16H34V16H16Z"/><rect class="cls-1" x="13.58" y="0.28" width="2.43" height="22.23" rx="0.93"/><path class="cls-1" d="M15.08,9.22H.93A.93.93,0,0,1,0,8.29V.93A.93.93,0,0,1,.93,0H15.08A.93.93,0,0,1,16,.93V8.29A.93.93,0,0,1,15.08,9.22ZM2.43,6.79H13.58V2.43H2.43Z"/></g></g></svg>