<svg xmlns="http://www.w3.org/2000/svg" viewBox="0 0 49.92 56.75"><defs><style>.cls-1,.cls-2,.cls-3{fill:none;stroke-linejoin:round;stroke-width:1.88px;}.cls-1{stroke:#fff;}.cls-1,.cls-3{stroke-linecap:round;}.cls-2,.cls-3{stroke:#231f20;}</style></defs><title>Asset 1</title><g id="Layer_2" data-name="Layer 2"><g id="Layer_1-2" data-name="Layer 1"><path class="cls-1" d="M17,31.67a4.89,4.89,0,1,1-4.89-4.88A4.89,4.89,0,0,1,17,31.67Z"/><path class="cls-1" d="M29.44,32.08A4.48,4.48,0,1,1,25,27.61,4.48,4.48,0,0,1,29.44,32.08Z"/><path class="cls-1" d="M42.66,31.67a4.89,4.89,0,1,1-4.89-4.88A4.89,4.89,0,0,1,42.66,31.67Z"/><path class="cls-1" d="M15.87,19.78a4.17,4.17,0,1,1-4.17-4.17A4.17,4.17,0,0,1,15.87,19.78Z"/><path class="cls-1" d="M29.63,19.06a4.89,4.89,0,1,1-4.89-4.89A4.89,4.89,0,0,1,29.63,19.06Z"/><path class="cls-1" d="M42.36,19A4.37,4.37,0,1,1,38,14.63,4.37,4.37,0,0,1,42.36,19Z"/><path class="cls-1" d="M16.53,7.26a4.38,4.38,0,1,1-4.38-4.37A4.38,4.38,0,0,1,16.53,7.26Z"/><path class="cls-1" d="M29.85,5.83A4.89,4.89,0,1,1,25,.94,4.88,4.88,0,0,1,29.85,5.83Z"/><path class="cls-1" d="M42.14,6.77A4.38,4.38,0,1,1,37.77,2.4,4.38,4.38,0,0,1,42.14,6.77Z"/><path class="cls-2" d="M11.44,49.35v5.48a1,1,0,0,1-.91,1H3a1,1,0,0,1-.91-1V46.4"/><path class="cls-2" d="M38.48,49.35v5.48a.94.94,0,0,0,.91,1H47a1,1,0,0,0,.91-1V46.4"/><rect class="cls-2" x="0.94" y="39.95" width="48.04" height="6.46"/><line class="cls-3" x1="2.04" y1="39.61" x2="2.04" y2="5.03"/><line class="cls-3" x1="47.88" y1="39.61" x2="47.88" y2="5.03"/></g></g></svg>