<svg xmlns="http://www.w3.org/2000/svg" viewBox="0 0 275.27 54.33"><defs><style>.cls-1,.cls-3,.cls-4,.cls-5,.cls-7,.cls-8{fill:none;}.cls-1,.cls-3,.cls-4,.cls-7{stroke:#fff;}.cls-1,.cls-3{stroke-miterlimit:10;}.cls-1{stroke-width:1.68px;}.cls-2{fill:#fcc917;}.cls-3{stroke-width:1.71px;}.cls-4,.cls-7,.cls-8{stroke-linecap:square;}.cls-4,.cls-5,.cls-7,.cls-8{stroke-linejoin:round;}.cls-4,.cls-5{stroke-width:1.62px;}.cls-5,.cls-8{stroke:#fcc917;}.cls-5{stroke-linecap:round;}.cls-6{fill:#fff;}.cls-7,.cls-8{stroke-width:1.64px;}</style></defs><title>Asset 4</title><g id="Layer_2" data-name="Layer 2"><g id="Layer_1-2" data-name="Layer 1"><path class="cls-1" d="M27.16,53.49A26.33,26.33,0,1,0,.84,27.16,26.33,26.33,0,0,0,27.16,53.49"/><path class="cls-2" d="M9.13,29.19a2.36,2.36,0,1,1,4.71,0,2.39,2.39,0,0,1-2.39,2.45,2.32,2.32,0,0,1-2.32-2.46M6.37,34H9.11V33h0a3.1,3.1,0,0,0,2.74,1.35,4.78,4.78,0,0,0,4.82-5.17,4.72,4.72,0,0,0-4.7-5,3.72,3.72,0,0,0-2.77,1.08V21.25H6.37Z"/><path class="cls-2" d="M40.37,28.58a3.69,3.69,0,0,1,3.65-3,3.75,3.75,0,0,1,3.6,3Zm8.52,1.16a5.31,5.31,0,0,0-1.1-3.55,4.91,4.91,0,1,0-3.75,8,5,5,0,0,0,4.58-3.28H47.29A3.69,3.69,0,0,1,43.92,33a3.61,3.61,0,0,1-3.55-3.25ZM35.9,34h1.28V25.72h2.34V24.57H37.18v-.19a1.81,1.81,0,0,1,2.08-2h.24V21.26h-.24c-2.06,0-3.44,1.19-3.36,3.31H34.44v1.15H35.9Zm-7-8.4a3.68,3.68,0,0,1,3.69,3.75A3.72,3.72,0,0,1,28.9,33a3.7,3.7,0,1,1,0-7.4m4.91-1H32.55v1.79h0a4,4,0,0,0-3.65-2,4.89,4.89,0,0,0-3.68,1.55,4.78,4.78,0,0,0-1.37,3.31,5.06,5.06,0,0,0,.93,3,5.57,5.57,0,0,0,4.16,2,4,4,0,0,0,3.61-2h0V34h1.22ZM17.41,31.22a3,3,0,1,0,5.91,0c0-1.71-1.23-2.31-2.64-2.76C19.85,28.2,19,27.93,19,26.9a1.3,1.3,0,0,1,1.31-1.31,1.33,1.33,0,0,1,1.46,1.32h1.27a2.61,2.61,0,0,0-2.6-2.55A2.65,2.65,0,0,0,17.75,27a2.41,2.41,0,0,0,.76,1.79,4.14,4.14,0,0,0,1.71.83c.93.25,1.82.67,1.82,1.8A1.57,1.57,0,0,1,20.39,33a1.72,1.72,0,0,1-1.71-1.77Z"/><path class="cls-3" d="M175.71,52.72a24.67,24.67,0,1,0-24.66-24.67,24.67,24.67,0,0,0,24.66,24.67"/><path class="cls-2" d="M176,39.66a1,1,0,0,1-.69-.27L163.25,27.32a.94.94,0,0,1,0-1.33l4.67-4.67a1,1,0,0,1,1.34,0L176,28.05,199.86,4.19a.94.94,0,0,1,1.33,0l4.67,4.67a.91.91,0,0,1,.28.66.93.93,0,0,1-.28.67L176.69,39.36A1,1,0,0,1,176,39.66Zm-10.76-13L176,37.39,187.2,26.18h0L203.86,9.52l-3.34-3.33L176.66,30.05a1,1,0,0,1-1.34,0l-6.73-6.73Z"/><polyline class="cls-4" points="229.78 52.19 246.19 23.15 262.56 52.19"/><polyline class="cls-4" points="274.14 50.85 259.56 29.94 254.78 37.15"/><polyline class="cls-4" points="239.52 35.68 241.44 39 244.04 34.09 246.2 39 248.6 34.05 250.96 39 252.95 36.17"/><line class="cls-5" x1="246.17" y1="12.15" x2="246.17" y2="23.15"/><polygon class="cls-5" points="246.26 11.68 246.26 17.65 255.06 17.65 251.48 14.43 255.43 11.78 246.26 11.68"/><path class="cls-6" d="M267.91,37.5l-1.28-1.09a20.22,20.22,0,1,0-30.69.07l-1.27,1.1a21.91,21.91,0,1,1,33.24-.08Z"/><path class="cls-7" d="M78.55,32.44A24.33,24.33,0,0,1,90,5.91"/><path class="cls-7" d="M110.65,49.79A24.49,24.49,0,0,1,92,49"/><path class="cls-7" d="M112.94,5.07a24.33,24.33,0,0,1,13.65,21.87,24.08,24.08,0,0,1-.62,5.47"/><path class="cls-8" d="M107.05,17v1.44a1.24,1.24,0,0,0,.3.8l2.23,2.67a1.29,1.29,0,0,1,.29.8v3.92a1.25,1.25,0,0,1-1.25,1.26h0a1.25,1.25,0,0,1-1.25-1.26V35.9a1.25,1.25,0,0,1-1.25,1.25h-.4a1.25,1.25,0,0,1-1.25-1.25v1.43a1.25,1.25,0,0,1-1.25,1.25h-.29a1.25,1.25,0,0,1-1.25-1.25v-1a1.25,1.25,0,0,1-1.25,1.25H100a1.25,1.25,0,0,1-1.25-1.25v-.94a1.25,1.25,0,0,1-1.25,1.25h-.36a1.25,1.25,0,0,1-1.25-1.25V21.35A1,1,0,0,1,96,21l1-4"/><polyline class="cls-8" points="88.3 32.16 91.14 27.77 94.84 24.29"/><line class="cls-8" x1="95.27" y1="39.54" x2="98.37" y2="36.47"/><line class="cls-8" x1="108.52" y1="39.37" x2="106.07" y2="36.92"/><polyline class="cls-8" points="116.2 32.43 113.58 28.39 110.29 25.18"/><polyline class="cls-7" points="94.16 0.83 94.16 15.89 108.92 15.89 108.92 0.83"/><polyline class="cls-7" points="75.18 43.08 86.99 31.26 96.41 40.69 84.6 52.5"/><polyline class="cls-7" points="120.44 52.7 108.52 40.78 118.04 31.25 129.97 43.18"/></g></g></svg>