<svg xmlns="http://www.w3.org/2000/svg" viewBox="0 0 275.27 55.82"><defs><style>.cls-1,.cls-3,.cls-5,.cls-6,.cls-8,.cls-9{fill:none;}.cls-1,.cls-3,.cls-5,.cls-8{stroke:#fff;}.cls-1,.cls-3{stroke-miterlimit:10;}.cls-1{stroke-width:1.68px;}.cls-2{fill:#fcc917;}.cls-3{stroke-width:1.71px;}.cls-4{fill:#231f20;}.cls-5,.cls-8,.cls-9{stroke-linecap:square;}.cls-5,.cls-6,.cls-8,.cls-9{stroke-linejoin:round;}.cls-5,.cls-6{stroke-width:1.62px;}.cls-6,.cls-9{stroke:#fcc917;}.cls-6{stroke-linecap:round;}.cls-7{fill:#fff;}.cls-8,.cls-9{stroke-width:1.64px;}</style></defs><title>Asset 3</title><g id="Layer_2" data-name="Layer 2"><g id="Layer_1-2" data-name="Layer 1"><path class="cls-1" d="M27.16,55A26.32,26.32,0,1,0,.84,28.65,26.32,26.32,0,0,0,27.16,55"/><path class="cls-2" d="M9.13,30.68a2.36,2.36,0,1,1,4.71,0,2.39,2.39,0,0,1-2.39,2.45,2.32,2.32,0,0,1-2.32-2.46m-2.76,4.8H9.11v-1h0a3.1,3.1,0,0,0,2.74,1.35,4.79,4.79,0,0,0,4.82-5.17A4.72,4.72,0,0,0,12,25.59a3.7,3.7,0,0,0-2.77,1.09V22.74H6.37Z"/><path class="cls-2" d="M40.37,30.07a3.69,3.69,0,0,1,3.65-3,3.75,3.75,0,0,1,3.6,3Zm8.52,1.16a5.31,5.31,0,0,0-1.1-3.55,4.91,4.91,0,1,0-3.75,8,5,5,0,0,0,4.58-3.29H47.29a3.68,3.68,0,0,1-3.37,2.07,3.61,3.61,0,0,1-3.55-3.25Zm-13,4.25h1.28V27.21h2.34V26.06H37.18v-.19c0-1.33.77-2,2.08-2h.24V22.75h-.24c-2.06,0-3.44,1.19-3.36,3.31H34.44v1.15H35.9Zm-7-8.4a3.68,3.68,0,0,1,3.69,3.75,3.72,3.72,0,0,1-3.65,3.65,3.7,3.7,0,1,1,0-7.4m4.91-1H32.55v1.79h0a4,4,0,0,0-3.65-2,4.89,4.89,0,0,0-3.68,1.55,4.77,4.77,0,0,0-1.37,3.31,5.06,5.06,0,0,0,.93,3,5.57,5.57,0,0,0,4.16,2,4,4,0,0,0,3.61-2h0v1.77h1.22ZM17.41,32.71a3,3,0,1,0,5.91,0c0-1.71-1.23-2.31-2.64-2.76-.83-.26-1.65-.53-1.65-1.57a1.3,1.3,0,0,1,1.31-1.3A1.33,1.33,0,0,1,21.8,28.4h1.27a2.6,2.6,0,0,0-2.6-2.55,2.65,2.65,0,0,0-2.72,2.64,2.41,2.41,0,0,0,.76,1.79,4.14,4.14,0,0,0,1.71.83c.93.25,1.82.67,1.82,1.8a1.57,1.57,0,0,1-1.65,1.57,1.72,1.72,0,0,1-1.71-1.77Z"/><path class="cls-3" d="M175.71,54.21a24.67,24.67,0,1,0-24.66-24.67,24.67,24.67,0,0,0,24.66,24.67"/><rect class="cls-4" x="179.81" y="8.96" width="31.27" height="14.34" transform="translate(45.84 142.92) rotate(-45)"/><path class="cls-2" d="M176,41.14a1,1,0,0,1-.69-.26L163.25,28.81a1,1,0,0,1,0-1.34l4.67-4.67a1,1,0,0,1,1.34,0L176,29.54,199.86,5.68a.94.94,0,0,1,1.33,0l4.67,4.67a.91.91,0,0,1,.28.66,1,1,0,0,1-.28.67L176.69,40.85A1,1,0,0,1,176,41.14Zm-10.76-13L176,38.88,187.2,27.67h0L203.86,11l-3.34-3.33L176.66,31.54a1,1,0,0,1-1.34,0l-6.73-6.73Z"/><polyline class="cls-5" points="229.78 53.68 246.19 24.64 262.56 53.68"/><polyline class="cls-5" points="274.14 52.34 259.56 31.43 254.78 38.64"/><polyline class="cls-5" points="239.52 37.17 241.44 40.49 244.04 35.58 246.2 40.49 248.6 35.54 250.96 40.49 252.95 37.66"/><line class="cls-6" x1="246.17" y1="13.64" x2="246.17" y2="24.64"/><polygon class="cls-6" points="246.26 13.16 246.26 19.14 255.06 19.14 251.48 15.92 255.43 13.26 246.26 13.16"/><path class="cls-7" d="M267.91,39l-1.28-1.09a20.22,20.22,0,1,0-30.69.07l-1.27,1.09A21.9,21.9,0,1,1,267.91,39Z"/><path class="cls-8" d="M78.55,33.93A24.33,24.33,0,0,1,90,7.4"/><path class="cls-8" d="M110.65,51.27a24,24,0,0,1-8.39,1.49A24.39,24.39,0,0,1,92,50.51"/><path class="cls-8" d="M112.94,6.56a24.33,24.33,0,0,1,13.65,21.87A24.08,24.08,0,0,1,126,33.9"/><path class="cls-9" d="M107.05,18.49v1.44a1.24,1.24,0,0,0,.3.8l2.23,2.67a1.29,1.29,0,0,1,.29.8v3.92a1.25,1.25,0,0,1-1.25,1.25h0a1.25,1.25,0,0,1-1.25-1.25v9.27a1.25,1.25,0,0,1-1.25,1.25h-.4a1.25,1.25,0,0,1-1.25-1.25v1.43a1.25,1.25,0,0,1-1.25,1.25h-.29a1.25,1.25,0,0,1-1.25-1.25v-1a1.25,1.25,0,0,1-1.25,1.25H100a1.25,1.25,0,0,1-1.25-1.25v-.94a1.25,1.25,0,0,1-1.25,1.25h-.36a1.25,1.25,0,0,1-1.25-1.25V22.84a1.15,1.15,0,0,1,.06-.37l1-4"/><polyline class="cls-9" points="88.3 33.65 91.14 29.26 94.84 25.77"/><line class="cls-9" x1="95.27" y1="41.03" x2="98.37" y2="37.96"/><line class="cls-9" x1="108.52" y1="40.86" x2="106.07" y2="38.41"/><polyline class="cls-9" points="116.2 33.92 113.58 29.88 110.29 26.67"/><polyline class="cls-8" points="94.16 2.32 94.16 17.38 108.92 17.38 108.92 2.32"/><polyline class="cls-8" points="75.18 44.56 86.99 32.75 96.41 42.18 84.6 53.99"/><polyline class="cls-8" points="120.44 54.19 108.52 42.27 118.04 32.74 129.97 44.67"/></g></g></svg>