<svg xmlns="http://www.w3.org/2000/svg" viewBox="0 0 74 72.85"><defs><style>.cls-1,.cls-2{fill:none;stroke-linejoin:round;stroke-width:3.08px;}.cls-1{stroke:#231f20;}.cls-2{stroke:#fcd217;}</style></defs><title>Asset 2</title><g id="Layer_2" data-name="Layer 2"><g id="Layer_1-2" data-name="Layer 1"><line class="cls-1" x1="26.15" y1="41.53" x2="26.15" y2="53.84"/><path class="cls-1" d="M21.53,46.14l-4.16,4.17a1.54,1.54,0,0,0-.45,1.09v4.47a1.54,1.54,0,0,1-1,1.43L4.44,61.9a4.62,4.62,0,0,0-2.9,4.29v4.56"/><path class="cls-1" d="M21.53,52.3l9.84,4.21a1.55,1.55,0,0,1,.93,1.42v8.21"/><path class="cls-1" d="M35.38,46.14H34.13a9.08,9.08,0,0,1-6.25-2.45,53.86,53.86,0,0,1-5-4.91c-.86-1.27-1.35-5-1.35-6.61v-9.1"/><line class="cls-1" x1="44.61" y1="41.53" x2="44.61" y2="53.84"/><path class="cls-1" d="M49.22,52.3l-9.83,4.21a1.54,1.54,0,0,0-.94,1.42v8.21"/><path class="cls-1" d="M35.38,46.14h1.25a9.12,9.12,0,0,0,6.25-2.45,52.78,52.78,0,0,0,5-4.91c.86-1.27,1.35-5,1.35-6.61v-9.1"/><polyline class="cls-1" points="32.3 12.3 32.3 1.54 38.45 1.54 38.45 12.3"/><line class="cls-1" x1="55.37" y1="23.07" x2="15.38" y2="23.07"/><path class="cls-1" d="M27.69,9.23V3.08c-4.62,1.53-9.23,6-9.23,12.3v1.54l-1.54,1.54V20"/><path class="cls-1" d="M43.07,9.23V3.08c4.61,1.53,9.23,6,9.23,12.3v1.54l1.54,1.54V20"/><path class="cls-2" d="M71.05,48.66,65.61,54.1l-4.35-4.35,5.44-5.44c-2.22-2.22-6.89-1.81-9.79,1.09A7.39,7.39,0,0,0,55,53.59a3,3,0,0,1-.74,3.16L45.06,66A3.2,3.2,0,0,0,44.61,70a3.09,3.09,0,0,0,4.69.39l9.31-9.31a3,3,0,0,1,3.16-.74A7.39,7.39,0,0,0,70,58.45C72.86,55.55,73.27,50.88,71.05,48.66Z"/></g></g></svg>